<?xml version="1.0" encoding="UTF-8"?>
<svg xmlns="http://www.w3.org/2000/svg" xmlns:xlink="http://www.w3.org/1999/xlink" width="96pt" height="96pt" viewBox="0 0 96 96" version="1.1">
<g id="surface2065111">
<path style=" stroke:none;fill-rule:nonzero;fill:rgb(100%,100%,100%);fill-opacity:1;" d="M 84 74 C 84 79.523438 79.523438 84 74 84 L 22 84 C 16.476562 84 12 79.523438 12 74 L 12 22 C 12 16.476562 16.476562 12 22 12 L 74 12 C 79.523438 12 84 16.476562 84 22 Z M 84 74 "/>
<path style=" stroke:none;fill-rule:nonzero;fill:rgb(20.392157%,59.607843%,85.882353%);fill-opacity:1;" d="M 24 38 L 34 38 L 34 72 L 24 72 Z M 28.96875 34 L 28.914062 34 C 25.929688 34 24 31.777344 24 28.996094 C 24 26.160156 25.988281 24 29.027344 24 C 32.070312 24 33.945312 26.160156 34 28.996094 C 34 31.773438 32.070312 34 28.96875 34 Z M 72 72 L 62 72 L 62 53.800781 C 62 49.40625 59.550781 46.40625 55.617188 46.40625 C 52.613281 46.40625 50.988281 48.429688 50.203125 50.386719 C 49.914062 51.085938 50 53.023438 50 54 L 50 72 L 40 72 L 40 38 L 50 38 L 50 43.230469 C 51.441406 41 53.699219 38 59.476562 38 C 66.632812 38 71.996094 42.5 71.996094 52.546875 Z M 72 72 "/>
</g>
</svg>
