<svg xmlns="http://www.w3.org/2000/svg" x="0px" y="0px" width="40" height="40" viewBox="0 0 40 40" style=" fill:#000000;">
  <path fill="#b6dcfe" d="M11.507,37.5C10.4,37.5,9.5,36.6,9.5,35.493V4.507C9.5,3.4,10.4,2.5,11.507,2.5h16.985 C29.6,2.5,30.5,3.4,30.5,4.507v30.985c0,1.107-0.9,2.007-2.007,2.007L11.507,37.5L11.507,37.5z"></path>
  <path fill="#4788c7" d="M28.493,3C29.324,3,30,3.676,30,4.507v30.986C30,36.324,29.324,37,28.493,37H11.507 C10.676,37,10,36.324,10,35.493V4.507C10,3.676,10.676,3,11.507,3H28.493 M28.493,2H11.507C10.122,2,9,3.122,9,4.507v30.986 C9,36.878,10.122,38,11.507,38h16.986C29.878,38,31,36.878,31,35.493V4.507C31,3.122,29.878,2,28.493,2L28.493,2z"></path>
  <path fill="#dff0fe" d="M9.5 5.5H30.5V33.5H9.5z"></path>
  <path fill="#4788c7" d="M30 6v27H10V6H30M31 5H9v29h22V5L31 5zM22.5 36h-5c-.276 0-.5-.224-.5-.5s.224-.5.5-.5h5c.276 0 .5.224.5.5S22.776 36 22.5 36z"></path>
  <path fill="#4788c7" d="M17.884,16.467c0-0.724,0.71-1.349,2.169-1.349c1.653,0,2.843,0.428,3.767,0.941v-2.444 c-0.687-0.35-1.726-0.555-3.118-0.616l-1.445,0.036c-1.207,0.108-2.176,0.497-2.909,1.163c-0.732,0.666-1.099,1.474-1.099,2.421 c0,3.744,6.868,3.86,6.868,5.911c0,0.73-1,1.295-2.115,1.295c-2.283,0-4.102-0.884-4.485-1.168v2.508 c1.154,0.549,2.401,0.827,3.741,0.833l1.445-0.054c1.299-0.133,2.299-0.505,2.998-1.117c0.698-0.612,1.048-1.42,1.048-2.422 C24.75,18.408,17.884,18.714,17.884,16.467z"></path>
  <path fill="#4788c7" d="M19 11H21V14H19zM19 25H21V28H19z"></path>
</svg>