<svg xmlns="http://www.w3.org/2000/svg" viewBox="0 0 48 48" width="128px" height="128px"><path fill="#546e7a" d="M6 13H42V37H6z"/><path fill="#bbdefb" d="M8 15H40V34H8z"/><path fill="#455a64" d="M21 37H27V40H21zM33 40c-2 0-16 0-18 0s-2 2-2 2v1h22v-1C35 42 35 40 33 40z"/><path fill="#263238" d="M37,25c0,0.552-0.448,1-1,1H12c-0.552,0-1-0.448-1-1v-2c0-0.552,0.448-1,1-1h24c0.552,0,1,0.448,1,1 V25z"/><path fill="#a5d6a7" d="M13 5H35V26H13z"/><path fill="#388e3c" d="M13,5v21h2V7h18v19h2V5H13z"/><path fill="#388e3c" d="M24 11A2 2 0 1 0 24 15 2 2 0 1 0 24 11zM14 6v4.221C14.532 10.7 15.228 11 16 11c1.657 0 3-1.343 3-3 0-.772-.3-1.468-.779-2H14zM34 6h-4.221C29.3 6.532 29 7.228 29 8c0 1.657 1.343 3 3 3 .772 0 1.468-.3 2-.779V6z"/><path fill="#66bb6a" d="M15 24H33V26H15z"/><path fill="#388e3c" d="M29.651,26C29.873,25.374,30,24.702,30,24c0-3.314-2.686-6-6-6s-6,2.686-6,6 c0,0.702,0.127,1.374,0.349,2H29.651z"/><path fill="#2e7d32" d="M18.349 26h11.302C29.873 25.374 30 24.702 30 24H18C18 24.702 18.127 25.374 18.349 26zM13 24H15V26H13zM33 24H35V26H33z"/></svg>