<svg id="SvgjsSvg1001" width="288" height="288" xmlns="http://www.w3.org/2000/svg" version="1.1" xmlns:xlink="http://www.w3.org/1999/xlink" xmlns:svgjs="http://svgjs.com/svgjs"><defs id="SvgjsDefs1002"></defs><g id="SvgjsG1008" transform="matrix(0.9167,0,0,0.9167,11.995200000000011,11.995200000000011)"><svg xmlns="http://www.w3.org/2000/svg" viewBox="0 0 64 64" width="288" height="288"><rect width="4" height="13" x="49" y="29" fill="#fbd7d4" class="color78b9eb svgShape"></rect><polygon fill="#fbd7d4" points="55 42 55 45 47 45 47 42 49 42 53 42 55 42" class="color78b9eb svgShape"></polygon><polygon fill="#fbd7d4" points="47 26 55 26 55 29 53 29 49 29 47 29 47 26" class="color78b9eb svgShape"></polygon><rect width="4" height="13" x="25" y="29" fill="#fbd7d4" class="color78b9eb svgShape"></rect><polygon fill="#fbd7d4" points="35 26 43 26 43 29 41 29 37 29 35 29 35 26" class="color78b9eb svgShape"></polygon><rect width="4" height="13" x="37" y="29" fill="#fbd7d4" class="color78b9eb svgShape"></rect><polygon fill="#fbd7d4" points="43 42 43 45 35 45 35 42 37 42 41 42 43 42" class="color78b9eb svgShape"></polygon><polygon fill="#fbd7d4" points="43 49 21 49 21 45 23 45 31 45 35 45 43 45 47 45 55 45 57 45 57 49 43 49" class="color78b9eb svgShape"></polygon><polygon fill="#fbd7d4" points="56 22 22 22 22 19 39 14 43 15.18 56 19 56 22" class="color78b9eb svgShape"></polygon><polygon fill="#fbd7d4" points="23 26 31 26 31 29 29 29 25 29 23 29 23 26" class="color78b9eb svgShape"></polygon><polygon fill="#fbd7d4" points="56 22 56 26 55 26 47 26 43 26 35 26 31 26 23 26 22 26 22 22 56 22" class="color78b9eb svgShape"></polygon><path fill="#fbd7d4" d="M43,53v6a2.006,2.006,0,0,1-2,2H9a2.006,2.006,0,0,1-2-2V53Z" class="color78b9eb svgShape"></path><polygon fill="#fbd7d4" points="31 42 31 45 23 45 23 42 25 42 29 42 31 42" class="color78b9eb svgShape"></polygon><path fill="#fbd7d4" d="M43,5V9H7V5A2.006,2.006,0,0,1,9,3H41A2.006,2.006,0,0,1,43,5Z" class="color78b9eb svgShape"></path><path fill="#592e5e" d="M57,44H56V42a1,1,0,0,0-1-1H54V30h1a1,1,0,0,0,1-1V27a1,1,0,0,0,1-1V19a1,1,0,0,0-.72-.96L44,14.43V5a3.009,3.009,0,0,0-3-3H9A3.009,3.009,0,0,0,6,5V59a3.009,3.009,0,0,0,3,3H41a3.009,3.009,0,0,0,3-3V50H57a1,1,0,0,0,1-1V45A1,1,0,0,0,57,44ZM54,28H48V27h6ZM43,41H42V30h1a1,1,0,0,0,1-1V27h2v2a1,1,0,0,0,1,1h1V41H47a1,1,0,0,0-1,1v2H44V42A1,1,0,0,0,43,41ZM31,41H30V30h1a1,1,0,0,0,1-1V27h2v2a1,1,0,0,0,1,1h1V41H35a1,1,0,0,0-1,1v2H32V42A1,1,0,0,0,31,41Zm-1,2v1H24V43Zm-4-2V30h2V41ZM24,28V27h6v1ZM36,43h6v1H36Zm2-2V30h2V41ZM36,28V27h6v1ZM48,43h6v1H48Zm2-2V30h2V41Zm5-16H23V23H55Zm0-5.25V21H23V19.75l16-4.71ZM8,5A1,1,0,0,1,9,4H41a1,1,0,0,1,1,1V8H8ZM42,59a1,1,0,0,1-1,1H9a1,1,0,0,1-1-1V54H42Zm0-7H8V10H42v3.84l-2.72-.8a1.064,1.064,0,0,0-.56,0l-17,5A1,1,0,0,0,21,19v7a1,1,0,0,0,1,1v2a1,1,0,0,0,1,1h1V41H23a1,1,0,0,0-1,1v2H21a1,1,0,0,0-1,1v4a1,1,0,0,0,1,1H42Zm14-4H22V46H56Z" class="color006df0 svgShape"></path><rect width="2" height="2" x="38" y="17" fill="#592e5e" class="color006df0 svgShape"></rect><rect width="4" height="2" x="23" y="56" fill="#592e5e" class="color006df0 svgShape"></rect></svg></g></svg>