<!-- <svg xmlns="http://www.w3.org/2000/svg" x="0px" y="0px" width="40" height="40" viewBox="0 0 40 40" style=" fill:#000000;">
  <path fill="#dff0fe" d="M3.5 38.5L3.5 13.286 19.998 3.58 36.5 13.286 36.5 38.5z"></path>
  <path fill="#4788c7" d="M19.998,4.16L36,13.572V38H4V13.572L19.998,4.16 M19.998,3L3,13v26h34V13L19.998,3L19.998,3z"></path>
  <path fill="#98ccfd" d="M19.998 5.645L1.5 16.955 1.5 12.896 19.998 1.586 38.5 12.896 38.5 16.955z"></path>
  <path fill="#4788c7" d="M19.998,2.172L38,13.176v2.887L20.519,5.378l-0.522-0.319l-0.522,0.319L2,16.063v-2.887 L19.998,2.172 M19.998,1L1,12.615v5.231L19.998,6.231L39,17.846v-5.231L19.998,1L19.998,1z"></path>
  <path fill="#4788c7" d="M17.461,19.922c0-0.95,0.852-1.769,2.603-1.769c1.983,0,3.411,0.562,4.52,1.235v-3.205 c-0.825-0.459-2.071-0.728-3.741-0.807v-2.161H19.11v2.208c-1.448,0.142-2.612,0.651-3.49,1.526 c-0.879,0.875-1.319,1.933-1.319,3.175c0,4.91,8.241,5.062,8.241,7.753c0,0.958-1.2,1.698-2.538,1.698 c-2.74,0-4.923-1.16-5.382-1.532v3.289c1.385,0.72,2.881,1.084,4.488,1.092v2.505h1.733v-2.576c1.559-0.174,2.758-0.662,3.598-1.466 c0.837-0.803,1.257-1.862,1.257-3.176C25.699,22.468,17.461,22.869,17.461,19.922z"></path>
</svg> -->
<svg xmlns="http://www.w3.org/2000/svg" x="0px" y="0px" width="64" height="64" viewBox="0 0 128 128" style=" fill:#000000;">
  <path fill="#fff" d="M14 53H26V112H14zM58 53H70V112H58zM102 53H114V84H102zM84 12.5h-1.4c-4.9-4.4-11.4-7.1-18.5-7.1s-13.6 2.7-18.5 7.1H45 4V43l120-.5v-30H84z"></path>
  <path fill="#444b54" d="M56 127H4c-1.7 0-3-1.3-3-3s1.3-3 3-3h52c1.7 0 3 1.3 3 3S57.7 127 56 127zM26 115H14c-1.7 0-3-1.3-3-3V52.5c0-1.7 1.3-3 3-3h12c1.7 0 3 1.3 3 3V112C29 113.7 27.7 115 26 115zM17 109h6V55.5h-6V109zM70 105c-1.7 0-3-1.3-3-3V55.5h-6V112c0 1.7-1.3 3-3 3s-3-1.3-3-3V52.5c0-1.7 1.3-3 3-3h12c1.7 0 3 1.3 3 3V102C73 103.7 71.7 105 70 105zM124 9.5H84c-.2 0-.3 0-.5.1C78.2 5.1 71.4 2.5 64 2.5c-7.3 0-14.1 2.6-19.4 7H4c-1.7 0-3 1.3-3 3V43c0 .8.3 1.6.9 2.1C2.4 45.7 3.2 46 4 46c0 0 0 0 0 0l120-.5c1.7 0 3-1.3 3-3v-30C127 10.8 125.7 9.5 124 9.5zM121 29.5H94.3c-.6-5.2-2.5-10-5.3-14h32V29.5zM88.2 29.5H39.8c1.7-11.9 12-21 24.2-21C76.3 8.5 86.5 17.6 88.2 29.5zM39 15.5c-2.9 4-4.8 8.8-5.3 14H7v-14H39zM7 40v-4.5h114v4L7 40z"></path>
  <g>
    <path fill="#71c2ff" d="M99 101.8c9.4 0 17-7.6 17-17s-7.6-17-17-17-17 7.6-17 17S89.6 101.8 99 101.8zM126.8 123.2c-5.7-10-16.3-16.2-27.8-16.2-11.5 0-22.1 6.2-27.8 16.2-.8 1.4-.3 3.3 1.1 4.1.5.3 1 .4 1.5.4 0 0 0 0 0 0l50.4 0v0c.5 0 1-.1 1.5-.4C127.1 126.5 127.6 124.6 126.8 123.2z"></path>
  </g>
  <g>
    <path fill="#444b54" d="M114,63c-1.7,0-3-1.3-3-3v-4.5h-6V57c0,1.7-1.3,3-3,3s-3-1.3-3-3v-4.5c0-1.7,1.3-3,3-3h12c1.7,0,3,1.3,3,3V60 C117,61.7,115.7,63,114,63z"></path>
  </g>
</svg>