<?xml version="1.0" encoding="UTF-8"?>
<svg xmlns="http://www.w3.org/2000/svg" xmlns:xlink="http://www.w3.org/1999/xlink" width="128pt" height="128pt" viewBox="0 0 128 128" version="1.1">
<g id="surface3144400">
<path style=" stroke:none;fill-rule:nonzero;fill:rgb(29.803922%,68.627451%,31.372549%);fill-opacity:1;" d="M 34.667969 45.332031 L 93.332031 45.332031 L 93.332031 93.332031 L 34.667969 93.332031 Z M 34.667969 45.332031 "/>
<path style=" stroke:none;fill-rule:nonzero;fill:rgb(40%,40%,40%);fill-opacity:1;" d="M 5.332031 104 L 122.667969 104 L 122.667969 109.332031 L 5.332031 109.332031 Z M 90.667969 50.667969 L 104 50.667969 L 104 93.332031 L 90.667969 93.332031 Z M 24 50.667969 L 37.332031 50.667969 L 37.332031 93.332031 L 24 93.332031 Z M 114.667969 45.332031 L 13.332031 45.332031 L 13.332031 37.332031 L 64 13.332031 L 114.667969 37.332031 Z M 16 93.332031 L 112 93.332031 L 112 98.667969 L 16 98.667969 Z M 16 93.332031 "/>
<path style=" stroke:none;fill-rule:nonzero;fill:rgb(48.627451%,48.235294%,48.235294%);fill-opacity:1;" d="M 85.332031 45.332031 L 109.332031 45.332031 L 109.332031 50.667969 L 85.332031 50.667969 Z M 18.667969 45.332031 L 42.667969 45.332031 L 42.667969 50.667969 L 18.667969 50.667969 Z M 10.667969 98.667969 L 117.332031 98.667969 L 117.332031 104 L 10.667969 104 Z M 64 26.667969 C 61.054688 26.667969 58.667969 29.054688 58.667969 32 C 58.667969 34.945312 61.054688 37.332031 64 37.332031 C 66.945312 37.332031 69.332031 34.945312 69.332031 32 C 69.332031 29.054688 66.945312 26.667969 64 26.667969 Z M 64 26.667969 "/>
<path style=" stroke:none;fill-rule:nonzero;fill:rgb(26.27451%,62.745098%,27.843137%);fill-opacity:1;" d="M 42.667969 45.332031 L 85.332031 45.332031 L 85.332031 50.667969 L 42.667969 50.667969 Z M 42.667969 45.332031 "/>
<path style=" stroke:none;fill-rule:nonzero;fill:rgb(90.980392%,96.078431%,91.372549%);fill-opacity:1;" d="M 72.308594 73.507812 C 71.546875 72.734375 70.609375 72.042969 69.5 71.433594 C 68.390625 70.816406 66.972656 70.164062 65.25 69.472656 C 63.527344 68.777344 62.351562 68.105469 61.71875 67.441406 C 61.082031 66.777344 60.765625 65.898438 60.765625 64.800781 C 60.765625 63.621094 61.089844 62.699219 61.738281 62.027344 C 62.386719 61.355469 63.300781 61.019531 64.484375 61.019531 C 65.675781 61.019531 66.632812 61.449219 67.34375 62.308594 C 68.058594 63.164062 68.414062 64.9375 68.414062 66.667969 L 74.667969 66.667969 C 74.667969 63.859375 73.945312 61.09375 72.503906 59.332031 C 71.09375 57.601562 69.140625 56.550781 66.667969 56.171875 L 66.667969 50.667969 L 61.332031 50.667969 L 61.332031 56.367188 C 59.542969 56.800781 58.046875 57.601562 56.855469 58.792969 C 55.296875 60.351562 54.523438 62.34375 54.523438 64.785156 C 54.523438 66.199219 54.75 67.414062 55.203125 68.433594 C 55.65625 69.457031 56.289062 70.347656 57.105469 71.105469 C 57.917969 71.863281 58.894531 72.523438 60.035156 73.113281 C 61.171875 73.695312 62.527344 74.285156 64.097656 74.875 C 65.667969 75.464844 66.78125 76.109375 67.4375 76.8125 C 68.09375 77.511719 68.421875 78.449219 68.421875 79.628906 C 68.421875 80.765625 68.054688 81.671875 67.320312 82.34375 C 66.585938 83.015625 65.585938 83.347656 64.316406 83.347656 C 62.785156 83.347656 61.617188 82.890625 60.800781 81.980469 C 59.988281 81.0625 59.578125 79.046875 59.578125 77.332031 L 53.332031 77.332031 C 53.332031 80.289062 54.144531 83.351562 55.761719 85.128906 C 57.132812 86.636719 59.011719 87.585938 61.332031 88.046875 L 61.332031 93.332031 L 66.667969 93.332031 L 66.667969 88.148438 C 69.050781 87.808594 70.96875 86.957031 72.375 85.550781 C 73.902344 84.023438 74.667969 82.039062 74.667969 79.585938 C 74.667969 78.273438 74.464844 77.128906 74.0625 76.136719 C 73.660156 75.15625 73.074219 74.273438 72.308594 73.507812 Z M 72.308594 73.507812 "/>
</g>
</svg>
