<svg xmlns="http://www.w3.org/2000/svg" x="0px" y="0px" width="40" height="40" viewBox="0 0 40 40" style=" fill:#000000;">
  <path fill="#dff0fe" d="M3.5 38.5L3.5 13.286 19.998 3.58 36.5 13.286 36.5 38.5z"></path>
  <path fill="#4788c7" d="M19.998,4.16L36,13.572V38H4V13.572L19.998,4.16 M19.998,3L3,13v26h34V13L19.998,3L19.998,3z"></path>
  <path fill="#98ccfd" d="M19.998 5.645L1.5 16.955 1.5 12.896 19.998 1.586 38.5 12.896 38.5 16.955z"></path>
  <path fill="#4788c7" d="M19.998,2.172L38,13.176v2.887L20.519,5.378l-0.522-0.319l-0.522,0.319L2,16.063v-2.887 L19.998,2.172 M19.998,1L1,12.615v5.231L19.998,6.231L39,17.846v-5.231L19.998,1L19.998,1z"></path>
  <path fill="#4788c7" d="M17.461,19.922c0-0.95,0.852-1.769,2.603-1.769c1.983,0,3.411,0.562,4.52,1.235v-3.205 c-0.825-0.459-2.071-0.728-3.741-0.807v-2.161H19.11v2.208c-1.448,0.142-2.612,0.651-3.49,1.526 c-0.879,0.875-1.319,1.933-1.319,3.175c0,4.91,8.241,5.062,8.241,7.753c0,0.958-1.2,1.698-2.538,1.698 c-2.74,0-4.923-1.16-5.382-1.532v3.289c1.385,0.72,2.881,1.084,4.488,1.092v2.505h1.733v-2.576c1.559-0.174,2.758-0.662,3.598-1.466 c0.837-0.803,1.257-1.862,1.257-3.176C25.699,22.468,17.461,22.869,17.461,19.922z"></path>
</svg>