<svg xmlns="http://www.w3.org/2000/svg" viewBox="0 0 24 24"><path fill="#59285e" d="m 12.015625,2.4980469 a 0.52,0.52 0 0 0 -0.294922,0.082031 l -8.9999999,6 A 0.51,0.51 0 0 0 2.5195312,9.140625 0.5,0.5 0 0 0 3,9.5 H 21 A 0.5,0.5 0 0 0 21.480469,9.140625 0.51,0.51 0 0 0 21.279297,8.5800781 l -9,-6 a 0.52,0.52 0 0 0 -0.263672,-0.082031 z"/><path fill="#fcecdb" d="M 12,3.5996094 19.349609,8.5 H 4.6503906 Z"/><path fill="#59285e" d="M3.9785156 10.5A.50011538.50011538 0 0 0 4 11.5h.5v5H4a.5.5 0 0 0 0 1h4a.5.5 0 0 0 0-1H7.5v-5H8a.5.5 0 0 0 0-1H4a.5.5 0 0 0-.021484 0zM9.9785156 10.5A.50011538.50011538 0 0 0 10 11.5h.5v5H10a.5.5 0 0 0 0 1h4a.5.5 0 0 0 0-1h-.5v-5H14a.5.5 0 0 0 0-1h-4a.5.5 0 0 0-.021484 0zM15.978516 10.5A.50011538.50011538 0 0 0 16 11.5h.5v5H16a.5.5 0 0 0 0 1h4a.5.5 0 0 0 0-1h-.5v-5H20a.5.5 0 0 0 0-1h-4a.5.5 0 0 0-.02148 0z"/><path fill="#efa29c" d="M5.5 11.5h1v5h-1zM11.5 11.5h1v5h-1zM17.5 11.5h1v5h-1z"/><path fill="#59285e" d="m 3.984375,18.5 a 0.47,0.47 0 0 0 -0.3339844,0.150391 l -1,1 A 0.47,0.47 0 0 0 2.5,20 v 1 A 0.5,0.5 0 0 0 3,21.5 H 21 A 0.5,0.5 0 0 0 21.5,21 v -1 a 0.47,0.47 0 0 0 -0.150391,-0.349609 l -1,-1 A 0.47,0.47 0 0 0 20,18.5 H 4 a 0.47,0.47 0 0 0 -0.015625,0 z"/><path fill="#ffd45f" d="M 4.2109375,19.5 H 19.789062 L 20.5,20.210938 V 20.5 h -17 v -0.289062 z"/></svg>