<?xml version="1.0" encoding="UTF-8"?>
<svg xmlns="http://www.w3.org/2000/svg" xmlns:xlink="http://www.w3.org/1999/xlink" width="512pt" height="512pt" viewBox="0 0 512 512" version="1.1">
<g id="surface6015977">
<path style=" stroke:none;fill-rule:nonzero;fill:rgb(100%,100%,100%);fill-opacity:1;" d="M 456 444 L 456 164 C 456 142 438 124 416 124 L 96 124 C 74 124 56 142 56 164 L 56 444 L 16 444 L 16 456 C 16 478 34 496 56 496 L 456 496 C 478 496 496 478 496 456 L 496 444 Z M 456 444 "/>
<path style=" stroke:none;fill-rule:nonzero;fill:rgb(44.313725%,76.078431%,100%);fill-opacity:1;" d="M 148 324 L 180 324 L 180 396 L 148 396 Z M 148 324 "/>
<path style=" stroke:none;fill-rule:nonzero;fill:rgb(44.313725%,76.078431%,100%);fill-opacity:1;" d="M 180 408 L 148 408 C 141.199219 408 136 402.800781 136 396 L 136 324 C 136 317.199219 141.199219 312 148 312 L 180 312 C 186.800781 312 192 317.199219 192 324 L 192 396 C 192 402.800781 186.800781 408 180 408 Z M 160 384 L 168 384 L 168 336 L 160 336 Z M 240 244 L 272 244 L 272 396 L 240 396 Z M 240 244 "/>
<path style=" stroke:none;fill-rule:nonzero;fill:rgb(44.313725%,76.078431%,100%);fill-opacity:1;" d="M 272 408 L 240 408 C 233.199219 408 228 402.800781 228 396 L 228 244 C 228 237.199219 233.199219 232 240 232 L 272 232 C 278.800781 232 284 237.199219 284 244 L 284 396 C 284 402.800781 278.800781 408 272 408 Z M 252 384 L 260 384 L 260 256 L 252 256 Z M 252 384 "/>
<path style=" stroke:none;fill-rule:nonzero;fill:rgb(44.313725%,76.078431%,100%);fill-opacity:1;" d="M 332 284 L 364 284 L 364 396 L 332 396 Z M 332 284 "/>
<path style=" stroke:none;fill-rule:nonzero;fill:rgb(44.313725%,76.078431%,100%);fill-opacity:1;" d="M 364 408 L 332 408 C 325.199219 408 320 402.800781 320 396 L 320 284 C 320 277.199219 325.199219 272 332 272 L 364 272 C 370.800781 272 376 277.199219 376 284 L 376 396 C 376 402.800781 370.800781 408 364 408 Z M 344 384 L 352 384 L 352 296 L 344 296 Z M 344 384 "/>
<path style=" stroke:none;fill-rule:nonzero;fill:rgb(26.666667%,29.411765%,32.941176%);fill-opacity:1;" d="M 296 456 L 216 456 C 209.199219 456 204 450.800781 204 444 C 204 437.199219 209.199219 432 216 432 L 296 432 C 302.800781 432 308 437.199219 308 444 C 308 450.800781 302.800781 456 296 456 Z M 296 456 "/>
<path style=" stroke:none;fill-rule:nonzero;fill:rgb(26.666667%,29.411765%,32.941176%);fill-opacity:1;" d="M 456 508 L 56 508 C 27.199219 508 4 484.800781 4 456 L 4 444 C 4 437.199219 9.199219 432 16 432 L 156 432 C 162.800781 432 168 437.199219 168 444 C 168 450.800781 162.800781 456 156 456 L 28 456 C 28 471.601562 40.398438 484 56 484 L 456 484 C 471.601562 484 484 471.601562 484 456 L 356 456 C 349.199219 456 344 450.800781 344 444 C 344 437.199219 349.199219 432 356 432 L 496 432 C 502.800781 432 508 437.199219 508 444 L 508 456 C 508 484.800781 484.800781 508 456 508 Z M 456 508 "/>
<path style=" stroke:none;fill-rule:nonzero;fill:rgb(26.666667%,29.411765%,32.941176%);fill-opacity:1;" d="M 456 408 C 449.199219 408 444 402.800781 444 396 L 444 164 C 444 148.398438 431.601562 136 416 136 L 96 136 C 80.398438 136 68 148.398438 68 164 L 68 396 C 68 402.800781 62.800781 408 56 408 C 49.199219 408 44 402.800781 44 396 L 44 164 C 44 135.199219 67.199219 112 96 112 L 416 112 C 444.800781 112 468 135.199219 468 164 L 468 396 C 468 402.800781 462.800781 408 456 408 Z M 456 408 "/>
</g>
</svg>
