<?xml version="1.0" encoding="UTF-8"?>
<svg xmlns="http://www.w3.org/2000/svg" xmlns:xlink="http://www.w3.org/1999/xlink" width="512pt" height="512pt" viewBox="0 0 512 512" version="1.1">
  <g id="surface6039552">
    <path style=" stroke:none;fill-rule:nonzero;fill:rgb(26.666667%,29.411765%,32.54902%);fill-opacity:1;" d="M 502 212.398438 C 456.398438 185.601562 428 136.800781 428 84 C 428 77.199219 422.800781 72 416 72 C 409.199219 72 404 77.199219 404 84 C 404 165.601562 337.601562 232 256 232 C 174.398438 232 108 165.601562 108 84 C 108 77.199219 102.800781 72 96 72 C 89.199219 72 84 77.199219 84 84 C 84 136.800781 55.601562 185.601562 10 212 C 4.398438 215.199219 2.398438 222.800781 5.601562 228.398438 C 8.800781 234 16.398438 236 22 232.800781 C 56 213.199219 82 182.398438 96 146.800781 C 109.601562 180.800781 133.601562 209.601562 164.398438 229.199219 C 164.398438 230 164 230.800781 164 231.601562 L 164 355.601562 C 164 362.398438 169.199219 367.601562 176 367.601562 C 182.800781 367.601562 188 362.398438 188 355.601562 L 188 242 C 205.199219 249.601562 224.398438 254.398438 244 255.601562 L 244 356 C 244 362.800781 249.199219 368 256 368 C 262.800781 368 268 362.800781 268 356 L 268 255.601562 C 287.601562 254.398438 306.800781 249.601562 324 242 L 324 356 C 324 362.800781 329.199219 368 336 368 C 342.800781 368 348 362.800781 348 356 L 348 232 C 348 231.199219 348 230.398438 347.601562 229.601562 C 378.398438 210 402.398438 181.199219 416 147.199219 C 430 182.800781 456 213.601562 490 233.199219 C 495.601562 236.398438 503.199219 234.398438 506.398438 228.800781 C 509.601562 222.800781 507.601562 215.601562 502 212.398438 Z M 502 212.398438 " />
    <path style=" stroke:none;fill-rule:nonzero;fill:rgb(100%,100%,100%);fill-opacity:1;" d="M 72 84 L 120 84 L 120 404 L 72 404 Z M 72 84 " />
    <path style=" stroke:none;fill-rule:nonzero;fill:rgb(100%,100%,100%);fill-opacity:1;" d="M 72 84 L 120 84 L 120 404 L 72 404 Z M 48 404 L 144 404 L 144 444 L 48 444 Z M 368 404 L 464 404 L 464 444 L 368 444 Z M 392 84 L 440 84 L 440 404 L 392 404 Z M 392 84 " />
    <path style=" stroke:none;fill-rule:nonzero;fill:rgb(26.666667%,29.411765%,32.54902%);fill-opacity:1;" d="M 496 392 L 452 392 L 452 84 C 452 77.199219 446.800781 72 440 72 L 428 72 L 428 16 C 428 9.199219 422.800781 4 416 4 C 409.199219 4 404 9.199219 404 16 L 404 72 L 392 72 C 385.199219 72 380 77.199219 380 84 L 380 392 L 132 392 L 132 84 C 132 77.199219 126.800781 72 120 72 L 108 72 L 108 16 C 108 9.199219 102.800781 4 96 4 C 89.199219 4 84 9.199219 84 16 L 84 72 L 72 72 C 65.199219 72 60 77.199219 60 84 L 60 392 L 16 392 C 9.199219 392 4 397.199219 4 404 C 4 410.800781 9.199219 416 16 416 L 36 416 L 36 440 C 36 446.800781 41.199219 452 48 452 C 54.800781 452 60 446.800781 60 440 L 60 416 L 132 416 L 132 440 C 132 446.800781 137.199219 452 144 452 C 150.800781 452 156 446.800781 156 440 L 156 416 L 356 416 L 356 440 C 356 446.800781 361.199219 452 368 452 C 374.800781 452 380 446.800781 380 440 L 380 416 L 452 416 L 452 444 C 452 450.800781 457.199219 456 464 456 C 470.800781 456 476 450.800781 476 444 L 476 416 L 496 416 C 502.800781 416 508 410.800781 508 404 C 508 397.199219 502.800781 392 496 392 Z M 108 392 L 84 392 L 84 96 L 108 96 Z M 428 392 L 404 392 L 404 96 L 428 96 Z M 428 392 " />
    <path style=" stroke:none;fill-rule:nonzero;fill:rgb(29.411765%,74.901961%,92.156863%);fill-opacity:1;" d="M 314.800781 508 C 314.398438 508 314.398438 508 314 508 C 298.398438 508 284 502.398438 272.398438 492.800781 C 260.800781 502.398438 246.398438 507.601562 230.800781 507.601562 C 215.601562 507.601562 200.800781 502.398438 189.199219 492.800781 C 177.601562 502.398438 163.199219 507.601562 147.601562 507.601562 C 132 507.601562 117.601562 502.398438 106 492.800781 C 94.398438 502.398438 80 507.601562 64.398438 507.601562 C 44.398438 507.601562 26 498.800781 13.601562 483.199219 C 9.601562 478 10.398438 470.398438 15.601562 466.398438 C 20.800781 462.398438 28.398438 463.199219 32.398438 468.398438 C 40.398438 478 52 483.601562 64.398438 483.601562 C 76.800781 483.601562 88.800781 478 96.398438 468.398438 C 98.800781 465.601562 102 464 105.601562 464 C 109.199219 464 112.800781 465.601562 114.800781 468.398438 C 122.800781 478 134.398438 483.601562 146.800781 483.601562 C 159.199219 483.601562 171.199219 478 178.800781 468.398438 C 181.199219 465.601562 184.398438 464 188 464 C 191.601562 464 195.199219 465.601562 197.199219 468.398438 C 205.199219 478 216.800781 483.601562 229.199219 483.601562 C 241.601562 483.601562 253.601562 478 261.199219 468.398438 C 263.601562 465.601562 266.800781 464 270.398438 464 C 274 464 277.601562 465.601562 279.601562 468.398438 C 287.601562 478.398438 299.199219 484 312 484 L 312.398438 484 C 324.800781 484 336.800781 478.398438 344.800781 468.800781 L 348 468 C 350.398438 465.199219 353.601562 463.601562 357.199219 463.601562 C 360.800781 463.601562 364 465.199219 366.398438 468 C 374.398438 477.601562 386 483.199219 398.398438 483.199219 C 398.800781 483.199219 398.800781 483.199219 399.199219 483.199219 C 411.601562 483.199219 422.800781 477.601562 430.800781 468 C 434.800781 462.800781 442.398438 462 447.601562 466 C 452.800781 470 453.601562 477.601562 449.601562 482.800781 C 437.199219 498.398438 418.800781 507.199219 398.800781 507.199219 C 398.398438 507.199219 398.398438 507.199219 398 507.199219 C 382.800781 507.199219 368.800781 501.601562 357.199219 492.398438 C 345.199219 502.398438 330.398438 508 314.800781 508 Z M 488 484 C 481.371094 484 476 489.371094 476 496 C 476 502.628906 481.371094 508 488 508 C 494.628906 508 500 502.628906 500 496 C 500 489.371094 494.628906 484 488 484 Z M 488 484 " />
  </g>
</svg>
