<svg id="SvgjsSvg1027" width="288" height="288" xmlns="http://www.w3.org/2000/svg" version="1.1" xmlns:xlink="http://www.w3.org/1999/xlink" xmlns:svgjs="http://svgjs.com/svgjs">
  <defs id="SvgjsDefs1028"></defs>
  <g id="SvgjsG1029" transform="matrix(0.9167,0,0,0.9167,11.99217763530092,11.99450759162903)">
    <svg xmlns="http://www.w3.org/2000/svg" viewBox="0 0 48 48" width="288" height="288">
      <g data-name="Layer 1 copy" fill="#ffffff" class="color000 svgShape">
        <circle cx="23.836" cy="24" r="21.19" fill="#ffffff" class="colora9e3f4 svgShape"></circle>
        <circle cx="24.008" cy="24" r="9.798" fill="#ffffff" class="colorfad36b svgShape"></circle>
        <path fill="#ffffff" d="M23.836,2.81A21.107,21.107,0,0,0,9.128,8.765,21.173,21.173,0,0,1,36.853,40.7,21.174,21.174,0,0,0,23.836,2.81Z" class="colorc1ecfb svgShape"></path>
        <path fill="#ffffff" d="M24.008,14.2a9.764,9.764,0,0,0-7.172,3.137A9.792,9.792,0,0,1,29.489,32.123,9.8,9.8,0,0,0,24.008,14.2Z" class="colorfad36b svgShape"></path>
        <path fill="#ffffff" d="M23.836,45.19a21.1,21.1,0,0,0,14.707-5.955A21.173,21.173,0,0,1,10.818,7.3,21.174,21.174,0,0,0,23.836,45.19Z" class="color98cbdb svgShape"></path>
        <path fill="#ffffff" d="M23.663,33.8a9.764,9.764,0,0,0,7.172-3.137A9.792,9.792,0,0,1,18.182,15.877,9.8,9.8,0,0,0,23.663,33.8Z" class="colord0b05a svgShape"></path>
      </g>
      <g data-name="Layer 1 copy 2" fill="#ffffff" class="color000 svgShape">
        <path fill="#444b53" d="M24.873,30.357V29h.014a3,3,0,0,0,0-6H22.858a1,1,0,0,1,0-2h2.029a1,1,0,0,1,1,1,1,1,0,0,0,2,0,3,3,0,0,0-3-3h-.014V17.643a1,1,0,0,0-2,0V19h-.015a3,3,0,0,0,0,6h2.029a1,1,0,0,1,0,2H22.858a1,1,0,0,1-1-1,1,1,0,0,0-2,0,3,3,0,0,0,3,3h.015v1.356a1,1,0,0,0,2,0Z" class="color1c1c1b svgShape"></path>
        <path fill="#444b53" d="M47.872,30.541,45.9,27.021l-.006-.007a.968.968,0,0,0-.187-.217c-.025-.024-.042-.058-.069-.079a.92.92,0,0,0-.089-.044.977.977,0,0,0-.262-.127l-.01,0a1.069,1.069,0,0,0-.127-.007,1,1,0,0,0-.251-.013,1.025,1.025,0,0,0-.2.065.923.923,0,0,0-.159.052l-3.77,2.113a1,1,0,1,0,.978,1.744l1.711-.959a20.313,20.313,0,0,1-2.587,5.687A47.17,47.17,0,0,0,34.3,33.653q.192-.792.354-1.622a1,1,0,1,0-1.963-.383c-.114.586-.244,1.151-.381,1.705q-1.223-.162-2.475-.277a10.771,10.771,0,0,0,0-18.152q1.254-.116,2.476-.277c.127.511.247,1.032.354,1.57a1,1,0,0,0,1.961-.391c-.1-.5-.211-1-.328-1.479a47.106,47.106,0,0,0,6.529-1.559A20.146,20.146,0,0,1,44.214,23H37.03a1,1,0,0,0,0,2h8.208a1,1,0,0,0,1-1A22.169,22.169,0,0,0,42.05,11.015a1.02,1.02,0,0,0-.067-.1A22.273,22.273,0,0,0,2.69,17.3l-.818-1.459a1,1,0,1,0-1.744.978L2.1,20.324v0l0,.008a.965.965,0,0,0,.216.257c.021.019.044.035.067.052a.98.98,0,0,0,.281.147c.01,0,.017.012.027.015H2.7a.994.994,0,0,0,.272.04c.025,0,.05-.008.076-.01s.055-.006.082-.01a1,1,0,0,0,.3-.1.244.244,0,0,0,.024-.01h0L7.233,18.6a1,1,0,0,0-.978-1.745l-1.619.907a20.224,20.224,0,0,1,2.385-4.988,47.12,47.12,0,0,0,6.562,1.569c-.119.492-.231.993-.333,1.507a1,1,0,0,0,1.963.388c.108-.546.23-1.076.359-1.6q1.278.169,2.59.288a10.773,10.773,0,0,0,0,18.13q-1.311.118-2.589.288c-.137-.554-.268-1.119-.382-1.705a1,1,0,1,0-1.962.383q.161.831.354,1.622a47.236,47.236,0,0,0-6.528,1.558A20.154,20.154,0,0,1,3.67,25h7.153a1,1,0,0,0,0-2H2.646a1,1,0,0,0-1,1A22.167,22.167,0,0,0,5.857,37.017c.013.017.023.037.037.053a22.274,22.274,0,0,0,39.467-6.919l.767,1.369a1,1,0,0,0,1.744-.979ZM24.941,44.163V34.816a61.631,61.631,0,0,1,6.82.481C30.194,40.206,27.68,43.507,24.941,44.163Zm0-30.979V3.837c2.733.658,5.25,3.962,6.818,8.866A61.6,61.6,0,0,1,24.941,13.184Zm14.627-2.095a46.377,46.377,0,0,1-5.8,1.322A20.482,20.482,0,0,0,29.556,4.5,20.318,20.318,0,0,1,39.568,11.089ZM8.293,11.083A20.3,20.3,0,0,1,18.32,4.511a20.487,20.487,0,0,0-4.2,7.9A46.276,46.276,0,0,1,8.293,11.083ZM22.941,3.837v9.347a61.611,61.611,0,0,1-6.817-.481C17.692,7.8,20.208,4.5,22.941,3.837ZM15.21,24a8.8,8.8,0,1,1,8.8,8.8A8.807,8.807,0,0,1,15.21,24Zm7.731,10.816v9.347c-2.737-.656-5.251-3.957-6.818-8.866A61.612,61.612,0,0,1,22.941,34.816ZM8.315,36.911a46.552,46.552,0,0,1,5.805-1.323,20.471,20.471,0,0,0,4.2,7.907A20.327,20.327,0,0,1,8.315,36.911Zm21.234,6.6a20.446,20.446,0,0,0,4.215-7.919,46.319,46.319,0,0,1,5.845,1.334A20.115,20.115,0,0,1,29.549,43.508Z" class="color1c1c1b svgShape"></path>
      </g>
    </svg>
  </g>
</svg>