<?xml version="1.0" encoding="UTF-8"?>
<svg xmlns="http://www.w3.org/2000/svg" xmlns:xlink="http://www.w3.org/1999/xlink" width="250pt" height="250pt" viewBox="0 0 250 250" version="1.1">
<g id="surface5811640">
<path style=" stroke:none;fill-rule:nonzero;fill:rgb(26.666667%,29.411765%,32.54902%);fill-opacity:1;" d="M 35 45 C 21.253906 45 10 56.253906 10 70 L 10 180 C 10 193.746094 21.253906 205 35 205 L 148.183594 205 C 146.949219 201.828125 145.832031 198.496094 144.832031 195 L 35 195 C 26.65625 195 20 188.34375 20 180 L 20 105 L 230 105 L 230 139.296875 C 232.808594 140.457031 236.050781 141.609375 240 142.722656 L 240 70 C 240 56.253906 228.746094 45 215 45 Z M 35 55 L 215 55 C 223.34375 55 230 61.65625 230 70 L 230 80 L 20 80 L 20 70 C 20 61.65625 26.65625 55 35 55 Z M 45 120 L 45 130 L 125 130 L 125 120 Z M 200 139.503906 C 192.5 139.503906 187.503906 142 181.503906 145 C 175.503906 148 168.003906 151.503906 154.003906 154.503906 L 150 155.5 L 150 159.503906 C 150 224.503906 196 248.003906 197.5 249.003906 L 200 250 L 202.5 249.003906 C 204.5 248.003906 250 222.503906 250 159.503906 L 250 155.5 L 245.996094 154.503906 C 231.996094 151.503906 224.496094 148 218.496094 145 C 212.496094 142 207.5 139.503906 200 139.503906 Z M 200 149.503906 C 205.5 149.503906 208.503906 151.003906 214.003906 154.003906 C 220.003906 156.503906 227.5 160.496094 240 163.496094 C 238.5 209.996094 208.5 232.996094 200 238.496094 C 191 233.496094 161.5 211.996094 160 163.496094 C 173 160.496094 180.496094 156.503906 185.996094 154.003906 C 191.496094 151.003906 194.5 149.503906 200 149.503906 Z M 200 149.503906 "/>
</g>
</svg>
