<svg xmlns="http://www.w3.org/2000/svg" x="0px" y="0px" width="40" height="40" viewBox="0 0 172 172" style=" fill:#000000;">
  <g fill="none" fill-rule="nonzero" stroke="none" stroke-width="none" stroke-linecap="none" stroke-linejoin="none" stroke-miterlimit="10" stroke-dasharray="" stroke-dashoffset="0" font-family="none" font-weight="none" font-size="none" text-anchor="none" style="mix-blend-mode: normal">
    <path d="M0,172v-172h172v172z" fill="none" stroke="none" stroke-width="1" stroke-linecap="butt" stroke-linejoin="miter"></path>
    <g stroke="none" stroke-width="1" stroke-linecap="butt" stroke-linejoin="miter">
      <path d="M17.2,139.75c-5.9297,0 -10.75,-4.8246 -10.75,-10.75v-86c0,-5.9254 4.8203,-10.75 10.75,-10.75h137.6c5.9297,0 10.75,4.8246 10.75,10.75v86c0,5.9254 -4.8203,10.75 -10.75,10.75z" fill="#b6dcfe"></path>
      <path d="M21.5,55.9h34.4v25.8h-34.4z" fill="#dff0fe"></path>
      <path d="M77.4,47.3h73.1v21.5h-73.1z" fill="#ffffff"></path>
      <path d="M45.15,103.2h-21.5c-1.1825,0 -2.15,-0.9675 -2.15,-2.15v0c0,-1.1825 0.9675,-2.15 2.15,-2.15h21.5c1.1825,0 2.15,0.9675 2.15,2.15v0c0,1.1825 -0.9675,2.15 -2.15,2.15zM79.55,103.2h-21.5c-1.1825,0 -2.15,-0.9675 -2.15,-2.15v0c0,-1.1825 0.9675,-2.15 2.15,-2.15h21.5c1.1825,0 2.15,0.9675 2.15,2.15v0c0,1.1825 -0.9675,2.15 -2.15,2.15zM113.95,103.2h-21.5c-1.1825,0 -2.15,-0.9675 -2.15,-2.15v0c0,-1.1825 0.9675,-2.15 2.15,-2.15h21.5c1.1825,0 2.15,0.9675 2.15,2.15v0c0,1.1825 -0.9675,2.15 -2.15,2.15zM148.35,103.2h-21.5c-1.1825,0 -2.15,-0.9675 -2.15,-2.15v0c0,-1.1825 0.9675,-2.15 2.15,-2.15h21.5c1.1825,0 2.15,0.9675 2.15,2.15v0c0,1.1825 -0.9675,2.15 -2.15,2.15zM23.65,116.1h73.1c1.1825,0 2.15,0.9675 2.15,2.15v0c0,1.1825 -0.9675,2.15 -2.15,2.15h-73.1c-1.1825,0 -2.15,-0.9675 -2.15,-2.15v0c0,-1.1825 0.9675,-2.15 2.15,-2.15z" fill="#4788c7"></path>
      <path d="M163.4,111.8c-7.9335,-6.5747 -18.3395,-8.6 -30.1,-8.6c-25.6667,0 -45.0296,28.3972 -45.8423,29.6055l-3.2164,4.7945l-2.5413,4.3h16.1637c-2.0855,-2.5585 -3.2637,-4.3 -3.2637,-4.3c0,0 17.3247,-25.8 38.7,-25.8c12.1647,0 23.005,8.3506 30.1,15.5531c1.5136,1.5351 2.8595,3.0143 4.0033,4.3516c0.1892,-0.8729 0.2967,-1.7759 0.2967,-2.7047v-17.2c-1.333,-1.2728 -2.7735,1.2642 -4.3,0z" fill="#b6dcfe"></path>
      <path d="M133.3,161.25c-17.4279,0 -32.3833,-18.6792 -36.0555,-23.65c3.6722,-4.9665 18.6577,-23.65 36.0555,-23.65c17.4279,0 32.3833,18.6792 36.0555,23.65c-3.6722,4.9665 -18.6577,23.65 -36.0555,23.65z" fill="#ffffff"></path>
      <path d="M133.3,116.1c15.1833,0 28.6552,15.437 33.3594,21.5c-4.7042,6.063 -18.1761,21.5 -33.3594,21.5c-15.1833,0 -28.6552,-15.437 -33.3594,-21.5c4.7042,-6.063 18.1761,-21.5 33.3594,-21.5M133.3,111.8c-21.3753,0 -38.7,25.8 -38.7,25.8c0,0 17.3247,25.8 38.7,25.8c21.3753,0 38.7,-25.8 38.7,-25.8c0,0 -17.3247,-25.8 -38.7,-25.8z" fill="#4788c7"></path>
      <path d="M133.3,120.4c-9.4993,0 -17.2,7.7007 -17.2,17.2c0,9.4993 7.7007,17.2 17.2,17.2c9.4993,0 17.2,-7.7007 17.2,-17.2c0,-9.4993 -7.7007,-17.2 -17.2,-17.2z" fill="#98ccfd"></path>
      <path d="M133.3,131.15c-3.56224,0 -6.45,2.88776 -6.45,6.45c0,3.56224 2.88776,6.45 6.45,6.45c3.56224,0 6.45,-2.88776 6.45,-6.45c0,-3.56224 -2.88776,-6.45 -6.45,-6.45z" fill="#4788c7"></path>
      <path d="M137.6,129c-2.37482,0 -4.3,1.92518 -4.3,4.3c0,2.37482 1.92518,4.3 4.3,4.3c2.37482,0 4.3,-1.92518 4.3,-4.3c0,-2.37482 -1.92518,-4.3 -4.3,-4.3z" fill="#dff0fe"></path>
      <path d="M83.85,137.6h-66.65c-4.7429,0 -8.6,-3.8571 -8.6,-8.6v-86c0,-4.7429 3.8571,-8.6 8.6,-8.6h137.6c4.7429,0 8.6,3.8571 8.6,8.6v75.25h4.3v-75.25c0,-7.1251 -5.7749,-12.9 -12.9,-12.9h-137.6c-7.1251,0 -12.9,5.7749 -12.9,12.9v86c0,7.1251 5.7749,12.9 12.9,12.9h66.65z" fill="#4788c7"></path>
      <path d="M83.85,137.6c-1.18741,0 -2.15,0.96259 -2.15,2.15c0,1.18741 0.96259,2.15 2.15,2.15c1.18741,0 2.15,-0.96259 2.15,-2.15c0,-1.18741 -0.96259,-2.15 -2.15,-2.15zM165.55,116.1c-1.18741,0 -2.15,0.96259 -2.15,2.15c0,1.18741 0.96259,2.15 2.15,2.15c1.18741,0 2.15,-0.96259 2.15,-2.15c0,-1.18741 -0.96259,-2.15 -2.15,-2.15z" fill="#4788c7"></path>
    </g>
    <g fill="#cccccc" stroke="none" stroke-width="1" stroke-linecap="butt" stroke-linejoin="miter">
      <path d="M99.195,68.94v3.7h-10.97v30.42h-4.48v-30.42h-10.94v-3.7z"></path>
    </g>
    <path d="M62.805,113.06v-54.12h46.39v54.12z" fill="#ff0000" stroke="#50e3c2" stroke-width="3" stroke-linecap="butt" stroke-linejoin="miter" opacity="0"></path>
    <g stroke-width="2" stroke-linecap="round">
      <g id="Layer_1">
        <g fill="#98ccfd" stroke="#4788c7" stroke-linejoin="miter">
          <circle cx="31" cy="31" transform="scale(4.3,4.3)" r="8.5"></circle>
        </g>
        <path d="M133.3,98.9c18.92,0 34.4,15.48 34.4,34.4c0,18.92 -15.48,34.4 -34.4,34.4c-18.92,0 -34.4,-15.48 -34.4,-34.4c0,-18.92 15.48,-34.4 34.4,-34.4M133.3,94.6c-21.5,0 -38.7,17.2 -38.7,38.7c0,21.5 17.2,38.7 38.7,38.7c21.5,0 38.7,-17.2 38.7,-38.7c0,-21.5 -17.2,-38.7 -38.7,-38.7z" fill="#4788c7" stroke="#4788c7" stroke-linejoin="round"></path>
        <path d="M115.24,133.3l12.04,12.04l26.66,-26.66" fill="none" stroke="#ffffff" stroke-linejoin="miter"></path>
      </g>
    </g>
    <path d="M94.6,172v-77.4h77.4v77.4z" id="overlay-drag" fill="#ff0000" stroke="none" stroke-width="1" stroke-linecap="butt" stroke-linejoin="miter" opacity="0"></path>
  </g>
</svg>