<svg xmlns="http://www.w3.org/2000/svg" x="0px" y="0px" width="48" height="48" viewBox="0 0 172 172" style=" fill:#000000;">
  <g fill="none" fill-rule="nonzero" stroke="none" stroke-width="1" stroke-linecap="butt" stroke-linejoin="miter" stroke-miterlimit="10" stroke-dasharray="" stroke-dashoffset="0" font-family="none" font-weight="none" font-size="none" text-anchor="none" style="mix-blend-mode: normal">
    <path d="M0,172v-172h172v172z" fill="none"></path>
    <g fill="#2ecc71">
      <path d="M86,14.33333c-39.517,0 -71.66667,32.14967 -71.66667,71.66667c0,39.517 32.14967,71.66667 71.66667,71.66667c39.517,0 71.66667,-32.14967 71.66667,-71.66667c0,-8.06967 -1.40478,-15.80821 -3.87728,-23.05371l-11.60384,11.60384c0.7525,3.698 1.14778,7.5297 1.14778,11.44987c0,31.61217 -25.72117,57.33333 -57.33333,57.33333c-31.61217,0 -57.33333,-25.72117 -57.33333,-57.33333c0,-31.61217 25.72117,-57.33333 57.33333,-57.33333c11.70317,0 22.58877,3.53955 31.67611,9.58822l10.26009,-10.26009c-11.81067,-8.557 -26.27703,-13.66146 -41.93619,-13.66146zM152.59961,23.59961l-73.76628,73.76628l-23.59961,-23.59961l-10.13411,10.13411l33.73372,33.73372l83.90039,-83.90039z"></path>
    </g>
  </g>
</svg>