<?xml version="1.0" encoding="UTF-8"?>
<svg xmlns="http://www.w3.org/2000/svg" xmlns:xlink="http://www.w3.org/1999/xlink" width="512pt" height="512pt" viewBox="0 0 512 512" version="1.1">
  <g id="surface5844670">
    <path style=" stroke:none;fill-rule:nonzero;fill:rgb(100%,100%,100%);fill-opacity:1;" d="M 360 444 L 148 444 C 125.90625 444 108 426.09375 108 404 L 108 128 C 108 105.90625 125.90625 88 148 88 L 360 88 C 382.09375 88 400 105.90625 400 128 L 400 404 C 400 426.09375 382.09375 444 360 444 Z M 360 444 " />
    <path style=" stroke:none;fill-rule:nonzero;fill:rgb(100%,100%,100%);fill-opacity:1;" d="M 188 88 L 188 136 L 320 136 L 320 88 " />
    <path style="fill:none;stroke-width:8.0625;stroke-linecap:butt;stroke-linejoin:miter;stroke:rgb(26.666667%,29.411765%,32.54902%);stroke-opacity:1;stroke-miterlimit:10;" d="M 120.9375 149.15625 L 49.71875 149.15625 C 42.296631 149.15625 36.28125 143.140869 36.28125 135.71875 L 36.28125 43 C 36.28125 35.577881 42.296631 29.5625 49.71875 29.5625 L 120.9375 29.5625 C 128.359619 29.5625 134.375 35.577881 134.375 43 L 134.375 135.71875 C 134.375 143.140869 128.359619 149.15625 120.9375 149.15625 Z M 120.9375 149.15625 " transform="matrix(2.976744,0,0,2.976744,0,0)" />
    <path style="fill:none;stroke-width:8.0625;stroke-linecap:butt;stroke-linejoin:round;stroke:rgb(26.666667%,29.411765%,32.54902%);stroke-opacity:1;stroke-miterlimit:10;" d="M 63.15625 29.5625 L 107.5 29.5625 L 107.5 45.6875 L 63.15625 45.6875 Z M 63.15625 29.5625 " transform="matrix(2.976744,0,0,2.976744,0,0)" />
    <path style="fill:none;stroke-width:8.0625;stroke-linecap:butt;stroke-linejoin:miter;stroke:rgb(26.666667%,29.411765%,32.54902%);stroke-opacity:1;stroke-miterlimit:10;" d="M 86 10.75 C 80.804779 10.75 76.59375 14.961029 76.59375 20.15625 C 76.59375 25.351471 80.804779 29.5625 86 29.5625 C 91.195221 29.5625 95.40625 25.351471 95.40625 20.15625 C 95.40625 14.961029 91.195221 10.75 86 10.75 Z M 86 10.75 " transform="matrix(2.976744,0,0,2.976744,0,0)" />
    <path style="fill:none;stroke-width:8.0625;stroke-linecap:round;stroke-linejoin:round;stroke:rgb(29.411765%,74.901961%,92.156863%);stroke-opacity:1;stroke-miterlimit:10;" d="M 59.125 96.789368 L 75.677795 111.53125 L 112.875 68.53125 " transform="matrix(2.976744,0,0,2.976744,0,0)" />
  </g>
</svg>
