<svg xmlns="http://www.w3.org/2000/svg" x="0px" y="0px" width="64" height="64" viewBox="0 0 172 172" style=" fill:#000000;">
  <g fill="none" fill-rule="nonzero" stroke="none" stroke-width="1" stroke-linecap="butt" stroke-linejoin="miter" stroke-miterlimit="10" stroke-dasharray="" stroke-dashoffset="0" font-family="none" font-weight="none" font-size="none" text-anchor="none" style="mix-blend-mode: normal">
    <path d="M0,172v-172h172v172z" fill="none"></path>
    <g id="Layer_1">
      <path d="M135.71875,14.78125c7.39063,0 13.4375,6.04688 13.4375,13.4375v131.6875c0,3.7625 -2.95625,6.71875 -6.71875,6.71875h-106.15625c-7.39062,0 -13.4375,-6.04687 -13.4375,-13.4375v-124.96875c0,-7.39062 6.04688,-13.4375 13.4375,-13.4375z" fill="#ffffff"></path>
      <path d="M119.59375,76.59375h-45.6875c-2.28437,0 -4.03125,-1.74688 -4.03125,-4.03125c0,-2.28437 1.74688,-4.03125 4.03125,-4.03125h45.6875c2.28437,0 4.03125,1.74688 4.03125,4.03125c0,2.28437 -1.74688,4.03125 -4.03125,4.03125z" fill="#71c2ff"></path>
      <path d="M112.875,170.65625h-76.59375c-9.675,0 -17.46875,-7.79375 -17.46875,-17.46875v-124.96875c0,-9.675 7.79375,-17.46875 17.46875,-17.46875h13.4375c2.28438,0 4.03125,1.74688 4.03125,4.03125c0,2.28438 -1.74687,4.03125 -4.03125,4.03125h-13.4375c-5.24062,0 -9.40625,4.16563 -9.40625,9.40625v124.96875c0,5.24062 4.16563,9.40625 9.40625,9.40625h76.59375c2.28437,0 4.03125,1.74687 4.03125,4.03125c0,2.28438 -1.74688,4.03125 -4.03125,4.03125z" fill="#444b54"></path>
      <path d="M96.75,23.51563h-21.5c-5.24062,0 -9.40625,-4.16562 -9.40625,-9.40625v0c0,-5.24062 4.16563,-9.40625 9.40625,-9.40625h21.5c5.24063,0 9.40625,4.16563 9.40625,9.40625v0c0,5.24063 -4.16562,9.40625 -9.40625,9.40625z" fill="#ffffff"></path>
      <path d="M135.71875,10.75h-25.93438c-1.47812,-5.77812 -6.71875,-10.07812 -13.03437,-10.07812h-21.5c-7.39062,0 -13.4375,6.04688 -13.4375,13.4375c0,7.39063 6.04688,13.4375 13.4375,13.4375h21.5c5.77813,0 10.61563,-3.62813 12.63125,-8.73437h26.3375c5.24062,0 9.40625,4.16563 9.40625,9.40625v53.75c0,2.28437 1.74687,4.03125 4.03125,4.03125c2.28438,0 4.03125,-1.74688 4.03125,-4.03125v-53.75c0,-9.675 -7.79375,-17.46875 -17.46875,-17.46875zM96.75,19.48438h-21.5c-2.95625,0 -5.375,-2.41875 -5.375,-5.375c0,-2.95625 2.41875,-5.375 5.375,-5.375h21.5c2.95625,0 5.375,2.41875 5.375,5.375c0,2.95625 -2.41875,5.375 -5.375,5.375z" fill="#444b54"></path>
      <path d="M164.07188,151.70938c0,-4.97187 -2.41875,-9.54062 -6.45,-12.3625l-12.3625,-8.73437c-1.74688,-1.34375 -2.82188,-3.35938 -2.82188,-5.64375c0,-3.7625 3.09062,-6.85312 6.85313,-6.85312c2.82187,0 5.24062,1.6125 6.31562,4.16562c0.80625,2.01563 3.225,2.95625 5.24063,2.15c2.01563,-0.80625 2.95625,-3.225 2.15,-5.24063c-1.74687,-4.3 -5.375,-7.39062 -9.675,-8.6v-0.40312c0,-2.28437 -1.74688,-4.03125 -4.03125,-4.03125c-2.28438,0 -4.03125,1.74688 -4.03125,4.03125v0.5375c-6.31563,1.74687 -10.88438,7.525 -10.88438,14.37812c0,4.8375 2.28438,9.27188 6.31563,12.09375l12.49687,8.73438c1.88125,1.34375 3.09062,3.35938 3.09062,5.64375c0,3.7625 -3.09062,6.85312 -6.85312,6.85312c-2.6875,0 -5.24063,-1.6125 -6.31563,-4.16562c-0.94063,-2.01562 -3.225,-2.95625 -5.24062,-2.15c-2.01562,0.94063 -2.95625,3.225 -2.15,5.24063c1.88125,4.16562 5.375,7.25625 9.675,8.46562v0.5375c0,2.28437 1.74687,4.03125 4.03125,4.03125c2.28437,0 4.03125,-1.74688 4.03125,-4.03125v-0.5375c6.04688,-1.47813 10.61562,-7.25625 10.61562,-14.10938zM53.75,68.53125c-2.2264,0 -4.03125,1.80485 -4.03125,4.03125c0,2.2264 1.80485,4.03125 4.03125,4.03125c2.2264,0 4.03125,-1.80485 4.03125,-4.03125c0,-2.2264 -1.80485,-4.03125 -4.03125,-4.03125zM119.59375,96.75h-45.6875c-2.28437,0 -4.03125,-1.74688 -4.03125,-4.03125c0,-2.28437 1.74688,-4.03125 4.03125,-4.03125h45.6875c2.28437,0 4.03125,1.74688 4.03125,4.03125c0,2.28437 -1.74688,4.03125 -4.03125,4.03125zM53.75,88.6875c-2.2264,0 -4.03125,1.80485 -4.03125,4.03125c0,2.2264 1.80485,4.03125 4.03125,4.03125c2.2264,0 4.03125,-1.80485 4.03125,-4.03125c0,-2.2264 -1.80485,-4.03125 -4.03125,-4.03125zM119.59375,116.90625h-45.6875c-2.28437,0 -4.03125,-1.74688 -4.03125,-4.03125c0,-2.28437 1.74688,-4.03125 4.03125,-4.03125h45.6875c2.28437,0 4.03125,1.74688 4.03125,4.03125c0,2.28437 -1.74688,4.03125 -4.03125,4.03125zM53.75,108.84375c-2.2264,0 -4.03125,1.80485 -4.03125,4.03125c0,2.2264 1.80485,4.03125 4.03125,4.03125c2.2264,0 4.03125,-1.80485 4.03125,-4.03125c0,-2.2264 -1.80485,-4.03125 -4.03125,-4.03125z" fill="#71c2ff"></path>
    </g>
  </g>
</svg>