<!-- <svg xmlns="http://www.w3.org/2000/svg" x="0px" y="0px" width="40" height="40" viewBox="0 0 40 40" style=" fill:#000000;">
  <path fill="#b6dcfe" d="M4.364,37.5c-0.476,0-0.864-0.396-0.864-0.885V3.385C3.5,2.896,3.888,2.5,4.364,2.5H14.54 C14.513,2.668,14.5,2.834,14.5,3c0,1.93,1.57,3.5,3.5,3.5s3.5-1.57,3.5-3.5c0-0.166-0.013-0.332-0.04-0.5h10.176 c0.476,0,0.864,0.396,0.864,0.885v33.23c0,0.488-0.388,0.885-0.864,0.885C31.636,37.5,4.364,37.5,4.364,37.5z"></path>
  <path fill="#4788c7" d="M31.636,3C31.837,3,32,3.173,32,3.385v33.231C32,36.827,31.837,37,31.636,37H4.364 C4.163,37,4,36.827,4,36.615V3.385C4,3.173,4.163,3,4.364,3H14c0,2.206,1.794,4,4,4s4-1.794,4-4H31.636 M31.636,2h-10.82 C20.928,2.314,21,2.647,21,3c0,1.657-1.343,3-3,3s-3-1.343-3-3c0-0.353,0.072-0.686,0.184-1H4.364C3.611,2,3,2.62,3,3.385v33.231 C3,37.38,3.611,38,4.364,38h27.273C32.389,38,33,37.38,33,36.615V3.385C33,2.62,32.389,2,31.636,2L31.636,2z"></path>
  <path fill="#fff" d="M7 6H29V34H7z"></path>
  <path fill="#4788c7" d="M20.289,2c0.225,0.515,0.289,1.116,0.099,1.747c-0.247,0.819-0.937,1.479-1.769,1.679 C16.97,5.821,15.5,4.582,15.5,3c0-0.356,0.077-0.693,0.211-1H11v4c0,1.105,0.895,2,2,2h10c1.105,0,2-0.895,2-2V2H20.289z"></path>
  <path fill="#4788c7" d="M18,1c1.103,0,2,0.897,2,2s-0.897,2-2,2s-2-0.897-2-2S16.897,1,18,1 M18,0c-1.657,0-3,1.343-3,3 s1.343,3,3,3s3-1.343,3-3S19.657,0,18,0L18,0z"></path>
  <path fill="#b6dcfe" d="M13 12.5A3.5 3.5 0 1 0 13 19.5A3.5 3.5 0 1 0 13 12.5Z"></path>
  <path fill="#4788c7" d="M13,13c1.654,0,3,1.346,3,3s-1.346,3-3,3s-3-1.346-3-3S11.346,13,13,13 M13,12 c-2.209,0-4,1.791-4,4s1.791,4,4,4s4-1.791,4-4S15.209,12,13,12L13,12z"></path>
  <path fill="#98ccfd" d="M9.929 25.5H10.215V30.929000000000002H9.929z"></path>
  <path fill="#98ccfd" d="M10.714 25L9.429 25 9.429 31.429 10.714 31.429z"></path>
  <path fill="#f78f8f" d="M15.071 26.786H15.357V30.929000000000002H15.071z"></path>
  <path fill="#b6dcfe" d="M15.857 26.286L14.571 26.286 14.571 31.429 15.857 31.429z"></path>
  <path fill="#8bb7f0" d="M12.5 28.071H12.786V30.928H12.5z"></path>
  <path fill="#4e7ab5" d="M13.286 27.571L12 27.571 12 31.429 13.286 31.429z"></path>
  <path fill="#98ccfd" d="M21,38.5c-0.827,0-1.5-0.673-1.5-1.5V16c0-0.827,0.673-1.5,1.5-1.5h16c0.827,0,1.5,0.673,1.5,1.5v21 c0,0.827-0.673,1.5-1.5,1.5H21z"></path>
  <path fill="#4788c7" d="M37,15c0.551,0,1,0.449,1,1v21c0,0.551-0.449,1-1,1H21c-0.551,0-1-0.449-1-1V16c0-0.551,0.449-1,1-1 H37 M37,14H21c-1.105,0-2,0.895-2,2v21c0,1.105,0.895,2,2,2h16c1.105,0,2-0.895,2-2V16C39,14.895,38.105,14,37,14L37,14z"></path>
  <path fill="#b6dcfe" d="M20,23v-7c0-0.552,0.448-1,1-1h16c0.552,0,1,0.448,1,1v7H20z"></path>
  <path fill="#fff" d="M22.5 17.5H35.5V20.5H22.5z"></path>
  <path fill="#4788c7" d="M35,18v2H23v-2H35 M36,17H22v4h14V17L36,17z"></path>
  <path fill="#fff" d="M30 25H32V27H30z"></path>
  <path fill="#dff0fe" d="M34 25H36V27H34z"></path>
  <path fill="#fff" d="M26 25H28V27H26zM22 25H24V27H22zM30 29H32V31H30z"></path>
  <path fill="#dff0fe" d="M34 29H36V31H34z"></path>
  <g>
    <path fill="#fff" d="M26 29H28V31H26z"></path>
  </g>
  <g>
    <path fill="#fff" d="M22 29H24V31H22z"></path>
  </g>
  <g>
    <path fill="#fff" d="M30 33H32V35H30z"></path>
  </g>
  <g>
    <path fill="#4788c7" d="M34 33H36V35H34z"></path>
  </g>
  <g>
    <path fill="#fff" d="M26 33H28V35H26z"></path>
  </g>
  <g>
    <path fill="#fff" d="M22 33H24V35H22z"></path>
  </g>
  <g>
    <path fill="#4788c7" d="M13.5,15.5v-2.965c1.531,0.221,2.745,1.435,2.964,2.965H13.5z"></path>
    <path fill="#4788c7" d="M14,13.171c0.851,0.302,1.527,0.977,1.829,1.829H14V13.171 M13,12v4h4C17,13.791,15.209,12,13,12 L13,12z"></path>
  </g>
</svg> -->
<svg xmlns="http://www.w3.org/2000/svg" x="0px" y="0px" width="64" height="64" viewBox="0 0 172 172" style=" fill:#000000;">
  <g fill="none" fill-rule="nonzero" stroke="none" stroke-width="1" stroke-linecap="butt" stroke-linejoin="miter" stroke-miterlimit="10" stroke-dasharray="" stroke-dashoffset="0" font-family="none" font-weight="none" font-size="none" text-anchor="none" style="mix-blend-mode: normal">
    <path d="M0,172v-172h172v172z" fill="none"></path>
    <g id="Layer_1">
      <path d="M135.71875,14.78125c7.39063,0 13.4375,6.04688 13.4375,13.4375v131.6875c0,3.7625 -2.95625,6.71875 -6.71875,6.71875h-106.15625c-7.39062,0 -13.4375,-6.04687 -13.4375,-13.4375v-124.96875c0,-7.39062 6.04688,-13.4375 13.4375,-13.4375z" fill="#ffffff"></path>
      <path d="M119.59375,76.59375h-45.6875c-2.28437,0 -4.03125,-1.74688 -4.03125,-4.03125c0,-2.28437 1.74688,-4.03125 4.03125,-4.03125h45.6875c2.28437,0 4.03125,1.74688 4.03125,4.03125c0,2.28437 -1.74688,4.03125 -4.03125,4.03125z" fill="#71c2ff"></path>
      <path d="M112.875,170.65625h-76.59375c-9.675,0 -17.46875,-7.79375 -17.46875,-17.46875v-124.96875c0,-9.675 7.79375,-17.46875 17.46875,-17.46875h13.4375c2.28438,0 4.03125,1.74688 4.03125,4.03125c0,2.28438 -1.74687,4.03125 -4.03125,4.03125h-13.4375c-5.24062,0 -9.40625,4.16563 -9.40625,9.40625v124.96875c0,5.24062 4.16563,9.40625 9.40625,9.40625h76.59375c2.28437,0 4.03125,1.74687 4.03125,4.03125c0,2.28438 -1.74688,4.03125 -4.03125,4.03125z" fill="#444b54"></path>
      <path d="M96.75,23.51563h-21.5c-5.24062,0 -9.40625,-4.16562 -9.40625,-9.40625v0c0,-5.24062 4.16563,-9.40625 9.40625,-9.40625h21.5c5.24063,0 9.40625,4.16563 9.40625,9.40625v0c0,5.24063 -4.16562,9.40625 -9.40625,9.40625z" fill="#ffffff"></path>
      <path d="M135.71875,10.75h-25.93438c-1.47812,-5.77812 -6.71875,-10.07812 -13.03437,-10.07812h-21.5c-7.39062,0 -13.4375,6.04688 -13.4375,13.4375c0,7.39063 6.04688,13.4375 13.4375,13.4375h21.5c5.77813,0 10.61563,-3.62813 12.63125,-8.73437h26.3375c5.24062,0 9.40625,4.16563 9.40625,9.40625v53.75c0,2.28437 1.74687,4.03125 4.03125,4.03125c2.28438,0 4.03125,-1.74688 4.03125,-4.03125v-53.75c0,-9.675 -7.79375,-17.46875 -17.46875,-17.46875zM96.75,19.48438h-21.5c-2.95625,0 -5.375,-2.41875 -5.375,-5.375c0,-2.95625 2.41875,-5.375 5.375,-5.375h21.5c2.95625,0 5.375,2.41875 5.375,5.375c0,2.95625 -2.41875,5.375 -5.375,5.375z" fill="#444b54"></path>
      <path d="M164.07188,151.70938c0,-4.97187 -2.41875,-9.54062 -6.45,-12.3625l-12.3625,-8.73437c-1.74688,-1.34375 -2.82188,-3.35938 -2.82188,-5.64375c0,-3.7625 3.09062,-6.85312 6.85313,-6.85312c2.82187,0 5.24062,1.6125 6.31562,4.16562c0.80625,2.01563 3.225,2.95625 5.24063,2.15c2.01563,-0.80625 2.95625,-3.225 2.15,-5.24063c-1.74687,-4.3 -5.375,-7.39062 -9.675,-8.6v-0.40312c0,-2.28437 -1.74688,-4.03125 -4.03125,-4.03125c-2.28438,0 -4.03125,1.74688 -4.03125,4.03125v0.5375c-6.31563,1.74687 -10.88438,7.525 -10.88438,14.37812c0,4.8375 2.28438,9.27188 6.31563,12.09375l12.49687,8.73438c1.88125,1.34375 3.09062,3.35938 3.09062,5.64375c0,3.7625 -3.09062,6.85312 -6.85312,6.85312c-2.6875,0 -5.24063,-1.6125 -6.31563,-4.16562c-0.94063,-2.01562 -3.225,-2.95625 -5.24062,-2.15c-2.01562,0.94063 -2.95625,3.225 -2.15,5.24063c1.88125,4.16562 5.375,7.25625 9.675,8.46562v0.5375c0,2.28437 1.74687,4.03125 4.03125,4.03125c2.28437,0 4.03125,-1.74688 4.03125,-4.03125v-0.5375c6.04688,-1.47813 10.61562,-7.25625 10.61562,-14.10938zM53.75,68.53125c-2.2264,0 -4.03125,1.80485 -4.03125,4.03125c0,2.2264 1.80485,4.03125 4.03125,4.03125c2.2264,0 4.03125,-1.80485 4.03125,-4.03125c0,-2.2264 -1.80485,-4.03125 -4.03125,-4.03125zM119.59375,96.75h-45.6875c-2.28437,0 -4.03125,-1.74688 -4.03125,-4.03125c0,-2.28437 1.74688,-4.03125 4.03125,-4.03125h45.6875c2.28437,0 4.03125,1.74688 4.03125,4.03125c0,2.28437 -1.74688,4.03125 -4.03125,4.03125zM53.75,88.6875c-2.2264,0 -4.03125,1.80485 -4.03125,4.03125c0,2.2264 1.80485,4.03125 4.03125,4.03125c2.2264,0 4.03125,-1.80485 4.03125,-4.03125c0,-2.2264 -1.80485,-4.03125 -4.03125,-4.03125zM119.59375,116.90625h-45.6875c-2.28437,0 -4.03125,-1.74688 -4.03125,-4.03125c0,-2.28437 1.74688,-4.03125 4.03125,-4.03125h45.6875c2.28437,0 4.03125,1.74688 4.03125,4.03125c0,2.28437 -1.74688,4.03125 -4.03125,4.03125zM53.75,108.84375c-2.2264,0 -4.03125,1.80485 -4.03125,4.03125c0,2.2264 1.80485,4.03125 4.03125,4.03125c2.2264,0 4.03125,-1.80485 4.03125,-4.03125c0,-2.2264 -1.80485,-4.03125 -4.03125,-4.03125z" fill="#71c2ff"></path>
    </g>
  </g>
</svg>