<svg id="SvgjsSvg1027" width="288" height="288" xmlns="http://www.w3.org/2000/svg" version="1.1" xmlns:xlink="http://www.w3.org/1999/xlink" xmlns:svgjs="http://svgjs.com/svgjs"><defs id="SvgjsDefs1028"></defs><g id="SvgjsG1029" transform="matrix(0.9167,0,0,0.9167,11.995218430328379,11.995200000000011)"><svg xmlns="http://www.w3.org/2000/svg" viewBox="0 0 25 25" width="288" height="288"><path d="M21,14.36V5.5A1.5,1.5,0,0,0,19.5,4H3.5A1.5,1.5,0,0,0,2,5.5v10A1.5,1.5,0,0,0,3.5,17H16a2.74,2.74,0,0,0,0,.5,3.5,3.5,0,0,0,7,0A3.44,3.44,0,0,0,21,14.36ZM3.5,16a.5.5,0,0,1-.5-.5V8H20v6a2.74,2.74,0,0,0-.5,0,3.47,3.47,0,0,0-3.15,2Zm17.41,1-1.32,1.83a.52.52,0,0,1-.41.21h0a.47.47,0,0,1-.4-.22l-.68-1a.5.5,0,1,1,.82-.56l.28.41.9-1.25a.5.5,0,1,1,.82.58ZM8,12.5a.5.5,0,0,1-.5.5h-3a.5.5,0,0,1,0-1h3A.5.5,0,0,1,8,12.5Z" data-name="Verified Card" fill="#4a619c" class="color000 svgShape"></path></svg></g></svg>