<?xml version="1.0" encoding="UTF-8"?>
<svg xmlns="http://www.w3.org/2000/svg" xmlns:xlink="http://www.w3.org/1999/xlink" width="250pt" height="250pt" viewBox="0 0 250 250" version="1.1">
  <g id="surface5810351">
    <path style=" stroke:none;fill-rule:nonzero;fill:rgb(26.666667%,29.411765%,32.54902%);fill-opacity:1;" d="M 105 0 C 76.777344 0 51.152344 5.058594 32.1875 13.59375 C 22.714844 17.851562 14.902344 23.007812 9.21875 29.0625 C 3.808594 34.824219 0.332031 41.621094 0 48.90625 C -0.0195312 49.160156 -0.0195312 49.433594 0 49.6875 C 0 49.785156 0 49.902344 0 50 L 0 99.0625 C -0.0390625 99.375 -0.0390625 99.6875 0 100 L 0 149.0625 C -0.0390625 149.375 -0.0390625 149.6875 0 150 L 0 195 C 0 209.003906 11.113281 220.566406 27.1875 228.90625 C 43.261719 237.246094 65.078125 242.871094 89.6875 244.53125 C 92.441406 244.707031 94.824219 242.597656 95 239.84375 C 95.175781 237.089844 93.066406 234.707031 90.3125 234.53125 C 66.816406 232.949219 46.113281 227.460938 31.71875 220 C 17.324219 212.539062 10 203.554688 10 195 L 10 171.71875 C 15.605469 177.441406 23.105469 182.324219 32.1875 186.40625 C 51.152344 194.941406 76.777344 200 105 200 C 106.796875 200.019531 108.476562 199.082031 109.394531 197.519531 C 110.292969 195.957031 110.292969 194.042969 109.394531 192.480469 C 108.476562 190.917969 106.796875 189.980469 105 190 C 77.988281 190 53.632812 184.941406 36.40625 177.1875 C 27.792969 173.320312 20.996094 168.789062 16.5625 164.0625 C 12.128906 159.335938 10 154.707031 10 150 C 10.039062 149.6875 10.039062 149.375 10 149.0625 L 10 121.71875 C 15.605469 127.441406 23.105469 132.324219 32.1875 136.40625 C 51.152344 144.941406 76.777344 150 105 150 C 119.414062 150 133.125 148.691406 145.625 146.25 C 148.339844 145.722656 150.136719 143.105469 149.609375 140.390625 C 149.082031 137.675781 146.464844 135.878906 143.75 136.40625 C 131.914062 138.710938 118.808594 140 105 140 C 77.988281 140 53.632812 134.941406 36.40625 127.1875 C 27.792969 123.320312 20.996094 118.789062 16.5625 114.0625 C 12.128906 109.335938 10 104.707031 10 100 C 10.039062 99.6875 10.039062 99.375 10 99.0625 L 10 71.71875 C 15.605469 77.441406 23.105469 82.324219 32.1875 86.40625 C 51.152344 94.941406 76.777344 100 105 100 C 133.222656 100 158.847656 94.941406 177.8125 86.40625 C 186.894531 82.324219 194.394531 77.441406 200 71.71875 L 200 95 C 199.980469 96.796875 200.917969 98.476562 202.480469 99.394531 C 204.042969 100.292969 205.957031 100.292969 207.519531 99.394531 C 209.082031 98.476562 210.019531 96.796875 210 95 L 210 50 C 210 49.84375 210 49.6875 210 49.53125 C 210 49.375 210 49.21875 210 49.0625 C 210 49.003906 210 48.964844 210 48.90625 C 209.960938 48.808594 209.902344 48.691406 209.84375 48.59375 C 209.433594 41.425781 206.113281 34.726562 200.78125 29.0625 C 195.097656 23.007812 187.285156 17.851562 177.8125 13.59375 C 158.847656 5.058594 133.222656 0 105 0 Z M 105 10 C 132.011719 10 156.367188 15.058594 173.59375 22.8125 C 182.207031 26.679688 189.003906 31.210938 193.4375 35.9375 C 197.871094 40.664062 200 45.292969 200 50 C 200 54.707031 197.871094 59.335938 193.4375 64.0625 C 189.003906 68.789062 182.207031 73.320312 173.59375 77.1875 C 156.367188 84.941406 132.011719 90 105 90 C 77.988281 90 53.632812 84.941406 36.40625 77.1875 C 27.792969 73.320312 20.996094 68.789062 16.5625 64.0625 C 12.128906 59.335938 10 54.707031 10 50 C 10 49.84375 10 49.6875 10 49.53125 C 10.136719 44.980469 12.265625 40.507812 16.5625 35.9375 C 20.996094 31.210938 27.792969 26.679688 36.40625 22.8125 C 53.632812 15.058594 77.988281 10 105 10 Z M 205 110 C 180.214844 110 160 130.214844 160 155 C 160 158.808594 161.289062 162.246094 162.1875 165.78125 C 162.128906 165.839844 162.089844 165.878906 162.03125 165.9375 L 111.40625 216.5625 C 110.507812 217.480469 110.019531 218.710938 110 220 L 110 245 C 110 247.753906 112.246094 250 115 250 L 140 250 C 141.328125 250.039062 142.636719 249.53125 143.59375 248.59375 L 147.1875 245 L 160 245 C 162.753906 245 165 242.753906 165 240 L 165 230 L 175 230 C 177.753906 230 180 227.753906 180 225 L 180 215 L 190 215 C 192.753906 215 195 212.753906 195 210 L 195 197.96875 C 198.300781 198.75 201.464844 200 205 200 C 229.785156 200 250 179.785156 250 155 C 250 130.214844 229.785156 110 205 110 Z M 205 120 C 224.375 120 240 135.605469 240 155 C 240 174.394531 224.375 190 205 190 C 185.625 190 170 174.394531 170 155 C 170 135.605469 185.625 120 205 120 Z M 220 135 C 214.472656 135 210 139.472656 210 145 C 210 150.527344 214.472656 155 220 155 C 225.527344 155 230 150.527344 230 145 C 230 139.472656 225.527344 135 220 135 Z M 165.9375 176.09375 C 167.34375 178.671875 169.082031 181.035156 170.9375 183.28125 L 136.09375 218.28125 C 134.609375 219.492188 133.925781 221.425781 134.355469 223.300781 C 134.785156 225.15625 136.25 226.621094 138.105469 227.050781 C 139.980469 227.480469 141.914062 226.796875 143.125 225.3125 L 178.28125 190.3125 C 180.429688 191.953125 182.578125 193.457031 185 194.6875 L 185 205 L 175 205 C 172.246094 205 170 207.246094 170 210 L 170 220 L 160 220 C 157.246094 220 155 222.246094 155 225 L 155 235 L 145 235 C 143.671875 234.960938 142.363281 235.46875 141.40625 236.40625 L 137.8125 240 L 120 240 L 120 222.1875 Z M 165.9375 176.09375 " />
  </g>
</svg>
