<svg xmlns="http://www.w3.org/2000/svg" id="Layer_1" enable-background="new 0 0 64 64" viewBox="0 0 64 64"><path fill="#2b2f64" d="M22.62,6.77C22.61,6.77,22.61,6.77,22.62,6.77l-6.08-6.03c-0.61-0.6-1.5-0.78-2.3-0.46
		c-0.79,0.33-1.29,1.1-1.29,1.95v1.04c-2.08,0.57-7.78,2.57-10.9,7.92c-2.5,4.29-2.72,9.65-0.65,15.93c0.14,0.41,0.5,0.67,0.92,0.67
		c0.07,0,0.14-0.01,0.2-0.02c0.48-0.11,0.81-0.55,0.76-1.05c-0.05-0.48-1.02-11.21,9.67-13.11v0.69c0,0.85,0.5,1.61,1.29,1.94
		c0.27,0.11,0.54,0.16,0.81,0.16c0.54,0,1.08-0.21,1.48-0.61l6.08-6.04c0.4-0.4,0.62-0.93,0.62-1.49
		C23.24,7.7,23.02,7.17,22.62,6.77z M12.96,11.67c-6.98,1.11-9.81,5.51-10.93,9.31c-0.32-3.36,0.24-6.3,1.7-8.79
		c2.51-4.31,7.09-6.2,9.23-6.87V11.67z M21.26,8.38l-6.08,6.04c-0.02,0.02-0.08,0.08-0.18,0.03c-0.1-0.04-0.1-0.12-0.1-0.15V2.23
		c0-0.03,0-0.12,0.1-0.16c0.03-0.01,0.05-0.02,0.08-0.02c0.06,0,0.09,0.04,0.11,0.06l6.08,6.03c0.04,0.04,0.05,0.09,0.05,0.12
		C21.3,8.29,21.29,8.34,21.26,8.38z"/><path fill="#54bf9f" d="M12.96 5.31v6.36c-6.98 1.11-9.81 5.51-10.93 9.31-.32-3.36.24-6.3 1.7-8.79C6.24 7.88 10.81 5.99 12.96 5.31zM21.3 8.26c0 .03-.01.08-.05.12l-6.08 6.04c-.02.02-.08.08-.18.03-.1-.04-.1-.12-.1-.15V2.23c0-.03 0-.12.1-.16.03-.01.05-.02.08-.02.06 0 .09.04.11.06l6.08 6.03C21.29 8.19 21.3 8.24 21.3 8.26z"/><path fill="#2b2f64" d="M62.6,36.87c-0.16-0.47-0.64-0.75-1.12-0.64c-0.48,0.1-0.81,0.55-0.77,1.05c0.05,0.47,1.03,11.2-9.66,13.1
		V49.7c0-0.85-0.51-1.62-1.3-1.95c-0.79-0.32-1.69-0.15-2.29,0.46l-6.08,6.03c-0.4,0.4-0.62,0.93-0.62,1.49s0.22,1.1,0.62,1.49
		l6.08,6.04c0.4,0.4,0.93,0.61,1.47,0.61c0.28,0,0.55-0.06,0.81-0.16c0.79-0.33,1.3-1.09,1.3-1.94v-1.05
		c2.08-0.57,7.77-2.57,10.9-7.92C64.44,48.51,64.67,43.16,62.6,36.87z M49.11,61.77c0,0.03,0,0.11-0.11,0.15
		c-0.11,0.05-0.16-0.01-0.17-0.03l-6.08-6.04c-0.04-0.04-0.05-0.09-0.05-0.12c0-0.03,0.01-0.08,0.05-0.12l6.08-6.03
		c0.02-0.03,0.07-0.08,0.17-0.04c0.11,0.04,0.11,0.13,0.11,0.16V61.77z M60.28,51.81c-2.51,4.31-7.1,6.21-9.23,6.88v-6.36
		c6.98-1.11,9.8-5.52,10.92-9.31C62.29,46.38,61.73,49.32,60.28,51.81z"/><path fill="#f26e62" d="M60.28 51.81c-2.51 4.31-7.1 6.21-9.23 6.88v-6.36c6.98-1.11 9.8-5.52 10.92-9.31C62.29 46.38 61.73 49.32 60.28 51.81zM49.11 49.7v12.07c0 .03 0 .11-.11.15-.11.05-.16-.01-.17-.03l-6.08-6.04c-.04-.04-.05-.09-.05-.12 0-.03.01-.08.05-.12l6.08-6.03c.02-.03.07-.08.17-.04C49.11 49.58 49.11 49.67 49.11 49.7z"/><path fill="#2b2f64" d="M42.6,0.6c-11.48,0-20.83,9.35-20.83,20.82c0,0.16,0.02,0.33,0.02,0.48c-0.16,0-0.32-0.02-0.48-0.02
		c-11.48,0-20.83,9.34-20.83,20.83c0,11.48,9.35,20.82,20.83,20.82s20.83-9.34,20.83-20.82c0-0.16-0.03-0.32-0.03-0.48
		c0.16,0,0.32,0.02,0.48,0.02c11.48,0,20.82-9.35,20.82-20.84C63.41,9.94,54.08,0.6,42.6,0.6z M21.31,61.58
		c-10.41,0-18.89-8.46-18.89-18.88s8.47-18.89,18.89-18.89c10.41,0,18.89,8.47,18.89,18.89S31.73,61.58,21.31,61.58z M28.7,23.26
		c-0.08-0.6-0.14-1.21-0.14-1.84c0-7.73,6.29-14.01,14.03-14.01c7.73,0,14.02,6.28,14.02,14.01c0,7.74-6.29,14.03-14.02,14.03
		c-0.62,0-1.24-0.05-1.84-0.13C38.64,29.77,34.24,25.37,28.7,23.26z M42.6,40.31c-0.2,0-0.41-0.02-0.61-0.03
		c-0.12-1.01-0.32-1.99-0.57-2.95c0.39,0.03,0.79,0.05,1.18,0.05c8.8,0,15.96-7.16,15.96-15.97c0-8.79-7.16-15.95-15.96-15.95
		c-8.8,0-15.97,7.16-15.97,15.95c0,0.41,0.02,0.8,0.05,1.19c-0.95-0.25-1.93-0.46-2.94-0.57c-0.01-0.2-0.03-0.41-0.03-0.62
		c0-10.4,8.47-18.88,18.89-18.88c10.41,0,18.88,8.47,18.88,18.88C61.48,31.84,53.01,40.31,42.6,40.31z"/><path fill="#4fbee6" d="M42.6,7.4c-3.87,0-7.38,1.57-9.91,4.11c-2.54,2.52-4.12,6.03-4.12,9.9c0,0.24,0.01,0.48,0.03,0.73
		c0.01,0.22,0.03,0.45,0.05,0.66c0.02,0.16,0.04,0.31,0.06,0.46c0.8,0.31,1.59,0.66,2.34,1.08c3.67,1.94,6.7,4.96,8.64,8.65
		c0.42,0.76,0.77,1.53,1.08,2.34c0.3,0.04,0.61,0.07,0.91,0.09c0.31,0.03,0.62,0.04,0.93,0.04c7.73,0,14.02-6.29,14.02-14.02
		C56.62,13.68,50.33,7.4,42.6,7.4z M37.62,25.73v-1.86h4.04v-1.26h-4.04v-1.86h3.02l-4.1-6.12h2.18l3.88,5.69l3.79-5.64l2.27-0.04
		l-4.1,6.11h3.01v1.86h-4.03v1.26h4.03v1.86h-4.03v2.46h-1.86v-2.46H37.62z"/><path fill="#d7d6d6" d="M61.48,21.41c0,10.42-8.46,18.9-18.88,18.9c-0.2,0-0.41-0.02-0.61-0.03c-0.12-1.01-0.32-1.99-0.57-2.95
		c0.39,0.03,0.79,0.05,1.18,0.05c8.8,0,15.96-7.16,15.96-15.97c0-8.79-7.16-15.95-15.96-15.95c-8.8,0-15.97,7.16-15.97,15.95
		c0,0.41,0.02,0.8,0.05,1.19c-0.95-0.25-1.93-0.46-2.94-0.57c-0.01-0.2-0.03-0.41-0.03-0.62c0-10.4,8.47-18.88,18.89-18.88
		C53.01,2.53,61.48,11.01,61.48,21.41z"/><path fill="#ededee" d="M21.31,23.82c-10.41,0-18.89,8.47-18.89,18.89s8.47,18.88,18.89,18.88c10.41,0,18.89-8.46,18.89-18.88
		S31.73,23.82,21.31,23.82z M21.31,58.67c-8.8,0-15.96-7.17-15.96-15.96c0-8.8,7.16-15.96,15.96-15.96
		c8.79,0,15.96,7.16,15.96,15.96C37.27,51.5,30.11,58.67,21.31,58.67z"/><path fill="#2b2f64" d="M21.31,26.75c-8.8,0-15.96,7.16-15.96,15.96c0,8.79,7.16,15.96,15.96,15.96c8.79,0,15.96-7.17,15.96-15.96
		C37.27,33.9,30.11,26.75,21.31,26.75z M21.31,56.73c-7.74,0-14.02-6.29-14.02-14.02c0-7.74,6.28-14.02,14.02-14.02
		c7.73,0,14.02,6.28,14.02,14.02C35.33,50.43,29.04,56.73,21.31,56.73z"/><path fill="#ffdc7d" d="M21.31,28.69c-7.74,0-14.02,6.28-14.02,14.02c0,7.73,6.28,14.02,14.02,14.02c7.73,0,14.02-6.29,14.02-14.02
		C35.33,34.97,29.04,28.69,21.31,28.69z M25.58,47.04c-0.21,0.48-0.52,0.89-0.91,1.24c-0.39,0.35-0.86,0.63-1.42,0.84
		c-0.56,0.21-1.19,0.35-1.87,0.41l-0.16,0.01l-0.24,2.51l-0.08,0.11c-0.06,0.02-0.14,0.04-0.24,0.06c-0.11,0.02-0.25,0.02-0.43,0.02
		c-0.22,0-0.4-0.01-0.53-0.03c-0.16-0.02-0.23-0.05-0.28-0.07c-0.08-0.1-0.08-0.13-0.07-0.17l0.25-2.43l-0.18-0.03
		c-0.31-0.04-0.6-0.1-0.87-0.16c-0.27-0.07-0.51-0.15-0.74-0.22c-0.22-0.08-0.41-0.16-0.56-0.24c-0.16-0.09-0.26-0.16-0.33-0.22
		c-0.06-0.07-0.11-0.16-0.14-0.28c-0.03-0.16-0.05-0.39-0.05-0.69c0-0.24,0.01-0.45,0.02-0.6c0.02-0.17,0.05-0.27,0.07-0.32
		c0.03-0.07,0.06-0.09,0.06-0.09c0.03-0.01,0.06-0.01,0.09-0.01c0.08,0,0.16,0.03,0.32,0.13c0.19,0.12,0.43,0.23,0.73,0.37
		c0.29,0.14,0.65,0.26,1.07,0.38c0.42,0.12,0.92,0.17,1.48,0.17c0.9,0,1.58-0.17,2.04-0.52c0.47-0.35,0.7-0.83,0.7-1.43
		c0-0.39-0.11-0.73-0.31-0.99c-0.19-0.24-0.46-0.46-0.78-0.64c-0.31-0.17-0.66-0.34-1.05-0.48c-0.38-0.14-0.77-0.28-1.15-0.44
		c-0.39-0.16-0.78-0.33-1.13-0.52c-0.36-0.19-0.69-0.45-0.98-0.73c-0.28-0.28-0.5-0.63-0.68-1.04c-0.16-0.4-0.25-0.89-0.25-1.47
		c0-0.52,0.09-1,0.26-1.43c0.17-0.43,0.43-0.8,0.75-1.12c0.33-0.31,0.74-0.57,1.21-0.78c0.48-0.19,1.04-0.34,1.65-0.41l0.16-0.02
		l0.24-2.37l0.08-0.1c0.04-0.02,0.11-0.04,0.22-0.06c0.12-0.01,0.26-0.02,0.44-0.02c0.21,0,0.4,0.01,0.54,0.03
		c0.16,0.03,0.24,0.06,0.28,0.08c0.08,0.1,0.09,0.15,0.09,0.2l-0.24,2.24l0.18,0.03c0.2,0.03,0.42,0.07,0.63,0.12
		c0.22,0.05,0.43,0.12,0.62,0.17c0.18,0.07,0.36,0.15,0.51,0.21c0.19,0.09,0.26,0.15,0.28,0.17c0.05,0.05,0.09,0.1,0.12,0.15
		c0.02,0.04,0.04,0.1,0.06,0.17c0.01,0.08,0.03,0.18,0.03,0.3c0.01,0.13,0.01,0.27,0.01,0.44c0,0.22,0,0.4-0.01,0.54
		c-0.01,0.16-0.04,0.24-0.05,0.28c-0.04,0.03-0.07,0.04-0.11,0.04c-0.07,0-0.15-0.03-0.27-0.1c-0.18-0.1-0.42-0.19-0.7-0.31
		c-0.27-0.12-0.58-0.21-0.94-0.32c-0.36-0.1-0.77-0.15-1.2-0.15c-0.39,0-0.74,0.04-1.03,0.12c-0.29,0.08-0.54,0.19-0.73,0.34
		c-0.19,0.16-0.34,0.34-0.44,0.55c-0.09,0.2-0.14,0.44-0.14,0.68c0,0.39,0.11,0.72,0.32,0.99c0.19,0.25,0.47,0.48,0.79,0.66
		c0.31,0.16,0.67,0.33,1.07,0.47c0.38,0.15,0.78,0.29,1.17,0.45c0.39,0.15,0.79,0.33,1.15,0.52c0.36,0.18,0.69,0.43,0.98,0.71
		c0.28,0.28,0.51,0.62,0.69,1.02c0.16,0.4,0.25,0.88,0.25,1.44C25.89,46.01,25.78,46.56,25.58,47.04z"/><path fill="#ebc25d" d="M21.31,28.68c-7.74,0-14.02,6.28-14.02,14.02c0,7.73,6.28,14.02,14.02,14.02c7.73,0,14.02-6.29,14.02-14.02
		C35.34,34.96,29.04,28.68,21.31,28.68z M21.31,54.62c-6.57,0-11.92-5.34-11.92-11.92c0-6.57,5.34-11.92,11.92-11.92
		c6.56,0,11.92,5.34,11.92,11.92C33.23,49.28,27.88,54.62,21.31,54.62z"/><path fill="#38a9da" d="M42.6,7.4c-3.87,0-7.38,1.57-9.91,4.11c-2.54,2.54-4.11,6.04-4.11,9.91c0,0.24,0.01,0.48,0.02,0.72
		c0.01,0.22,0.03,0.45,0.05,0.66c0.02,0.16,0.04,0.31,0.06,0.46c0.8,0.31,1.59,0.66,2.34,1.08c-0.23-0.93-0.36-1.91-0.36-2.91
		c0-6.57,5.34-11.92,11.92-11.92c6.56,0,11.92,5.34,11.92,11.92c0,6.57-5.35,11.92-11.92,11.92c-1.01,0-1.99-0.13-2.92-0.36
		c0.42,0.76,0.77,1.53,1.08,2.34c0.3,0.04,0.61,0.07,0.91,0.09c0.31,0.03,0.62,0.04,0.93,0.04c7.73,0,14.02-6.29,14.02-14.02
		C56.62,13.68,50.33,7.4,42.6,7.4z"/><path fill="#2b2f64" d="M25.89,45.41c0,0.6-0.11,1.14-0.31,1.63c-0.21,0.48-0.52,0.89-0.91,1.24c-0.39,0.35-0.86,0.63-1.42,0.84
		c-0.56,0.21-1.19,0.35-1.87,0.41l-0.16,0.01l-0.24,2.51l-0.08,0.11c-0.06,0.02-0.14,0.04-0.24,0.06c-0.11,0.02-0.25,0.02-0.43,0.02
		c-0.22,0-0.4-0.01-0.53-0.03c-0.16-0.02-0.23-0.05-0.28-0.07c-0.08-0.1-0.08-0.13-0.07-0.17l0.25-2.43l-0.18-0.03
		c-0.31-0.04-0.6-0.1-0.87-0.16c-0.27-0.07-0.51-0.15-0.74-0.22c-0.22-0.08-0.41-0.16-0.56-0.24c-0.16-0.09-0.26-0.16-0.33-0.22
		c-0.06-0.07-0.11-0.16-0.14-0.28c-0.03-0.16-0.05-0.39-0.05-0.69c0-0.24,0.01-0.45,0.02-0.6c0.02-0.17,0.05-0.27,0.07-0.32
		c0.03-0.07,0.06-0.09,0.06-0.09c0.03-0.01,0.06-0.01,0.09-0.01c0.08,0,0.16,0.03,0.32,0.13c0.19,0.12,0.43,0.23,0.73,0.37
		c0.29,0.14,0.65,0.26,1.07,0.38c0.42,0.12,0.92,0.17,1.48,0.17c0.9,0,1.58-0.17,2.04-0.52c0.47-0.35,0.7-0.83,0.7-1.43
		c0-0.39-0.11-0.73-0.31-0.99c-0.19-0.24-0.46-0.46-0.78-0.64c-0.31-0.17-0.66-0.34-1.05-0.48c-0.38-0.14-0.77-0.28-1.15-0.44
		c-0.39-0.16-0.78-0.33-1.13-0.52c-0.36-0.19-0.69-0.45-0.98-0.73c-0.28-0.28-0.5-0.63-0.68-1.04c-0.16-0.4-0.25-0.89-0.25-1.47
		c0-0.52,0.09-1,0.26-1.43c0.17-0.43,0.43-0.8,0.75-1.12c0.33-0.31,0.74-0.57,1.21-0.78c0.48-0.19,1.04-0.34,1.65-0.41l0.16-0.02
		l0.24-2.37l0.08-0.1c0.04-0.02,0.11-0.04,0.22-0.06c0.12-0.01,0.26-0.02,0.44-0.02c0.21,0,0.4,0.01,0.54,0.03
		c0.16,0.03,0.24,0.06,0.28,0.08c0.08,0.1,0.09,0.15,0.09,0.2l-0.24,2.24l0.18,0.03c0.2,0.03,0.42,0.07,0.63,0.12
		c0.22,0.05,0.43,0.12,0.62,0.17c0.18,0.07,0.36,0.15,0.51,0.21c0.19,0.09,0.26,0.15,0.28,0.17c0.05,0.05,0.09,0.1,0.12,0.15
		c0.02,0.04,0.04,0.1,0.06,0.17c0.01,0.08,0.03,0.18,0.03,0.3c0.01,0.13,0.01,0.27,0.01,0.44c0,0.22,0,0.4-0.01,0.54
		c-0.01,0.16-0.04,0.24-0.05,0.28c-0.04,0.03-0.07,0.04-0.11,0.04c-0.07,0-0.15-0.03-0.27-0.1c-0.18-0.1-0.42-0.19-0.7-0.31
		c-0.27-0.12-0.58-0.21-0.94-0.32c-0.36-0.1-0.77-0.15-1.2-0.15c-0.39,0-0.74,0.04-1.03,0.12c-0.29,0.08-0.54,0.19-0.73,0.34
		c-0.19,0.16-0.34,0.34-0.44,0.55c-0.09,0.2-0.14,0.44-0.14,0.68c0,0.39,0.11,0.72,0.32,0.99c0.19,0.25,0.47,0.48,0.79,0.66
		c0.31,0.16,0.67,0.33,1.07,0.47c0.38,0.15,0.78,0.29,1.17,0.45c0.39,0.15,0.79,0.33,1.15,0.52c0.36,0.18,0.69,0.43,0.98,0.71
		c0.28,0.28,0.51,0.62,0.69,1.02C25.8,44.36,25.89,44.85,25.89,45.41z"/><polygon fill="#2b2f64" points="44.56 20.75 47.56 20.75 47.56 22.62 43.53 22.62 43.53 23.88 47.56 23.88 47.56 25.74 43.53 25.74 43.53 28.2 41.67 28.2 41.67 25.74 37.62 25.74 37.62 23.88 41.67 23.88 41.67 22.62 37.62 22.62 37.62 20.75 40.64 20.75 36.54 14.64 38.72 14.64 42.6 20.33 46.39 14.68 48.66 14.64"/></svg>