<svg xmlns="http://www.w3.org/2000/svg" x="0px" y="0px" width="64" height="64" viewBox="0 0 128 128" style=" fill:#000000;">
  <path fill="#fff" d="M64 14A50 50 0 1 0 64 114A50 50 0 1 0 64 14Z"></path>
  <path fill="#9eb9d3" d="M67.8,61.9l-6.2-1.5c-1.9-0.5-3.1-2.1-3.1-4c0-2.3,1.9-4.2,4.2-4.2h3c2.1,0,3.8,1.7,3.8,3.8c0,1.7,1.3,3,3,3s3-1.3,3-3c0-5-3.7-9.1-8.5-9.7v-1.3c0-1.7-1.3-3-3-3s-3,1.3-3,3v1.4c-4.8,0.8-8.5,5-8.5,10c0,4.7,3.2,8.7,7.7,9.9l6.2,1.5c1.9,0.5,3.1,2.1,3.1,4c0,2.3-1.9,4.2-4.2,4.2l-3,0c-2.1,0-3.8-1.7-3.8-3.8c0-1.7-1.3-3-3-3s-3,1.3-3,3c0,5,3.7,9.1,8.5,9.7v1.3c0,1.7,1.3,3,3,3s3-1.3,3-3v-1.4c4.8-0.8,8.5-5,8.5-10C75.5,67,72.3,63,67.8,61.9z"></path>
  <path fill="#444b54" d="M114 67c-1.7 0-3-1.3-3-3 0-12.6-4.9-24.4-13.8-33.2-18.3-18.3-48.1-18.3-66.5 0-4.1 4.1-7.3 8.8-9.7 14l4.5-2.1c1.5-.7 3.3 0 4 1.5s0 3.3-1.5 4l-11 5c-1.1.5-2.3.3-3.2-.5s-1.3-2-.9-3.1c2.4-8.7 7.1-16.7 13.5-23.1 20.7-20.7 54.3-20.7 75 0 10 10 15.5 23.3 15.5 37.5C117 65.7 115.7 67 114 67zM64 117c-13.6 0-27.1-5.2-37.5-15.5C16.5 91.5 11 78.2 11 64c0-1.7 1.3-3 3-3s3 1.3 3 3c0 12.6 4.9 24.4 13.8 33.2 18.3 18.3 48.1 18.3 66.5 0 6-6 10.3-13.5 12.3-21.7.4-1.6 2-2.6 3.6-2.2 1.6.4 2.6 2 2.2 3.6-2.3 9.2-7.1 17.7-13.9 24.4C91.1 111.8 77.6 117 64 117z"></path>
  <path fill="#444b54" d="M15.9 53.4c-1.2 0-2.4-.8-2.8-2l-4-11c-.6-1.6.2-3.3 1.8-3.8s3.3.2 3.8 1.8l4 11c.6 1.6-.2 3.3-1.8 3.8C16.6 53.4 16.2 53.4 15.9 53.4zM101.6 84.6c-1.1 0-2.2-.6-2.7-1.7-.7-1.5-.1-3.3 1.4-4l10.9-5.3c1.5-.7 3.3-.1 4 1.4.7 1.5.1 3.3-1.4 4l-10.9 5.3C102.5 84.5 102.1 84.6 101.6 84.6z"></path>
  <path fill="#444b54" d="M116.8,90.2c-1.2,0-2.3-0.7-2.8-1.9l-4.3-10.9c-0.6-1.5,0.1-3.3,1.7-3.9c1.5-0.6,3.3,0.1,3.9,1.7l4.3,10.9c0.6,1.5-0.1,3.3-1.7,3.9C117.5,90.1,117.1,90.2,116.8,90.2z"></path>
</svg>