<svg id="SvgjsSvg1021" width="288" height="288" xmlns="http://www.w3.org/2000/svg" version="1.1" xmlns:xlink="http://www.w3.org/1999/xlink" xmlns:svgjs="http://svgjs.com/svgjs"><defs id="SvgjsDefs1022"></defs><g id="SvgjsG1023" transform="matrix(0.9167,0,0,0.9167,11.995199205589302,11.995199205589302)"><svg xmlns="http://www.w3.org/2000/svg" enable-background="new 0 0 50 50" viewBox="0 0 50 50" width="288" height="288"><path fill="#444b53" d="M45.88086,21.88086c-1.36792,0-2.52051,0.89136-2.93994,2.11914h-3.04639
		c-0.22437-3.3678-1.56274-6.42871-3.65796-8.82251l2.15503-2.15503c1.27505,0.62981,2.67651,0.32007,3.57813-0.58154
		c1.21881-1.21781,1.2206-3.19155,0-4.41113c-1.17773-1.17871-3.23242-1.17822-4.41016-0.00049
		c-0.89599,0.89599-1.21664,2.29508-0.58228,3.57935l-2.15454,2.15454c-2.3938-2.09546-5.45483-3.4342-8.82275-3.65881V7.05896
		c1.22778-0.41943,2.11914-1.5719,2.11914-2.93982C28.11914,2.39941,26.71973,1,25,1s-3.11914,1.39941-3.11914,3.11914
		c0,1.36792,0.89136,2.52039,2.11914,2.93982v3.04541c-3.36816,0.22461-6.4292,1.56335-8.82324,3.65906l-2.15625-2.15674
		c0.57178-1.16492,0.38721-2.60986-0.58008-3.57739c-1.88495-1.88183-5.3252-0.62691-5.3252,2.20557
		c0,1.72278,1.39445,3.11914,3.11914,3.11914c0.48633,0,0.94971-0.12256,1.37354-0.33179l2.15479,2.15527
		C11.66748,17.57141,10.3291,20.63232,10.10449,24H7.05908c-0.41943-1.22778-1.57202-2.11914-2.93994-2.11914
		C2.39941,21.88086,1,23.28027,1,25s1.39941,3.11914,3.11914,3.11914c1.36792,0,2.52051-0.89136,2.93994-2.11914h3.04541
		c0.22461,3.36768,1.56299,6.42859,3.6582,8.82251l-2.16504,2.16553c-1.16162-0.54272-2.63647-0.36035-3.56836,0.57153
		c-1.22088,1.22088-1.21816,3.19498,0,4.41113c1.21581,1.21581,3.18704,1.22102,4.41211,0
		c0.96631-0.96802,1.15088-2.41284,0.5791-3.57739l2.15625-2.15674c2.39404,2.0957,5.45508,3.43445,8.82324,3.65906v3.04541
		c-1.22778,0.41943-2.11914,1.5719-2.11914,2.93982C21.88086,47.60059,23.28027,49,25,49s3.11914-1.39941,3.11914-3.11914
		c0-1.36792-0.89136-2.52039-2.11914-2.93982v-3.04541c3.36792-0.22461,6.42896-1.56335,8.82275-3.65881l2.15479,2.15479
		c-0.62877,1.27258-0.32357,2.675,0.58203,3.5791c1.2182,1.2182,3.19158,1.21858,4.41016,0
		c1.21715-1.21514,1.22203-3.18911,0-4.41113c-0.93164-0.93164-2.40674-1.11414-3.56787-0.57178l-2.16528-2.16528
		c2.09521-2.3938,3.43359-5.45471,3.65796-8.82251h3.04639c0.41943,1.22778,1.57202,2.11914,2.93994,2.11914
		C47.60059,28.11914,49,26.71972,49,25S47.60059,21.88086,45.88086,21.88086z M29.78809,37.01746
		c0.85815-1.20813,1.58423-2.76038,2.13037-4.60706c0.62354-0.58264,1.17358-1.24011,1.63525-1.96216h3.1731
		C35.33691,33.42737,32.85376,35.79126,29.78809,37.01746z M13.27222,30.44824h3.17407
		c0.4624,0.72339,1.01367,1.38196,1.63867,1.96533c0.54541,1.84583,1.271,3.39722,2.12915,4.60498
		C17.14697,35.7926,14.6626,33.42822,13.27222,30.44824z M20.2207,12.97912c-0.85962,1.20691-1.58643,2.75842-2.13281,4.60461
		c-0.625,0.58301-1.17651,1.24109-1.63916,1.96411h-3.17456C14.66577,16.56763,17.1521,14.20361,20.2207,12.97912z
		 M36.72485,19.54785h-3.17358c-0.46191-0.72168-1.01172-1.37842-1.6355-1.96069c-0.54712-1.84717-1.27417-3.39941-2.13354-4.60681
		C32.84912,14.20532,35.33374,16.5686,36.72485,19.54785z M25,33.15332c-4.49609,0-8.15332-3.65723-8.15332-8.15332
		S20.50391,16.84668,25,16.84668S33.15332,20.5039,33.15332,25S29.49609,33.15332,25,33.15332z M20.94165,15.69885
		c1.10742-2.27307,2.58325-3.64075,4.06128-3.64075c1.47632,0,2.95117,1.3678,4.05884,3.64233
		c-1.24512-0.5459-2.61743-0.85376-4.06177-0.85376C23.55688,14.84668,22.18579,15.15381,20.94165,15.69885z M15.46387,21.54785
		C15.07178,22.62744,14.84668,23.78662,14.84668,25c0,1.21191,0.22461,2.36975,0.61572,3.44824h-2.92822
		C12.22949,27.34839,12.05371,26.19555,12.05371,25c0-1.1969,0.17627-2.3512,0.48169-3.45215H15.46387z M25,37.94629
		c-0.02246,0-0.04395-0.00317-0.06616-0.00342c-1.45703-0.04187-2.90698-1.40076-3.99731-3.64429
		c1.24561,0.54663,2.61841,0.85474,4.06348,0.85474c1.44556,0,2.81885-0.30835,4.0647-0.85522
		c-1.08838,2.23816-2.53198,3.59619-3.98267,3.64404C25.0542,37.94238,25.02759,37.94629,25,37.94629z M34.5376,28.44824
		c0.39111-1.07849,0.61572-2.23633,0.61572-3.44824c0-1.21338-0.2251-2.37256-0.61719-3.45215h2.92749
		C37.76904,22.6488,37.94531,23.8031,37.94531,25c0,1.19556-0.17578,2.34839-0.48047,3.44824H34.5376z M38.97363,9.44385
		c0.43447-0.43548,1.14467-0.43889,1.58203,0.00049c0.43809,0.43607,0.43763,1.14541,0,1.58203
		c-0.42188,0.42285-1.16016,0.42334-1.58203-0.00049C38.5373,10.59155,38.53425,9.88222,38.97363,9.44385z M25,3
		c0.61719,0,1.11914,0.50195,1.11914,1.11914S25.61719,5.23828,25,5.23828s-1.11914-0.50195-1.11914-1.11914S24.38281,3,25,3z
		 M9.11523,10.23486c0-0.61703,0.49952-1.11865,1.11914-1.11865c0.99501,0,1.49248,1.2084,0.79199,1.90967
		C10.34796,11.70428,9.11523,11.24803,9.11523,10.23486z M4.11914,26.11914C3.50195,26.11914,3,25.61719,3,25
		s0.50195-1.11914,1.11914-1.11914S5.23828,24.38281,5.23828,25S4.73633,26.11914,4.11914,26.11914z M11.02637,40.55664
		c-0.42188,0.42188-1.16113,0.42188-1.58301,0c-0.4355-0.4355-0.44024-1.14277,0-1.58301c0.43817-0.43817,1.14824-0.43477,1.58301,0
		C11.46289,39.41016,11.46191,40.12012,11.02637,40.55664z M25,47c-0.61719,0-1.11914-0.50195-1.11914-1.11914
		S24.38281,44.76172,25,44.76172s1.11914,0.50195,1.11914,1.11914S25.61719,47,25,47z M40.55566,38.97461
		c0.43807,0.43605,0.43763,1.1444,0,1.58203c-0.42188,0.42188-1.16016,0.42188-1.58203,0c-0.4355-0.4355-0.44024-1.14277,0-1.58301
		C39.40945,38.53782,40.11918,38.5361,40.55566,38.97461z M45.88086,26.11914c-0.61719,0-1.11914-0.50195-1.11914-1.11914
		s0.50195-1.11914,1.11914-1.11914S47,24.38281,47,25S46.49805,26.11914,45.88086,26.11914z" class="color010101 svgShape"></path><path fill="#444b53" d="M24.93774,24.00195c-1.62201-0.56951-0.16336-2.48282,0.78394-1.44727
		c0.37305,0.41016,1.00586,0.4375,1.41211,0.06445c0.4082-0.37207,0.4375-1.00488,0.06445-1.41211
		c-0.3313-0.36377-0.74512-0.61743-1.19727-0.77075v-0.71362c0-0.55273-0.44727-1-1-1s-1,0.44727-1,1v0.76807
		c-0.30957,0.1272-0.59961,0.30225-0.85254,0.53564c-0.56738,0.5166-0.89746,1.22461-0.93066,1.99121
		c-0.0332,0.76465,0.2334,1.49805,0.75195,2.06543c1.22019,1.33038,2.1277,0.54425,2.65625,1.26367
		c0.2373,0.32227,0.20313,0.82031-0.07715,1.10938c-0.16797,0.17285-0.38965,0.26855-0.62695,0.26855c-0.00488,0-0.00879,0-0.0127,0
		c-0.24121-0.00391-0.46387-0.10352-0.62598-0.28125c-0.37305-0.4082-1.00684-0.43457-1.41309-0.06348
		c-0.40723,0.37305-0.43555,1.00586-0.06348,1.41309c0.32666,0.35718,0.74292,0.60913,1.19434,0.76331v0.72107
		c0,0.55273,0.44727,1,1,1s1-0.44727,1-1v-0.76636c0.36499-0.1488,0.70044-0.37036,0.98535-0.66431
		c0.95898-0.99121,1.06738-2.5752,0.25-3.68652C26.63681,24.34634,25.67483,23.95281,24.93774,24.00195z" class="color010101 svgShape"></path></svg></g></svg>