<!-- <svg xmlns="http://www.w3.org/2000/svg" x="0px" y="0px" width="40" height="40" viewBox="0 0 40 40" style=" fill:#000000;">
  <path fill="#dff0fe" d="M9 22L9 25 29 25 31 25 38 25 38 31 37 31 29 31 9 31 9 34 2 28z"></path>
  <path fill="#4788c7" d="M10,20v5h1.5v1H9v-3.77L2.51,28L9,33.77V30h2.5v1H10v5l-9-8L10,20z"></path>
  <path fill="#4788c7" d="M11.5 30A.5.5 0 1 0 11.5 31 .5.5 0 1 0 11.5 30zM11.5 25A.5.5 0 1 0 11.5 26 .5.5 0 1 0 11.5 25z"></path>
  <path fill="#dff0fe" d="M31 18L31 15 11 15 9 15 2 15 2 9 3 9 11 9 31 9 31 6 38 12z"></path>
  <path fill="#4788c7" d="M39,12l-9-8v5h-2.5v1H31V6.23L37.49,12L31,17.77V14h-3.5v1H30v5L39,12z"></path>
  <path fill="#98ccfd" d="M18.5,34.5v-4.024c-1.048-0.061-3.438-0.248-4.682-0.735L13.5,29.615v-5.034l0.698,0.301 c1.059,0.456,2.185,0.618,4.302,0.618c1.42,0,3-0.886,3-1.486c0-0.842-1.229-1.37-2.652-1.98C16.591,21.063,13.5,19.735,13.5,16 c0-4.247,2.962-5.985,5-6.42V5.5h2v4.037c1.577,0.139,3.834,0.509,4.744,1.016l0.256,0.143v5.192l-0.759-0.46 c-1.015-0.615-2.357-0.928-3.991-0.928c-1.43,0-2.25,0.547-2.25,1.5c0,0.982,1.037,1.434,2.728,2.087 c2.225,0.861,5.272,2.04,5.272,6.009c0,3.413-3.438,5.698-6,6.311V34.5H18.5z"></path>
  <path fill="#4788c7" d="M20 6v4c1.679.107 4.141.511 5 .989V15c-1.233-.748-2.75-1-4.25-1C18.804 14 18 14.944 18 16c0 3.275 8 1.846 8 8.096 0 3.212-3.439 5.458-6 5.904v4h-1v-4c-1.253-.05-3.796-.254-5-.726V25.34c1.114.481 2.291.66 4.5.66 1.487 0 3.5-.922 3.5-1.986 0-2.843-8-2.221-8-8.014 0-4.479 3.524-5.805 5-6V6H20M21 5h-1-1-1v1 3.194c-2.092.604-5 2.527-5 6.806 0 4.065 3.266 5.468 5.651 6.492C19.806 22.988 21 23.501 21 24.014 20.896 24.318 19.668 25 18.5 25c-2.041 0-3.115-.151-4.104-.578L13 23.82v1.52 3.934.682l.635.249c1.151.451 3.14.654 4.365.74V34v1h1 1 1v-1-3.21c2.673-.783 6-3.18 6-6.694 0-4.311-3.232-5.562-5.592-6.475C19.771 16.988 19 16.622 19 16c0-.87 1.096-1 1.75-1 1.54 0 2.796.288 3.732.855L26 16.776V15v-4.011-.588l-.514-.286C24.561 9.6 22.529 9.248 21 9.084V6 5L21 5zM27.5 9A.5.5 0 1 0 27.5 10 .5.5 0 1 0 27.5 9zM27.5 14A.5.5 0 1 0 27.5 15 .5.5 0 1 0 27.5 14z"></path>
  <path fill="#4788c7" d="M28.5 25L28.5 26 37 26 37 30 24.5 30 24.5 31 38 31 38 25z"></path>
  <path fill="#4788c7" d="M28.5 25A.5.5 0 1 0 28.5 26 .5.5 0 1 0 28.5 25zM24.5 30A.5.5 0 1 0 24.5 31 .5.5 0 1 0 24.5 30zM11.5 15L11.5 14 3 14 3 10 14.5 10 14.5 9 2 9 2 15z"></path>
  <path fill="#4788c7" d="M11.5 14A.5.5 0 1 0 11.5 15 .5.5 0 1 0 11.5 14zM14.5 9A.5.5 0 1 0 14.5 10 .5.5 0 1 0 14.5 9z"></path>
</svg> -->
<svg xmlns="http://www.w3.org/2000/svg" x="0px" y="0px" width="64" height="64" viewBox="0 0 128 128" style=" fill:#000000;">
  <path fill="#fff" d="M64 14A50 50 0 1 0 64 114A50 50 0 1 0 64 14Z"></path>
  <path fill="#9eb9d3" d="M67.8,61.9l-6.2-1.5c-1.9-0.5-3.1-2.1-3.1-4c0-2.3,1.9-4.2,4.2-4.2h3c2.1,0,3.8,1.7,3.8,3.8c0,1.7,1.3,3,3,3s3-1.3,3-3c0-5-3.7-9.1-8.5-9.7v-1.3c0-1.7-1.3-3-3-3s-3,1.3-3,3v1.4c-4.8,0.8-8.5,5-8.5,10c0,4.7,3.2,8.7,7.7,9.9l6.2,1.5c1.9,0.5,3.1,2.1,3.1,4c0,2.3-1.9,4.2-4.2,4.2l-3,0c-2.1,0-3.8-1.7-3.8-3.8c0-1.7-1.3-3-3-3s-3,1.3-3,3c0,5,3.7,9.1,8.5,9.7v1.3c0,1.7,1.3,3,3,3s3-1.3,3-3v-1.4c4.8-0.8,8.5-5,8.5-10C75.5,67,72.3,63,67.8,61.9z"></path>
  <path fill="#444b54" d="M114 67c-1.7 0-3-1.3-3-3 0-12.6-4.9-24.4-13.8-33.2-18.3-18.3-48.1-18.3-66.5 0-4.1 4.1-7.3 8.8-9.7 14l4.5-2.1c1.5-.7 3.3 0 4 1.5s0 3.3-1.5 4l-11 5c-1.1.5-2.3.3-3.2-.5s-1.3-2-.9-3.1c2.4-8.7 7.1-16.7 13.5-23.1 20.7-20.7 54.3-20.7 75 0 10 10 15.5 23.3 15.5 37.5C117 65.7 115.7 67 114 67zM64 117c-13.6 0-27.1-5.2-37.5-15.5C16.5 91.5 11 78.2 11 64c0-1.7 1.3-3 3-3s3 1.3 3 3c0 12.6 4.9 24.4 13.8 33.2 18.3 18.3 48.1 18.3 66.5 0 6-6 10.3-13.5 12.3-21.7.4-1.6 2-2.6 3.6-2.2 1.6.4 2.6 2 2.2 3.6-2.3 9.2-7.1 17.7-13.9 24.4C91.1 111.8 77.6 117 64 117z"></path>
  <path fill="#444b54" d="M15.9 53.4c-1.2 0-2.4-.8-2.8-2l-4-11c-.6-1.6.2-3.3 1.8-3.8s3.3.2 3.8 1.8l4 11c.6 1.6-.2 3.3-1.8 3.8C16.6 53.4 16.2 53.4 15.9 53.4zM101.6 84.6c-1.1 0-2.2-.6-2.7-1.7-.7-1.5-.1-3.3 1.4-4l10.9-5.3c1.5-.7 3.3-.1 4 1.4.7 1.5.1 3.3-1.4 4l-10.9 5.3C102.5 84.5 102.1 84.6 101.6 84.6z"></path>
  <path fill="#444b54" d="M116.8,90.2c-1.2,0-2.3-0.7-2.8-1.9l-4.3-10.9c-0.6-1.5,0.1-3.3,1.7-3.9c1.5-0.6,3.3,0.1,3.9,1.7l4.3,10.9c0.6,1.5-0.1,3.3-1.7,3.9C117.5,90.1,117.1,90.2,116.8,90.2z"></path>
</svg>