<svg xmlns="http://www.w3.org/2000/svg" x="0px" y="0px" width="40" height="40" viewBox="0 0 40 40" style=" fill:#000000;">
  <path fill="#98ccfd" d="M5,33.5c-1.93,0-3.5-1.57-3.5-3.5V10c0-1.93,1.57-3.5,3.5-3.5h30c1.93,0,3.5,1.57,3.5,3.5v20 c0,1.93-1.57,3.5-3.5,3.5H5z"></path>
  <path fill="#4788c7" d="M35,7c1.654,0,3,1.346,3,3v20c0,1.654-1.346,3-3,3H5c-1.654,0-3-1.346-3-3V10c0-1.654,1.346-3,3-3 H35 M35,6H5c-2.209,0-4,1.791-4,4v20c0,2.209,1.791,4,4,4h30c2.209,0,4-1.791,4-4V10C39,7.791,37.209,6,35,6L35,6z"></path>
  <path fill="#fff" d="M26 11A4 4 0 1 0 26 19 4 4 0 1 0 26 11zM33 28c0-3.866-3.134-7-7-7-3.866 0-7 3.134-7 7H33z"></path>
  <g>
    <path fill="#4788c7" d="M8,23h7c0.552,0,1-0.448,1-1v-5c0-0.552-0.448-1-1-1H8c-0.552,0-1,0.448-1,1v5 C7,22.552,7.448,23,8,23z"></path>
  </g>
</svg>