<?xml version="1.0" encoding="UTF-8"?>
<svg xmlns="http://www.w3.org/2000/svg" xmlns:xlink="http://www.w3.org/1999/xlink" width="512pt" height="512pt" viewBox="0 0 512 512" version="1.1">
<g id="surface6013444">
<path style=" stroke:none;fill-rule:nonzero;fill:rgb(100%,100%,100%);fill-opacity:1;" d="M 456 444 L 456 164 C 456 142 438 124 416 124 L 96 124 C 74 124 56 142 56 164 L 56 444 L 16 444 L 16 456 C 16 478 34 496 56 496 L 456 496 C 478 496 496 478 496 456 L 496 444 Z M 456 444 "/>
<path style=" stroke:none;fill-rule:nonzero;fill:rgb(12.156863%,83.137255%,68.627451%);fill-opacity:1;" d="M 367.601562 180.398438 C 336.398438 149.199219 336.398438 98.398438 367.601562 67.199219 C 398 36.800781 446.800781 36 478.398438 64.800781 C 479.199219 65.601562 475.601562 74.800781 476.398438 75.601562 C 479.601562 78.800781 486.800781 82.398438 489.199219 83.601562 C 490.398438 84 487.199219 87.601562 488.398438 87.601562 C 488.800781 87.601562 493.199219 82.800781 493.601562 83.601562 C 511.199219 114 506.800781 154 480.800781 180 C 449.199219 212 398.800781 212 367.601562 180.398438 Z M 367.601562 180.398438 "/>
<path style=" stroke:none;fill-rule:nonzero;fill:rgb(100%,100%,100%);fill-opacity:1;" d="M 405.601562 100.800781 C 401.601562 95.601562 394 94.800781 388.800781 98.800781 C 383.601562 102.800781 382.800781 110.398438 386.800781 115.601562 L 414.800781 151.601562 C 416.800781 154.398438 420.398438 156 424 156.398438 L 424.398438 156.398438 C 428 156.398438 431.199219 154.800781 433.199219 152.398438 L 493.601562 84.398438 C 489.601562 77.199219 484.398438 70.800781 478.398438 65.601562 L 424.800781 125.601562 Z M 405.601562 100.800781 "/>
<path style=" stroke:none;fill-rule:nonzero;fill:rgb(26.666667%,29.411765%,32.941176%);fill-opacity:1;" d="M 296 456 L 216 456 C 209.199219 456 204 450.800781 204 444 C 204 437.199219 209.199219 432 216 432 L 296 432 C 302.800781 432 308 437.199219 308 444 C 308 450.800781 302.800781 456 296 456 Z M 296 456 "/>
<path style=" stroke:none;fill-rule:nonzero;fill:rgb(26.666667%,29.411765%,32.941176%);fill-opacity:1;" d="M 456 508 L 56 508 C 27.199219 508 4 484.800781 4 456 L 4 444 C 4 437.199219 9.199219 432 16 432 L 156 432 C 162.800781 432 168 437.199219 168 444 C 168 450.800781 162.800781 456 156 456 L 28 456 C 28 471.601562 40.398438 484 56 484 L 456 484 C 471.601562 484 484 471.601562 484 456 L 356 456 C 349.199219 456 344 450.800781 344 444 C 344 437.199219 349.199219 432 356 432 L 496 432 C 502.800781 432 508 437.199219 508 444 L 508 456 C 508 484.800781 484.800781 508 456 508 Z M 56 412 C 49.199219 412 44 406.800781 44 400 L 44 164 C 44 135.199219 67.199219 112 96 112 L 304 112 C 310.800781 112 316 117.199219 316 124 C 316 130.800781 310.800781 136 304 136 L 96 136 C 80.398438 136 68 148.398438 68 164 L 68 400 C 68 406.800781 62.800781 412 56 412 Z M 456 412 C 449.199219 412 444 406.800781 444 400 L 444 244 C 444 237.199219 449.199219 232 456 232 C 462.800781 232 468 237.199219 468 244 L 468 400 C 468 406.800781 462.800781 412 456 412 Z M 456 412 "/>
</g>
</svg>
