<svg xmlns="http://www.w3.org/2000/svg" viewBox="0 0 32 32"><g data-name="Id Card"><rect width="8" height="2" x="12" y="5" fill="#befcff"/><path fill="#5eb0ff" d="M25,14a1,1,0,0,0,0-2H19a1,1,0,0,0,0,2Zm0,5a1,1,0,0,0,0-2H19a1,1,0,0,0,0,2Zm0,5a1,1,0,0,0,0-2H19a1,1,0,0,0,0,2ZM15,12H7a1,1,0,0,0-1,1V23a1,1,0,0,0,1,1h8a1,1,0,0,0,1-1V13A1,1,0,0,0,15,12ZM11,9H21a1,1,0,0,0,1-1V7h6V27H4V7h6V8A1,1,0,0,0,11,9Z"/><rect width="6" height="8" x="8" y="14" fill="#73ebff"/><path fill="#6e6e6e" d="M25 12a1 1 0 0 1 0 2H19a1 1 0 0 1 0-2zM25 17a1 1 0 0 1 0 2H19a1 1 0 0 1 0-2zM25 22a1 1 0 0 1 0 2H19a1 1 0 0 1 0-2zM7 12h8a1 1 0 0 1 1 1V23a1 1 0 0 1-1 1H7a1 1 0 0 1-1-1V13A1 1 0 0 1 7 12zM8 22h6V14H8z"/><path fill="#6e6e6e" d="M20,7V5H12V7ZM10,5V4a1,1,0,0,1,1-1H21a1,1,0,0,1,1,1V5h7a1,1,0,0,1,1,1V28a1,1,0,0,1-1,1H3a1,1,0,0,1-1-1V6A1,1,0,0,1,3,5ZM21,9H11a1,1,0,0,1-1-1V7H4V27H28V7H22V8A1,1,0,0,1,21,9Z"/></g></svg>