<svg xmlns="http://www.w3.org/2000/svg" x="0px" y="0px" width="64" height="64" viewBox="0 0 128 128" style=" fill:#000000;">
  <path fill="#fff" d="M109,109c0,5.5-4.5,10-10,10H19c-5.5,0-10-4.5-10-10V54c0-5.5,4.5-10,10-10h80c5.5,0,10,4.5,10,10V109z"></path>
  <path fill="#1fd4af" d="M91.9,58.1c-7.8-7.8-7.8-20.5,0-28.3c7.6-7.6,19.8-7.8,27.7-0.6c0.2,0.2-0.7,2.5-0.5,2.7c0.8,0.8,2.6,1.7,3.2,2c0.3,0.1-0.5,1-0.2,1c0.1,0,1.2-1.2,1.3-1c4.4,7.6,3.3,17.6-3.2,24.1C112.3,66,99.7,66,91.9,58.1z"></path>
  <path fill="#fff" d="M101.4,38.2c-1-1.3-2.9-1.5-4.2-0.5c-1.3,1-1.5,2.9-0.5,4.2l7,9c0.5,0.7,1.4,1.1,2.3,1.2c0,0,0.1,0,0.1,0c0.9,0,1.7-0.4,2.2-1l15.1-17c-1-1.8-2.3-3.4-3.8-4.7l-13.4,15L101.4,38.2z"></path>
  <path fill="#444b54" d="M99,122H19c-7.2,0-13-5.8-13-13V54c0-7.2,5.8-13,13-13h54c1.7,0,3,1.3,3,3s-1.3,3-3,3H19c-3.9,0-7,3.1-7,7v55c0,3.9,3.1,7,7,7h80c3.9,0,7-3.1,7-7V77c0-1.7,1.3-3,3-3s3,1.3,3,3v32C112,116.2,106.2,122,99,122z"></path>
  <path fill="#d0d4d8" d="M74 107H29c-1.7 0-3-1.3-3-3s1.3-3 3-3h45c1.7 0 3 1.3 3 3S75.7 107 74 107zM52 92H29c-1.7 0-3-1.3-3-3s1.3-3 3-3h23c1.7 0 3 1.3 3 3S53.7 92 52 92zM72 92c-.8 0-1.6-.3-2.1-.9C69.3 90.6 69 89.8 69 89c0-.2 0-.4.1-.6 0-.2.1-.4.2-.6.1-.2.2-.3.3-.5.1-.2.2-.3.4-.5.7-.7 1.7-1 2.7-.8.2 0 .4.1.6.2.2.1.4.2.5.3.2.1.3.2.5.4.1.1.3.3.4.5.1.2.2.3.3.5.1.2.1.4.2.6 0 .2.1.4.1.6 0 .2 0 .4-.1.6 0 .2-.1.4-.2.6s-.2.4-.3.5c-.1.2-.2.3-.4.4-.1.1-.3.3-.5.4-.2.1-.3.2-.5.3-.2.1-.4.1-.6.2C72.4 92 72.2 92 72 92z"></path>
  <path fill="#444b54" d="M37,78c-7.2,0-13-5.8-13-13s5.8-13,13-13s13,5.8,13,13S44.2,78,37,78z M37,58c-3.9,0-7,3.1-7,7s3.1,7,7,7s7-3.1,7-7S40.9,58,37,58z"></path>
</svg>