<svg xmlns="http://www.w3.org/2000/svg" x="0px" y="0px" width="50" height="50" viewBox="0 0 172 172" style=" fill:#000000;">
  <g fill="none" fill-rule="nonzero" stroke="none" stroke-width="1" stroke-linecap="butt" stroke-linejoin="miter" stroke-miterlimit="10" stroke-dasharray="" stroke-dashoffset="0" font-family="none" font-weight="none" font-size="none" text-anchor="none" style="mix-blend-mode: normal">
    <path d="M0,172v-172h172v172z" fill="none"></path>
    <g fill="#ffffff">
      <path d="M86,6.88c-7.58864,0 -13.76,6.17136 -13.76,13.76c0,7.58864 6.17136,13.76 13.76,13.76c7.58864,0 13.76,-6.17136 13.76,-13.76c0,-7.58864 -6.17136,-13.76 -13.76,-13.76zM24.08,37.84c-7.58864,0 -13.76,6.17136 -13.76,13.76c0,7.58864 6.17136,13.76 13.76,13.76c7.58864,0 13.76,-6.17136 13.76,-13.76c0,-7.58864 -6.17136,-13.76 -13.76,-13.76zM147.92,37.84c-7.58864,0 -13.76,6.17136 -13.76,13.76c0,7.58864 6.17136,13.76 13.76,13.76c7.58864,0 13.76,-6.17136 13.76,-13.76c0,-7.58864 -6.17136,-13.76 -13.76,-13.76zM82.56,40.97094v24.70485c1.12144,-0.19264 2.26696,-0.31578 3.44,-0.31578c1.17304,0 2.31856,0.11986 3.44,0.30906v-24.69813c-1.12144,0.1892 -2.26696,0.30906 -3.44,0.30906c-1.17304,0 -2.31856,-0.11986 -3.44,-0.30906zM128.47594,58.45985l-26.37781,14.66031c1.43448,1.7888 2.56178,3.81512 3.33922,6.01328l26.37781,-14.65359c-1.43104,-1.78536 -2.55834,-3.82184 -3.33922,-6.02zM43.5039,58.52703c-0.78776,2.19128 -1.92145,4.21793 -3.35937,5.99984l26.33078,14.835c0.75336,-2.20848 1.86835,-4.24775 3.27875,-6.04687zM86,72.24c-7.5852,0 -13.76,6.1748 -13.76,13.76c0,7.5852 6.1748,13.76 13.76,13.76c7.5852,0 13.76,-6.1748 13.76,-13.76c0,-7.5852 -6.1748,-13.76 -13.76,-13.76zM66.52235,92.75906l-26.35766,14.73422c1.43448,1.78536 2.56506,3.81856 3.34594,6.01328l26.32406,-14.71406c-1.42072,-1.79224 -2.54522,-3.83184 -3.31234,-6.03344zM105.37687,93.04125c-0.39904,1.09392 -0.87693,2.14005 -1.44453,3.13765c-0.00344,0.00688 -0.01,0.01656 -0.01344,0.02688c-0.5676,0.99416 -1.20932,1.93451 -1.92828,2.81515l26.47187,14.55281c0.774,-2.19472 1.9049,-4.2312 3.3325,-6.02zM82.56,106.33094v24.70485c1.12144,-0.1892 2.26696,-0.30906 3.44,-0.30906c1.17304,0 2.31856,0.11986 3.44,0.30906v-24.70485c-1.12144,0.1892 -2.26696,0.30906 -3.44,0.30906c-1.17304,0 -2.31856,-0.11986 -3.44,-0.30906zM24.08,106.64c-7.58864,0 -13.76,6.17136 -13.76,13.76c0,7.58864 6.17136,13.76 13.76,13.76c7.58864,0 13.76,-6.17136 13.76,-13.76c0,-7.58864 -6.17136,-13.76 -13.76,-13.76zM147.92,106.64c-7.58864,0 -13.76,6.17136 -13.76,13.76c0,7.58864 6.17136,13.76 13.76,13.76c7.58864,0 13.76,-6.17136 13.76,-13.76c0,-7.58864 -6.17136,-13.76 -13.76,-13.76zM86,137.6c-7.58864,0 -13.76,6.17136 -13.76,13.76c0,7.58864 6.17136,13.76 13.76,13.76c7.58864,0 13.76,-6.17136 13.76,-13.76c0,-7.58864 -6.17136,-13.76 -13.76,-13.76z"></path>
    </g>
  </g>
</svg>