<svg id="SvgjsSvg1041" width="288" height="288" xmlns="http://www.w3.org/2000/svg" version="1.1" xmlns:xlink="http://www.w3.org/1999/xlink" xmlns:svgjs="http://svgjs.com/svgjs">
  <defs id="SvgjsDefs1042"></defs>
  <g id="SvgjsG1043" transform="matrix(0.9167,0,0,0.9167,12.182609270668024,11.995474548339843)">
    <svg xmlns="http://www.w3.org/2000/svg" width="288" height="288" viewBox="0 0 32 32">
      <g transform="translate(0 -1020.362)" fill="#444b53" class="color000 svgShape">
        <path fill="#cccccc" d="m 19.249964,1023.3622 c -4.63624,0 -8.77166,2.9163 -10.33984,7.2793 1.03517,-0.3862 2.07407,-0.5476 3.0625,-0.4258 l 0,0 c 0.47193,0.058 0.92807,0.1957 1.37109,0.3847 2.23459,-2.752 5.00898,-5.2076 8.29883,-6.959 -0.78497,-0.1797 -1.58731,-0.2727 -2.39258,-0.2773 z m 9.95312,6.6094 c 0.15512,0.1525 0.19381,0.3878 0.0957,0.582 -1.76928,3.4893 -4.3659,6.4057 -7.27343,8.7383 0.76105,1.8055 0.40628,3.8945 -0.75196,5.875 5.20164,-0.9735 8.97291,-5.5128 8.97657,-10.8047 -1.8e-4,-1.4383 -0.28031,-2.8299 -0.79768,-4.1122" color="#000" overflow="visible" style="isolation:auto;mix-blend-mode:normal" class="colorccc svgShape"></path>
        <path fill="#4bbfeb" fill-rule="evenodd" stroke="#444b53" stroke-linecap="round" stroke-linejoin="round" d="M9.233864 1038.2788c1.17299-2.7069 2.59412-5.0754 4.16317-7.122-3.78965-1.8948-9.32331 1.936-12.14707 8.5445 4.24489-3.2926 6.70489-3.6489 7.9839-1.4225zM14.334854 1043.3798c2.70686-1.173 5.07539-2.5941 7.12195-4.1632 1.89483 3.7897-1.93595 9.3233-8.54444 12.1471 3.29254-4.2449 3.64891-6.7049 1.42249-7.9839z" class="color4bbfeb svgShape colorStroke000 svgStroke"></path>
        <path fill="#4bbfeb" fill-rule="evenodd" stroke="#444b53" d="m 7.795734,1040.6478 -0.91121,1.6711 3.47121,3.44 1.60862,-0.9425 z" class="color4bbfeb svgShape colorStroke000 svgStroke"></path>
        <path fill-rule="evenodd" d="M6.0396186 1044.204l-2.3685345 2.3686.4737069.4737 2.3685345-2.3686-.4737069-.4737zM3.1973772 1047.0463l-.4737069.4737.4737069.4737.4737069-.4737-.4737069-.4737zM6.9870324 1045.1514l-3.7896552 3.7897.4737069.4737 3.7896551-3.7897-.4737068-.4737zM2.7236703 1049.4148l-.4737068.4737.4737068.4737.4737069-.4737-.4737069-.4737zM7.934446 1046.0989l-2.8422412 2.8422.4737069.4737 2.8422413-2.8422-.473707-.4737zM4.6184979 1049.4148l-.4737069.4737.4737069.4737.4737069-.4737-.4737069-.4737z" color="#000" font-family="sans-serif" font-weight="400" overflow="visible" style="line-height:normal;text-indent:0;text-align:start;text-decoration-line:none;text-decoration-style:solid;text-decoration-color:#000;text-transform:none;block-progression:tb;isolation:auto;mix-blend-mode:normal" fill="#444b53" class="color000 svgShape"></path>
        <path fill="#4bbfeb" d="m 746.14306,715.14111 a 1.7114817,1.7114818 0 0 1 -1.71148,1.71149 1.7114817,1.7114818 0 0 1 -1.71148,-1.71149 1.7114817,1.7114818 0 0 1 1.71148,-1.71148 1.7114817,1.7114818 0 0 1 1.71148,1.71148 z" transform="rotate(45)" class="color4bbfeb svgShape"></path>
        <path fill="#4bbfeb" fill-rule="evenodd" stroke="#444b53" stroke-linecap="round" stroke-linejoin="round" d="m 29.237574,1029.5643 -6.14524,-6.1452 c -0.43472,0.1845 -1.41182,0.7633 -1.83001,0.9754 l 7.02239,6.9109 c 0.21204,-0.4182 0.76835,-1.3064 0.95286,-1.7411 z" class="color4bbfeb svgShape colorStroke000 svgStroke"></path>
        <path fill-rule="evenodd" d="m 30.75,1021.3613 c -2.879654,0 -5.523751,0.6022 -7.919922,1.6192 a 0.50005,0.50005 0 0 0 -0.04883,0.025 l -0.722656,0.4062 c -6.576627,3.3348 -11.152695,9.4991 -13.5351565,15.2852 a 0.50005,0.50005 0 0 0 0.109375,0.5429 l 4.7363285,4.7383 a 0.50005,0.50005 0 0 0 0.544921,0.1074 c 5.784123,-2.3816 12.048158,-6.9529 15.384766,-13.5332 l 0.34961,-0.6933 a 0.50005,0.50005 0 0 0 0.01367,-0.031 c 1.019411,-2.4018 1.587881,-5.0908 1.587891,-7.9668 a 0.50005,0.50005 0 0 0 -0.5,-0.5 z m -0.554688,1.0567 c -0.07013,2.5241 -0.553691,4.8971 -1.451171,7.0136 -7.89e-4,0 -0.0012,0 -0.002,0.01 l -0.335938,0.6641 c -3.13781,6.1871 -9.063506,10.5771 -14.583984,12.916 l -4.2265629,-4.2285 c 2.3384829,-5.5154 6.7232369,-11.3453 12.9140629,-14.4844 a 0.50005,0.50005 0 0 0 0.01953,-0.01 l 0.705078,-0.3965 c 2.119166,-0.8977 4.449362,-1.4067 6.960937,-1.4804 z" color="#000" font-family="sans-serif" font-weight="400" overflow="visible" style="line-height:normal;text-indent:0;text-align:start;text-decoration-line:none;text-decoration-style:solid;text-decoration-color:#000;text-transform:none;block-progression:tb;isolation:auto;mix-blend-mode:normal" fill="#444b53" class="color000 svgShape"></path>
        <path fill="#4bbfeb" d="m 20.285119,1028.5602 -0.480468,0.1425 -0.365235,0.1094 -0.0918,0.035 -0.521484,0.2774 -0.08398,0.055 -0.02344,0.018 -0.386719,0.3144 0.632813,0.7774 0.367187,-0.3028 0.433594,-0.2285 0.322266,-0.096 0.480468,-0.1406 -0.283203,-0.9609 z m 1.40625,0.088 -0.464844,0.8847 0.441407,0.2325 0.421875,0.2207 0.328125,0.2695 0.384765,0.3164 0.634766,-0.7754 -0.388672,-0.3164 -0.36914,-0.3027 -0.08398,-0.055 -0.462891,-0.2442 -0.441406,-0.2304 z m -4.164062,1.8867 -0.142578,0.4805 -0.09961,0.3437 -0.01953,0.094 -0.05469,0.5742 0,0.094 0.0059,0.064 0.04883,0.5 0.996094,-0.096 -0.05078,-0.498 0,-0.014 0.04687,-0.4785 0.08594,-0.2989 0.142578,-0.4804 -0.958984,-0.2852 z m 6.591797,0.5098 -0.996094,0.094 0.04687,0.498 0.04297,0.4375 -0.04492,0.4629 0.996093,0.098 0.04883,-0.5137 0,-0.094 -0.04687,-0.4844 -0.04687,-0.498 z m -1.103516,1.9668 -0.04883,0.1386 -0.25,0.4102 -0.119141,0.1308 -0.33789,0.3711 0.740234,0.6739 0.337891,-0.3711 0.148437,-0.1641 0.05859,-0.076 0.298828,-0.4961 0.04297,-0.088 0.06836,-0.1855 -0.939453,-0.3438 z m -4.541016,0.2578 -0.773437,0.6328 0.316406,0.3867 0.183594,0.2246 0.07031,0.07 0.470704,0.3848 0.08398,0.055 0.08984,0.047 0.443359,0.2343 0.464844,-0.8847 -0.441407,-0.2324 -0.04492,-0.023 -0.392579,-0.3223 -0.152343,-0.1856 -0.31836,-0.3867 z m 3.310547,1.0527 -0.130859,0.068 -0.458985,0.1367 -0.177734,0.018 -0.498047,0.047 0.0957,0.9961 0.498047,-0.049 0.21875,-0.02 0.0957,-0.018 0.554688,-0.166 0.0918,-0.037 0.175781,-0.092 -0.464844,-0.8848 z" color="#000" font-family="sans-serif" font-weight="400" overflow="visible" style="line-height:normal;text-indent:0;text-align:start;text-decoration-line:none;text-decoration-style:solid;text-decoration-color:#000;text-transform:none;block-progression:tb;isolation:auto;mix-blend-mode:normal" class="color4bbfeb svgShape"></path>
      </g>
    </svg>
  </g>
</svg>