<svg xmlns="http://www.w3.org/2000/svg" x="0px" y="0px" width="50" height="50" viewBox="0 0 50 50" style=" fill:#fff;">
  <path d="M 15 3 C 13.354545 3 12 4.3545455 12 6 L 12 8.8320312 A 1.0001 1.0001 0 0 0 12 9.1582031 L 12 39.832031 A 1.0001 1.0001 0 0 0 12 40.158203 L 12 44 C 12 45.645455 13.354545 47 15 47 L 35 47 C 36.645455 47 38 45.645455 38 44 L 38 40.167969 A 1.0001 1.0001 0 0 0 38 39.841797 L 38 35.054688 L 36 35.054688 L 36 39 L 14 39 L 14 10 L 36 10 L 36 15.964844 L 38 15.964844 L 38 9.1679688 A 1.0001 1.0001 0 0 0 38 8.8417969 L 38 6 C 38 4.3545455 36.645455 3 35 3 L 15 3 z M 15 5 L 35 5 C 35.554545 5 36 5.4454545 36 6 L 36 8 L 14 8 L 14 6 C 14 5.4454545 14.445455 5 15 5 z M 23 18 L 23 19 L 23 33 L 48 33 L 48 18 L 23 18 z M 26.914062 20 L 44.087891 20 A 1.5 1.5 0 0 0 45.5 22 A 1.5 1.5 0 0 0 46 21.912109 L 46 29.085938 A 1.5 1.5 0 0 0 45.5 29 A 1.5 1.5 0 0 0 44.085938 31 L 26.912109 31 A 1.5 1.5 0 0 0 25.5 29 A 1.5 1.5 0 0 0 25 29.087891 L 25 21.914062 A 1.5 1.5 0 0 0 25.5 22 A 1.5 1.5 0 0 0 26.914062 20 z M 35.5 22 C 34.416667 22 33.476892 22.442256 32.876953 23.117188 C 32.277014 23.792119 32 24.652778 32 25.5 C 32 26.347222 32.277014 27.207882 32.876953 27.882812 C 33.476892 28.557744 34.416667 29 35.5 29 C 36.583333 29 37.523108 28.557744 38.123047 27.882812 C 38.722986 27.207881 39 26.347222 39 25.5 C 39 24.652778 38.722986 23.792118 38.123047 23.117188 C 37.523108 22.442256 36.583333 22 35.5 22 z M 28.5 24 A 1.5 1.459 0 1 0 28.5 26.917969 A 1.5 1.459 0 1 0 28.5 24 z M 35.5 24 C 36.083333 24 36.393559 24.182744 36.626953 24.445312 C 36.860347 24.707881 37 25.097222 37 25.5 C 37 25.902778 36.860347 26.292118 36.626953 26.554688 C 36.393559 26.817256 36.083333 27 35.5 27 C 34.916667 27 34.606441 26.817256 34.373047 26.554688 C 34.139653 26.292119 34 25.902778 34 25.5 C 34 25.097222 34.139653 24.707882 34.373047 24.445312 C 34.606441 24.182744 34.916667 24 35.5 24 z M 42.5 24 A 1.5 1.459 0 1 0 42.5 26.917969 A 1.5 1.459 0 1 0 42.5 24 z M 14 41 L 36 41 L 36 44 C 36 44.554545 35.554545 45 35 45 L 15 45 C 14.445455 45 14 44.554545 14 44 L 14 41 z M 22 42 A 1.0001 1.0001 0 1 0 22 44 L 28 44 A 1.0001 1.0001 0 1 0 28 42 L 22 42 z"></path>
</svg>