<svg xml:space="preserve" viewBox="0 0 100 100" y="0" x="0" xmlns="http://www.w3.org/2000/svg" id="圖層_1" version="1.1" style="height: 100%; width: 100%; background: transparent;" width="199px" height="199px">
  <g class="ldl-scale" style="transform-origin: 50% 50%; transform: rotate(0deg) scale(1, 1);">
    <g class="ldl-ani">
      <g class="ldl-layer">
        <g class="ldl-ani" style="transform: scale(0.91); transform-origin: 50px 50px; animation: 1.11111s linear -0.740741s infinite normal forwards running breath-073a2d2d-22c8-4b6d-8816-5a5faac1c4d3;">
          <path fill="#abbd81" d="M70.601 29.846H29.399C24.314 35.043 21.177 42.154 21.177 50s3.137 14.957 8.223 20.154h41.202c5.085-5.197 8.223-12.308 8.223-20.154s-3.139-14.957-8.224-20.154z" style="fill: rgb(171, 189, 129);"></path>
        </g>
      </g>
      <g class="ldl-layer">
        <g class="ldl-ani" style="transform: scale(0.91); transform-origin: 50px 50px; animation: 1.11111s linear -0.925926s infinite normal forwards running breath-073a2d2d-22c8-4b6d-8816-5a5faac1c4d3;">
          <path fill="#849b87" d="M7.5 74.231h85V25.769h-85v48.462zm21.899-44.385h41.202c5.085 5.197 8.223 12.308 8.223 20.154s-3.137 14.957-8.223 20.154H29.399C24.314 64.957 21.177 57.846 21.177 50s3.137-14.957 8.222-20.154z" style="fill: rgb(132, 155, 135);"></path>
        </g>
      </g>
      <g class="ldl-layer">
        <g class="ldl-ani" style="transform: scale(0.91); transform-origin: 50px 50px; animation: 1.11111s linear -1.11111s infinite normal forwards running breath-073a2d2d-22c8-4b6d-8816-5a5faac1c4d3;">
          <path fill="#f5e6c8" d="M48.554 51.798c2.774.938 3.973 1.837 3.973 3.261 0 1.5-1.461 2.323-3.597 2.323-1.462 0-2.843-.283-4.053-.696-1.19-.406-2.477.249-2.789 1.467l-.045.176a2.162 2.162 0 0 0 1.411 2.596c1.304.428 2.887.732 4.501.804v1.725c0 1.014.822 1.836 1.836 1.836h.001a1.836 1.836 0 0 0 1.836-1.836v-1.987c4.309-.749 6.671-3.597 6.671-6.934 0-3.373-1.8-5.434-6.26-7.009-3.186-1.199-4.497-1.986-4.497-3.222 0-1.05.787-2.1 3.223-2.1 1.338 0 2.436.212 3.323.476 1.163.346 2.375-.374 2.677-1.549.299-1.166-.411-2.336-1.575-2.642-.928-.244-2.034-.422-3.375-.482v-1.461a1.836 1.836 0 1 0-3.672 0v1.724c-4.01.787-6.335 3.373-6.335 6.671-.001 3.636 2.736 5.51 6.746 6.859z" style="fill: rgb(245, 230, 200);"></path>
        </g>
      </g>
    </g>
  </g>
</svg>