<svg xmlns="http://www.w3.org/2000/svg" x="0px" y="0px" width="100" height="100" viewBox="0 0 100 100" style=" fill:#000000;">
  <path fill="#c7ede6" d="M88.494,55.791c0.299-0.614,0.563-1.259,0.792-1.935c2.622-7.739-1.343-17.008-9.693-19.245c-0.903-11.338-8.87-19.115-17.867-20.442c-10.298-1.519-19.733,5.023-22.872,15.422c-3.784-1.34-7.471-1.177-10.945,0.853c-1.576,0.729-3.018,1.805-4.312,3.22c-1.9,2.077-3.134,4.7-3.637,7.465c-0.745,0.117-1.477,0.235-2.167,0.482c-4.023,1.443-6.562,4.413-7.258,8.886c-0.434,2.785,0.441,5.564,0.929,6.687c1.927,4.436,6.396,6.952,10.936,6.286c0.226-0.033,0.554,0.069,0.749,0.232c0.24,7.091,3.683,13.362,8.848,16.944c8.287,5.748,18.949,3.977,25.675-3.905c2.882,2.948,6.313,4.38,10.342,3.86c4.006-0.517,7.117-2.728,9.387-6.322c1.048,0.282,2.043,0.689,3.071,0.801c4.025,0.44,7.294-1.161,9.692-4.78c0.918-1.385,1.786-3.181,1.786-6.328C91.95,60.727,90.662,57.772,88.494,55.791z"></path>
  <path fill="#fdfcef" d="M79.641,64.508c0,0,11.643,0,11.714,0c2.689,0,4.868-2.18,4.868-4.869c0-2.346-1.659-4.303-3.868-4.765c0.025-0.205,0.043-0.413,0.043-0.625c0-2.785-2.257-5.042-5.042-5.042c-1.644,0-3.1,0.791-4.02,2.008c-0.235-3.1-3.004-5.491-6.244-5.095c-2.369,0.29-4.328,2.121-4.764,4.467c-0.14,0.752-0.125,1.483,0.014,2.168c-0.635-0.684-1.539-1.115-2.546-1.115c-1.843,0-3.347,1.435-3.466,3.248c-0.837-0.185-1.747-0.173-2.706,0.187c-1.832,0.688-3.137,2.413-3.214,4.369c-0.108,2.778,2.111,5.064,4.864,5.064c0.209,0,0.944,0,1.114,0h10.109"></path>
  <path fill="#472b29" d="M91.355,65.007H79.641c-0.276,0-0.5-0.224-0.5-0.5s0.224-0.5,0.5-0.5h11.714c2.408,0,4.368-1.96,4.368-4.368c0-2.057-1.46-3.854-3.471-4.275c-0.254-0.053-0.426-0.293-0.394-0.551c0.022-0.185,0.039-0.372,0.039-0.564c0-2.505-2.037-4.542-4.542-4.542c-1.433,0-2.753,0.66-3.621,1.811c-0.126,0.166-0.344,0.236-0.54,0.178c-0.2-0.059-0.342-0.234-0.358-0.441c-0.104-1.372-0.775-2.659-1.842-3.534c-1.078-0.883-2.438-1.275-3.843-1.104c-2.155,0.264-3.938,1.935-4.334,4.063c-0.123,0.663-0.118,1.329,0.014,1.977c0.045,0.22-0.062,0.442-0.262,0.544c-0.197,0.104-0.442,0.061-0.595-0.104c-0.571-0.615-1.346-0.954-2.18-0.954c-1.562,0-2.865,1.221-2.967,2.779c-0.01,0.146-0.082,0.28-0.198,0.367c-0.118,0.089-0.27,0.118-0.408,0.089c-0.841-0.186-1.631-0.13-2.423,0.167c-1.661,0.623-2.822,2.199-2.89,3.92c-0.047,1.201,0.385,2.339,1.216,3.203s1.95,1.341,3.149,1.341h11.223c0.276,0,0.5,0.224,0.5,0.5s-0.224,0.5-0.5,0.5H65.275c-1.474,0-2.849-0.585-3.87-1.647c-1.021-1.062-1.553-2.46-1.495-3.936c0.084-2.118,1.506-4.054,3.538-4.816c0.797-0.3,1.622-0.398,2.457-0.299c0.376-1.814,1.989-3.168,3.891-3.168c0.681,0,1.347,0.178,1.934,0.506c-0.001-0.383,0.035-0.767,0.106-1.15c0.475-2.553,2.611-4.557,5.195-4.873c1.671-0.206,3.307,0.265,4.598,1.322c0.999,0.819,1.709,1.942,2.03,3.179c1.008-0.911,2.309-1.418,3.697-1.418c3.056,0,5.542,2.486,5.542,5.542c0,0.083-0.002,0.165-0.007,0.246c2.245,0.672,3.832,2.768,3.832,5.145C96.723,62.599,94.315,65.007,91.355,65.007z"></path>
  <path fill="#fdfcef" d="M76.82,53.783c-1.801-0.118-3.351,1.126-3.462,2.778c-0.014,0.205-0.005,0.407,0.025,0.604c-0.347-0.392-0.862-0.659-1.452-0.697c-1.08-0.071-2.013,0.643-2.149,1.613c-0.197-0.054-0.401-0.09-0.614-0.104c-1.576-0.103-2.932,0.985-3.029,2.431"></path>
  <path fill="#472b29" d="M66.139,60.657c-0.006,0-0.011,0-0.017-0.001c-0.138-0.009-0.242-0.128-0.232-0.266c0.105-1.58,1.565-2.767,3.295-2.663c0.136,0.009,0.271,0.026,0.405,0.053c0.273-0.964,1.252-1.638,2.357-1.562c0.417,0.027,0.817,0.161,1.156,0.382c0.001-0.019,0.002-0.037,0.004-0.056c0.119-1.787,1.773-3.151,3.729-3.011c0.138,0.009,0.242,0.128,0.232,0.266c-0.008,0.137-0.104,0.263-0.266,0.232c-1.659-0.093-3.095,1.034-3.197,2.546c-0.012,0.181-0.004,0.366,0.023,0.55c0.017,0.109-0.041,0.217-0.142,0.264c-0.102,0.045-0.22,0.022-0.293-0.062c-0.314-0.356-0.781-0.58-1.28-0.613c-0.946-0.062-1.767,0.553-1.885,1.398c-0.011,0.071-0.051,0.135-0.11,0.175s-0.134,0.05-0.204,0.032c-0.186-0.051-0.375-0.083-0.564-0.097c-1.436-0.087-2.675,0.893-2.763,2.198C66.38,60.555,66.27,60.657,66.139,60.657z"></path>
  <path fill="#fdfcef" d="M93.326,55.445c-1.692-0.798-3.649-0.233-4.371,1.262c-0.09,0.186-0.156,0.377-0.2,0.571"></path>
  <path fill="#472b29" d="M88.756,57.528c-0.018,0-0.036-0.002-0.055-0.006c-0.135-0.03-0.22-0.165-0.189-0.299c0.049-0.214,0.122-0.424,0.218-0.625c0.781-1.614,2.89-2.235,4.703-1.38c0.125,0.06,0.179,0.208,0.12,0.333c-0.06,0.126-0.211,0.176-0.333,0.12c-1.565-0.74-3.378-0.226-4.04,1.144c-0.079,0.167-0.14,0.341-0.18,0.518C88.973,57.449,88.87,57.528,88.756,57.528z"></path>
  <path fill="#fff" d="M18.448 47.861H8.459c-.276 0-.5-.224-.5-.5s.224-.5.5-.5h9.989c.276 0 .5.224.5.5S18.724 47.861 18.448 47.861zM21.317 47.861h-1.439c-.276 0-.5-.224-.5-.5s.224-.5.5-.5h1.439c.276 0 .5.224.5.5S21.593 47.861 21.317 47.861zM25.355 47.861h-2.536c-.276 0-.5-.224-.5-.5s.224-.5.5-.5h2.536c.276 0 .5.224.5.5S25.631 47.861 25.355 47.861zM25.355 49.718h-9.577c-.276 0-.5-.224-.5-.5s.224-.5.5-.5h9.577c.276 0 .5.224.5.5S25.631 49.718 25.355 49.718zM14.053 49.718h-.577c-.276 0-.5-.224-.5-.5s.224-.5.5-.5h.577c.276 0 .5.224.5.5S14.33 49.718 14.053 49.718zM11.686 49.718h-1.45c-.276 0-.5-.224-.5-.5s.224-.5.5-.5h1.45c.276 0 .5.224.5.5S11.963 49.718 11.686 49.718zM20.785 46.004h-5.007c-.276 0-.5-.224-.5-.5s.224-.5.5-.5h5.007c.276 0 .5.224.5.5S21.061 46.004 20.785 46.004zM20.785 44.146h-1.252c-.276 0-.5-.224-.5-.5s.224-.5.5-.5h1.252c.276 0 .5.224.5.5S21.061 44.146 20.785 44.146zM17.53 51.576h-1.752c-.276 0-.5-.224-.5-.5s.224-.5.5-.5h1.752c.276 0 .5.224.5.5S17.806 51.576 17.53 51.576zM71.408 21.692h-9.989c-.276 0-.5-.224-.5-.5s.224-.5.5-.5h9.989c.276 0 .5.224.5.5S71.684 21.692 71.408 21.692zM74.277 21.692h-1.44c-.276 0-.5-.224-.5-.5s.224-.5.5-.5h1.44c.276 0 .5.224.5.5S74.553 21.692 74.277 21.692zM78.315 21.692h-2.536c-.276 0-.5-.224-.5-.5s.224-.5.5-.5h2.536c.276 0 .5.224.5.5S78.591 21.692 78.315 21.692zM76.298 17.977H66.72c-.276 0-.5-.224-.5-.5s.224-.5.5-.5h9.577c.276 0 .5.224.5.5S76.574 17.977 76.298 17.977zM64.996 17.977h-.577c-.276 0-.5-.224-.5-.5s.224-.5.5-.5h.577c.276 0 .5.224.5.5S65.272 17.977 64.996 17.977zM62.629 17.977h-1.45c-.276 0-.5-.224-.5-.5s.224-.5.5-.5h1.45c.276 0 .5.224.5.5S62.905 17.977 62.629 17.977zM73.745 19.835h-5.007c-.276 0-.5-.224-.5-.5s.224-.5.5-.5h5.007c.276 0 .5.224.5.5S74.021 19.835 73.745 19.835z"></path>
  <path fill="#fff" d="M73.745 17.977h-1.252c-.276 0-.5-.224-.5-.5s.224-.5.5-.5h1.252c.276 0 .5.224.5.5S74.021 17.977 73.745 17.977zM67.289 19.835h-1.752c-.276 0-.5-.224-.5-.5s.224-.5.5-.5h1.752c.276 0 .5.224.5.5S67.565 19.835 67.289 19.835z"></path>
  <path fill="#fdfcef" d="M34.226,70.883c1.876,0,3.502,0,3.526,0c2.101,0,3.805-1.667,3.805-3.724c0-1.794-1.297-3.292-3.023-3.645c0.02-0.157,0.033-0.316,0.033-0.478c0-2.13-1.764-3.857-3.941-3.857c-1.285,0-2.423,0.605-3.142,1.536c-0.184-2.371-2.348-4.2-4.88-3.897c-1.851,0.222-3.383,1.622-3.723,3.417c-0.109,0.576-0.098,1.134,0.011,1.659c-0.496-0.523-1.203-0.853-1.99-0.853c-1.44,0-2.616,1.097-2.709,2.484c-0.654-0.142-1.365-0.132-2.115,0.143c-1.432,0.526-2.452,1.846-2.512,3.342c-0.085,2.125,1.65,3.873,3.802,3.873c0.163,0,0.738,0,0.87,0h7.901 M27.775,70.883h0.358"></path>
  <path fill="#472b29" d="M37.752,71.382h-3.525c-0.276,0-0.5-0.224-0.5-0.5s0.224-0.5,0.5-0.5h3.525c1.822,0,3.305-1.446,3.305-3.224c0-1.518-1.103-2.844-2.622-3.154c-0.256-0.053-0.429-0.293-0.396-0.552c0.017-0.137,0.029-0.275,0.029-0.417c0-1.852-1.543-3.357-3.44-3.357c-1.086,0-2.088,0.489-2.747,1.342c-0.127,0.164-0.339,0.23-0.539,0.174c-0.198-0.06-0.339-0.234-0.354-0.44c-0.079-1.015-0.563-1.935-1.363-2.591c-0.824-0.677-1.872-0.979-2.959-0.849c-1.639,0.196-2.992,1.436-3.292,3.015c-0.094,0.49-0.09,0.982,0.009,1.463c0.046,0.219-0.06,0.441-0.258,0.545c-0.196,0.103-0.439,0.063-0.595-0.1c-0.426-0.449-1.003-0.696-1.626-0.696c-1.164,0-2.135,0.887-2.21,2.018c-0.01,0.146-0.082,0.278-0.198,0.366c-0.117,0.087-0.263,0.122-0.406,0.089c-0.635-0.137-1.236-0.098-1.836,0.124c-1.257,0.461-2.135,1.623-2.185,2.892c-0.035,0.871,0.281,1.7,0.89,2.334c0.632,0.657,1.488,1.02,2.412,1.02h8.771c0.276,0,0.5,0.224,0.5,0.5s-0.224,0.5-0.5,0.5h-8.771c-1.181,0-2.323-0.483-3.133-1.327c-0.8-0.831-1.214-1.92-1.169-3.065c0.066-1.669,1.208-3.192,2.839-3.792c0.608-0.223,1.235-0.302,1.872-0.243c0.344-1.39,1.623-2.414,3.124-2.414c0.49,0,0.971,0.112,1.405,0.32c0.009-0.239,0.036-0.479,0.082-0.72c0.38-2.001,2.089-3.572,4.155-3.819c1.36-0.167,2.675,0.216,3.712,1.067c0.732,0.601,1.267,1.405,1.537,2.293c0.789-0.646,1.78-1.004,2.833-1.004c2.448,0,4.44,1.955,4.44,4.357c0,0.033-0.001,0.067-0.001,0.101c1.757,0.553,2.99,2.18,2.99,4.022C42.056,69.488,40.126,71.382,37.752,71.382z M28.133,71.382h-0.358c-0.276,0-0.5-0.224-0.5-0.5s0.224-0.5,0.5-0.5h0.358c0.276,0,0.5,0.224,0.5,0.5S28.41,71.382,28.133,71.382z"></path>
  <path fill="#472b29" d="M36.051 65.602c-.018 0-.036-.002-.055-.006-.135-.03-.22-.164-.189-.299.037-.165.094-.325.168-.477.604-1.22 2.269-1.672 3.708-1.003.126.058.181.206.122.331-.058.126-.209.18-.331.122-1.198-.552-2.566-.209-3.05.771-.058.116-.101.238-.129.365C36.269 65.523 36.166 65.602 36.051 65.602zM30.914 71.382h-1.103c-.276 0-.5-.224-.5-.5s.224-.5.5-.5h1.103c.276 0 .5.224.5.5S31.19 71.382 30.914 71.382z"></path>
  <path fill="#fdfcee" d="M75.13,61.455V34.686c0-2.283-1.525-4.151-3.389-4.151H33.328c-1.864,0-3.389,1.868-3.389,4.151v26.769"></path>
  <path fill="#472b29" d="M29.939,62.156c-0.387,0-0.7-0.313-0.7-0.7v-26.77c0-2.675,1.834-4.852,4.089-4.852H71.74c2.255,0,4.09,2.177,4.09,4.852v2.329c0,0.387-0.313,0.7-0.7,0.7s-0.7-0.313-0.7-0.7v-2.329c0-1.903-1.206-3.451-2.689-3.451H33.328c-1.482,0-2.688,1.548-2.688,3.451v26.77C30.639,61.842,30.326,62.156,29.939,62.156z"></path>
  <path fill="#c0e5e4" d="M72.751 37.45L72.751 59.077 32.912 59.077 32.912 56.324 32.912 47.673 32.912 34.697 71.897 34.697 72.751 34.697z"></path>
  <path fill="#cdcbbd" d="M27.56,61.455v1.784c0,1.635,1.686,2.973,3.746,2.973h42.456c2.06,0,3.746-1.338,3.746-2.973v-1.784H27.56z"></path>
  <path fill="#472b29" d="M73.762 66.913H31.306c-2.451 0-4.446-1.648-4.446-3.674v-1.783c0-.387.313-.7.7-.7h49.948c.387 0 .7.313.7.7v1.783C78.209 65.264 76.214 66.913 73.762 66.913zM28.26 62.156v1.083c0 1.232 1.395 2.273 3.046 2.273h42.456c1.651 0 3.046-1.041 3.046-2.273v-1.083H28.26zM72.454 59.129H32.615c-.193 0-.35-.156-.35-.35v-2.379c0-.193.156-.35.35-.35s.35.156.35.35v2.029h39.14V40.999c0-.193.156-.35.35-.35s.35.156.35.35V58.78C72.803 58.973 72.647 59.129 72.454 59.129zM32.615 50.804c-.193 0-.35-.156-.35-.35V34.4c0-.193.156-.35.35-.35h39.839c.193 0 .35.156.35.35s-.156.35-.35.35H32.965v15.705C32.965 50.648 32.808 50.804 32.615 50.804zM32.615 54.966c-.193 0-.35-.156-.35-.35v-2.378c0-.193.156-.35.35-.35s.35.156.35.35v2.378C32.965 54.81 32.808 54.966 32.615 54.966zM52.721 32.914h-1.189c-.164 0-.297-.134-.297-.297l0 0c0-.164.134-.297.297-.297h1.189c.164 0 .297.134.297.297l0 0C53.018 32.78 52.884 32.914 52.721 32.914z"></path>
  <path fill="#472b29" d="M54.505,64.428h-4.162c-0.164,0-0.297-0.134-0.297-0.297l0,0c0-0.164,0.134-0.297,0.297-0.297h4.162c0.164,0,0.297,0.134,0.297,0.297l0,0C54.802,64.294,54.668,64.428,54.505,64.428z"></path>
  <path fill="#88ae45" d="M61.406,38.152c0.64-0.162,1.296,0.229,1.39,0.601l2.596,10.262c0.23,0.908-0.162,1.564-0.801,1.726l-20.44,5.17c-0.374,0.095-0.753,0-1.036-0.222"></path>
  <path fill="#472b29" d="M43.856,56.198c-0.32,0-0.634-0.107-0.896-0.312c-0.108-0.086-0.128-0.242-0.043-0.352c0.085-0.108,0.241-0.127,0.352-0.043c0.235,0.185,0.534,0.25,0.82,0.177l20.439-5.17c0.551-0.14,0.801-0.711,0.621-1.422l-2.596-10.262c-0.018-0.07-0.101-0.189-0.276-0.294c-0.245-0.146-0.549-0.193-0.81-0.127c-0.134,0.037-0.271-0.047-0.304-0.181c-0.034-0.134,0.047-0.27,0.181-0.304c0.392-0.099,0.827-0.033,1.188,0.182c0.265,0.157,0.448,0.377,0.505,0.601l2.596,10.262c0.249,0.985-0.154,1.819-0.982,2.029l-20.439,5.17C44.094,56.183,43.974,56.198,43.856,56.198z"></path>
  <path fill="#c0d078" d="M62.235,49.824l-19.262,4.872c-0.956,0.242-1.937-0.343-2.179-1.299l-2.284-9.029c-0.242-0.956,0.343-1.937,1.299-2.179l19.262-4.872c0.956-0.242,1.937,0.343,2.179,1.299l2.284,9.029C63.776,48.602,63.191,49.582,62.235,49.824z"></path>
  <path fill="#472b29" d="M42.533,55.077c-0.377,0-0.75-0.103-1.084-0.302c-0.487-0.29-0.832-0.752-0.97-1.299l-2.284-9.027c-0.138-0.547-0.055-1.117,0.236-1.604s0.752-0.831,1.299-0.97l19.261-4.872c1.137-0.288,2.287,0.402,2.574,1.534l2.284,9.029c0.138,0.547,0.054,1.116-0.236,1.604c-0.291,0.487-0.752,0.831-1.298,0.97l-19.263,4.873C42.881,55.055,42.706,55.077,42.533,55.077z M59.51,37.588c-0.119,0-0.239,0.014-0.359,0.045l-19.262,4.872c-0.379,0.095-0.698,0.334-0.899,0.672c-0.202,0.338-0.26,0.733-0.164,1.111l2.284,9.028c0.095,0.379,0.334,0.698,0.672,0.9c0.339,0.203,0.732,0.26,1.111,0.164l19.262-4.873h0.001c0.378-0.095,0.697-0.334,0.898-0.672s0.26-0.732,0.164-1.111l-2.284-9.028C60.766,38.032,60.167,37.588,59.51,37.588z"></path>
  <path fill="#88ae45" d="M54.029,40.559l-12.611,3.19c0.197,0.782-0.232,1.565-0.959,1.749l1.513,5.98c0.728-0.184,1.478,0.301,1.675,1.083l16.978-4.294c-0.198-0.782,0.232-1.565,0.959-1.749l-1.513-5.98l0,0c-0.727,0.184-1.477-0.301-1.675-1.082l-1.525,0.386"></path>
  <path fill="#472b29" d="M43.647,52.711c-0.026,0-0.054-0.008-0.077-0.021c-0.034-0.021-0.059-0.054-0.068-0.092c-0.086-0.342-0.29-0.631-0.574-0.814c-0.281-0.184-0.609-0.239-0.918-0.16c-0.087,0.019-0.162-0.029-0.183-0.108l-1.513-5.979c-0.021-0.081,0.028-0.162,0.108-0.183c0.646-0.164,1.027-0.867,0.851-1.566c-0.02-0.081,0.028-0.162,0.108-0.183l12.61-3.189c0.083-0.021,0.162,0.029,0.183,0.108c0.021,0.081-0.028,0.162-0.108,0.183l-12.472,3.154c0.122,0.758-0.28,1.49-0.954,1.739l1.442,5.704c0.353-0.049,0.7,0.03,1.008,0.229c0.307,0.198,0.537,0.496,0.659,0.849l16.7-4.225c-0.062-0.386,0.01-0.783,0.205-1.109c0.176-0.297,0.438-0.517,0.749-0.63l-1.442-5.704c-0.718,0.098-1.415-0.352-1.668-1.077l-1.385,0.351c-0.089,0.019-0.162-0.03-0.183-0.108c-0.021-0.081,0.028-0.162,0.108-0.183l1.524-0.386c0.083-0.023,0.162,0.029,0.183,0.108c0.177,0.7,0.852,1.141,1.493,0.975c0.084-0.021,0.161,0.029,0.183,0.108l1.513,5.979c0.01,0.039,0.004,0.08-0.017,0.114s-0.054,0.059-0.092,0.068c-0.296,0.074-0.548,0.266-0.71,0.537c-0.179,0.301-0.23,0.676-0.141,1.029c0.01,0.039,0.004,0.08-0.017,0.114s-0.054,0.059-0.092,0.068l-16.979,4.295C43.672,52.709,43.66,52.711,43.647,52.711z"></path>
  <path fill="#88ae45" d="M54.882 40.343L54.598 40.415"></path>
  <path fill="#472b29" d="M54.597,40.565c-0.067,0-0.128-0.046-0.146-0.114c-0.021-0.08,0.028-0.161,0.109-0.182l0.284-0.071c0.076-0.022,0.161,0.029,0.182,0.109s-0.028,0.161-0.109,0.182l-0.284,0.071C54.622,40.563,54.609,40.565,54.597,40.565z"></path>
  <path fill="#c0d078" d="M51.022 43.221999999999994A2.785 2.785 0 1 0 51.022 48.792A2.785 2.785 0 1 0 51.022 43.221999999999994Z" transform="rotate(-14.193 51.027 46.01)"></path>
  <path fill="#472b29" d="M51.017,48.944c-0.523,0-1.038-0.141-1.499-0.416c-0.673-0.401-1.149-1.041-1.342-1.801c-0.396-1.569,0.557-3.169,2.125-3.565c0.762-0.192,1.551-0.077,2.224,0.324c0.674,0.401,1.15,1.041,1.343,1.801c0.396,1.569-0.558,3.169-2.126,3.566C51.502,48.914,51.258,48.944,51.017,48.944z M51.027,43.371c-0.217,0-0.436,0.027-0.651,0.082c-0.683,0.173-1.257,0.601-1.617,1.205c-0.36,0.604-0.464,1.313-0.291,1.995c0.356,1.41,1.794,2.263,3.2,1.909c1.409-0.356,2.266-1.793,1.909-3.201c-0.173-0.683-0.601-1.257-1.205-1.617C51.959,43.497,51.497,43.371,51.027,43.371z"></path>
  <path fill="#c0d078" d="M45.728 46.315A0.88 0.88 0 1 0 45.728 48.075A0.88 0.88 0 1 0 45.728 46.315Z" transform="rotate(-14.193 45.732 47.198)"></path>
  <path fill="#472b29" d="M45.727,48.224c-0.46,0-0.88-0.311-0.998-0.776c-0.067-0.267-0.027-0.544,0.114-0.78c0.141-0.236,0.365-0.403,0.632-0.471c0.555-0.142,1.111,0.195,1.251,0.745c0.067,0.267,0.027,0.544-0.114,0.78c-0.141,0.236-0.365,0.403-0.632,0.471C45.895,48.214,45.81,48.224,45.727,48.224z M45.728,46.465c-0.06,0-0.119,0.007-0.179,0.022c-0.189,0.048-0.349,0.166-0.448,0.334c-0.101,0.167-0.129,0.363-0.081,0.552c0.098,0.391,0.501,0.63,0.886,0.528c0.189-0.048,0.349-0.166,0.448-0.334c0.101-0.167,0.129-0.363,0.081-0.552C46.352,46.686,46.054,46.465,45.728,46.465z"></path>
  <path fill="#c0d078" d="M56.245 43.654999999999994A0.88 0.88 0 1 0 56.245 45.415A0.88 0.88 0 1 0 56.245 43.654999999999994Z" transform="rotate(-14.193 56.25 44.538)"></path>
  <path fill="#472b29" d="M56.245,45.564c-0.46,0-0.88-0.311-0.998-0.776c-0.14-0.551,0.195-1.111,0.745-1.251c0.557-0.143,1.111,0.195,1.251,0.745c0.14,0.551-0.195,1.111-0.745,1.251C56.413,45.554,56.329,45.564,56.245,45.564z M56.245,43.805c-0.06,0-0.119,0.007-0.179,0.022c-0.391,0.099-0.627,0.496-0.528,0.886c0.099,0.391,0.5,0.631,0.886,0.528c0.391-0.099,0.627-0.496,0.528-0.886C56.869,44.026,56.571,43.805,56.245,43.805z"></path>
  <path fill="#f1bc19" d="M68.176,65.596v2.977c0,0.818,3.953,1.482,8.829,1.482s8.829-0.663,8.829-1.482v-2.977H68.176z"></path>
  <path fill="#472b29" d="M77.006,70.429c-0.942,0-9.205-0.052-9.205-1.856v-2.978c0-0.207,0.168-0.375,0.375-0.375h17.659c0.207,0,0.375,0.168,0.375,0.375v2.978C86.21,70.378,77.948,70.429,77.006,70.429z M68.55,65.97v2.603c0.212,0.346,3.003,1.106,8.455,1.106c5.451,0,8.242-0.761,8.463-1.149l-0.008-2.56H68.55z"></path>
  <path fill="#ffd683" d="M77.005 64.12A8.829 1.482 0 1 0 77.005 67.084A8.829 1.482 0 1 0 77.005 64.12Z"></path>
  <path fill="#472b29" d="M77.006,67.46c-0.942,0-9.205-0.052-9.205-1.857c0-1.805,8.263-1.856,9.205-1.856s9.204,0.052,9.204,1.856C86.21,67.408,77.948,67.46,77.006,67.46z M77.006,64.496c-5.452,0-8.243,0.761-8.464,1.149c0.221,0.303,3.012,1.064,8.464,1.064c5.257,0,8.04-0.708,8.43-1.107C85.046,65.204,82.262,64.496,77.006,64.496z M85.468,65.645h0.01H85.468z"></path>
  <path fill="#f1bc19" d="M68.176,60.675v2.977c0,0.818,3.953,1.482,8.829,1.482c4.876,0,8.829-0.663,8.829-1.482v-2.977H68.176z"></path>
  <path fill="#472b29" d="M77.006,65.508c-0.942,0-9.205-0.052-9.205-1.856v-2.977c0-0.207,0.168-0.375,0.375-0.375h17.659c0.207,0,0.375,0.168,0.375,0.375v2.977C86.21,65.457,77.948,65.508,77.006,65.508z M68.55,61.05v2.602c0.212,0.346,3.003,1.106,8.455,1.106c5.451,0,8.242-0.761,8.463-1.149l-0.008-2.559H68.55z"></path>
  <path fill="#ffd683" d="M77.005 59.2A8.829 1.482 0 1 0 77.005 62.164A8.829 1.482 0 1 0 77.005 59.2Z"></path>
  <path fill="#472b29" d="M77.006,62.539c-0.942,0-9.205-0.052-9.205-1.857c0-1.805,8.263-1.856,9.205-1.856s9.204,0.052,9.204,1.856C86.21,62.487,77.948,62.539,77.006,62.539z M77.006,59.575c-5.452,0-8.243,0.761-8.464,1.149c0.221,0.303,3.012,1.064,8.464,1.064c5.257,0,8.04-0.708,8.43-1.107C85.046,60.283,82.262,59.575,77.006,59.575z M85.468,60.724h0.01H85.468z"></path>
  <path fill="#f1bc19" d="M68.176,55.754v2.977c0,0.818,3.953,1.482,8.829,1.482c4.876,0,8.829-0.663,8.829-1.482v-2.977H68.176z"></path>
  <path fill="#472b29" d="M77.006,60.588c-0.942,0-9.205-0.052-9.205-1.857v-2.977c0-0.207,0.168-0.375,0.375-0.375h17.659c0.207,0,0.375,0.168,0.375,0.375v2.977C86.21,60.537,77.948,60.588,77.006,60.588z M68.55,56.129v2.602c0.212,0.346,3.003,1.107,8.455,1.107c5.451,0,8.242-0.762,8.463-1.15l-0.008-2.559H68.55z"></path>
  <path fill="#ffd683" d="M77.005 54.279A8.829 1.482 0 1 0 77.005 57.243A8.829 1.482 0 1 0 77.005 54.279Z"></path>
  <path fill="#472b29" d="M77.006,57.618c-0.942,0-9.205-0.052-9.205-1.856c0-1.806,8.263-1.857,9.205-1.857s9.204,0.052,9.204,1.857C86.21,57.566,77.948,57.618,77.006,57.618z M77.006,54.654c-5.452,0-8.243,0.762-8.464,1.15c0.221,0.303,3.012,1.063,8.464,1.063c5.257,0,8.04-0.708,8.43-1.106C85.046,55.362,82.262,54.654,77.006,54.654z M85.468,55.804h0.01H85.468z"></path>
  <path fill="#f1bc19" d="M68.176,50.834v2.977c0,0.818,3.953,1.482,8.829,1.482s8.829-0.663,8.829-1.482v-2.977H68.176z"></path>
  <path fill="#472b29" d="M77.006,55.668c-0.942,0-9.205-0.052-9.205-1.857v-2.977c0-0.207,0.168-0.375,0.375-0.375h17.659c0.207,0,0.375,0.168,0.375,0.375v2.977C86.21,55.616,77.948,55.668,77.006,55.668z M68.55,51.209v2.602c0.212,0.346,3.003,1.107,8.455,1.107c5.451,0,8.242-0.762,8.463-1.15l-0.008-2.559H68.55z"></path>
  <g>
    <path fill="#ffd683" d="M77.005 49.358000000000004A8.829 1.482 0 1 0 77.005 52.322A8.829 1.482 0 1 0 77.005 49.358000000000004Z"></path>
    <path fill="#472b29" d="M77.006,52.697c-0.942,0-9.205-0.052-9.205-1.856c0-1.806,8.263-1.857,9.205-1.857s9.204,0.052,9.204,1.857C86.21,52.645,77.948,52.697,77.006,52.697z M77.006,49.733c-5.452,0-8.243,0.762-8.464,1.15c0.221,0.303,3.012,1.063,8.464,1.063c5.257,0,8.04-0.708,8.43-1.106C85.046,50.441,82.262,49.733,77.006,49.733z M85.468,50.883h0.01H85.468z"></path>
  </g>
  <g>
    <path fill="#f1bc19" d="M59.839,67.519v2.977c0,0.818,3.953,1.482,8.829,1.482s8.829-0.663,8.829-1.482v-2.977H59.839z"></path>
    <path fill="#472b29" d="M68.669,72.352c-0.942,0-9.204-0.052-9.204-1.856v-2.978c0-0.207,0.168-0.375,0.375-0.375h17.658c0.207,0,0.375,0.168,0.375,0.375v2.978C77.873,72.3,69.611,72.352,68.669,72.352z M60.215,67.893v2.603c0.212,0.346,3.003,1.106,8.454,1.106s8.242-0.761,8.463-1.149l-0.008-2.56H60.215z"></path>
    <g>
      <path fill="#ffd683" d="M68.669 66.043A8.829 1.482 0 1 0 68.669 69.007A8.829 1.482 0 1 0 68.669 66.043Z"></path>
      <path fill="#472b29" d="M68.669,69.382c-0.942,0-9.204-0.052-9.204-1.857c0-1.805,8.262-1.856,9.204-1.856s9.204,0.052,9.204,1.856C77.873,69.331,69.611,69.382,68.669,69.382z M68.669,66.419c-5.451,0-8.242,0.761-8.463,1.149c0.221,0.303,3.012,1.064,8.463,1.064c5.257,0,8.04-0.708,8.43-1.107C76.709,67.127,73.925,66.419,68.669,66.419z M77.132,67.568h0.01H77.132z"></path>
    </g>
  </g>
  <g>
    <path fill="#f1bc19" d="M59.839,62.597v2.977c0,0.818,3.953,1.482,8.829,1.482s8.829-0.663,8.829-1.482v-2.977H59.839z"></path>
    <path fill="#472b29" d="M68.669,67.43c-0.942,0-9.204-0.052-9.204-1.856v-2.978c0-0.207,0.168-0.375,0.375-0.375h17.658c0.207,0,0.375,0.168,0.375,0.375v2.978C77.873,67.379,69.611,67.43,68.669,67.43z M60.215,62.971v2.603c0.212,0.346,3.003,1.106,8.454,1.106s8.242-0.761,8.463-1.149l-0.008-2.56H60.215z"></path>
    <g>
      <path fill="#ffd683" d="M68.669 61.121A8.829 1.482 0 1 0 68.669 64.08500000000001A8.829 1.482 0 1 0 68.669 61.121Z"></path>
      <path fill="#472b29" d="M68.669,64.461c-0.942,0-9.204-0.052-9.204-1.857c0-1.805,8.262-1.856,9.204-1.856s9.204,0.052,9.204,1.856C77.873,64.409,69.611,64.461,68.669,64.461z M68.669,61.497c-5.451,0-8.242,0.761-8.463,1.149c0.221,0.303,3.012,1.064,8.463,1.064c5.257,0,8.04-0.708,8.43-1.107C76.709,62.205,73.925,61.497,68.669,61.497z M77.132,62.646h0.01H77.132z"></path>
    </g>
  </g>
  <g>
    <path fill="#f1bc19" d="M59.839,57.905v2.977c0,0.818,3.953,1.482,8.829,1.482s8.829-0.663,8.829-1.482v-2.977H59.839z"></path>
    <path fill="#472b29" d="M68.669,62.739c-0.942,0-9.204-0.052-9.204-1.857v-2.977c0-0.207,0.168-0.375,0.375-0.375h17.658c0.207,0,0.375,0.168,0.375,0.375v2.977C77.873,62.687,69.611,62.739,68.669,62.739z M60.215,58.28v2.602c0.212,0.346,3.003,1.107,8.454,1.107s8.242-0.762,8.463-1.15l-0.008-2.559H60.215z"></path>
    <g>
      <path fill="#ffd683" d="M68.669 56.429A8.829 1.482 0 1 0 68.669 59.393A8.829 1.482 0 1 0 68.669 56.429Z"></path>
      <path fill="#472b29" d="M68.669,59.768c-0.942,0-9.204-0.052-9.204-1.856c0-1.806,8.262-1.857,9.204-1.857s9.204,0.052,9.204,1.857C77.873,59.716,69.611,59.768,68.669,59.768z M68.669,56.804c-5.452,0-8.242,0.762-8.463,1.15c0.221,0.303,3.012,1.063,8.463,1.063c5.258,0,8.04-0.708,8.43-1.106C76.71,57.512,73.927,56.804,68.669,56.804z M77.132,57.955h0.009H77.132z"></path>
    </g>
  </g>
  <g>
    <path fill="#f1bc19" d="M68.176,45.913v2.977c0,0.818,3.953,1.482,8.829,1.482s8.829-0.663,8.829-1.482v-2.977H68.176z"></path>
    <path fill="#472b29" d="M77.006,50.747c-0.942,0-9.205-0.052-9.205-1.856v-2.978c0-0.207,0.168-0.375,0.375-0.375h17.659c0.207,0,0.375,0.168,0.375,0.375v2.978C86.21,50.695,77.948,50.747,77.006,50.747z M68.55,46.288v2.603c0.212,0.346,3.003,1.106,8.455,1.106c5.451,0,8.242-0.761,8.463-1.149l-0.008-2.56H68.55z"></path>
    <g>
      <path fill="#ffd683" d="M77.005 44.437A8.829 1.482 0 1 0 77.005 47.400999999999996A8.829 1.482 0 1 0 77.005 44.437Z"></path>
      <path fill="#472b29" d="M77.006,47.776c-0.942,0-9.205-0.052-9.205-1.856s8.263-1.856,9.205-1.856s9.204,0.052,9.204,1.856S77.948,47.776,77.006,47.776z M77.006,44.813c-5.452,0-8.243,0.761-8.464,1.149c0.221,0.303,3.012,1.063,8.464,1.063c5.257,0,8.04-0.708,8.43-1.106C85.046,45.521,82.262,44.813,77.006,44.813z M85.468,45.962h0.01H85.468z"></path>
    </g>
  </g>
  <g>
    <path fill="#f1bc19" d="M68.176,40.992v2.977c0,0.818,3.953,1.482,8.829,1.482s8.829-0.663,8.829-1.482v-2.977H68.176z"></path>
    <path fill="#472b29" d="M77.006,45.826c-0.942,0-9.205-0.052-9.205-1.856v-2.978c0-0.207,0.168-0.375,0.375-0.375h17.659c0.207,0,0.375,0.168,0.375,0.375v2.978C86.21,45.774,77.948,45.826,77.006,45.826z M68.55,41.367v2.603c0.212,0.346,3.003,1.106,8.455,1.106c5.451,0,8.242-0.761,8.463-1.149l-0.008-2.56H68.55z"></path>
    <g>
      <path fill="#ffd683" d="M77.005 39.517A8.829 1.482 0 1 0 77.005 42.481A8.829 1.482 0 1 0 77.005 39.517Z"></path>
      <path fill="#472b29" d="M77.006,42.856c-0.942,0-9.205-0.052-9.205-1.857c0-1.805,8.263-1.856,9.205-1.856s9.204,0.052,9.204,1.856C86.21,42.804,77.948,42.856,77.006,42.856z M77.006,39.892c-5.452,0-8.243,0.761-8.464,1.149c0.221,0.303,3.012,1.064,8.464,1.064c5.257,0,8.04-0.708,8.43-1.107C85.046,40.6,82.262,39.892,77.006,39.892z M85.468,41.042h0.01H85.468z"></path>
    </g>
  </g>
</svg>