<!-- <svg xmlns="http://www.w3.org/2000/svg" x="0px" y="0px" width="40" height="40" viewBox="0 0 172 172" style=" fill:#000000;">
  <g fill="none" fill-rule="nonzero" stroke="none" stroke-width="none" stroke-linecap="none" stroke-linejoin="none" stroke-miterlimit="10" stroke-dasharray="" stroke-dashoffset="0" font-family="none" font-weight="none" font-size="none" text-anchor="none" style="mix-blend-mode: normal">
    <path d="M0,172v-172h172v172z" fill="none" stroke="none" stroke-width="1" stroke-linecap="butt" stroke-linejoin="miter"></path>
    <g stroke="none" stroke-width="1" stroke-linecap="butt" stroke-linejoin="miter">
      <path d="M21.5,144.05c-8.299,0 -15.05,-6.751 -15.05,-15.05v-86c0,-8.299 6.751,-15.05 15.05,-15.05h129c8.299,0 15.05,6.751 15.05,15.05v86c0,8.299 -6.751,15.05 -15.05,15.05z" fill="#98ccfd"></path>
      <path d="M150.5,30.1c7.1122,0 12.9,5.7878 12.9,12.9v86c0,7.1122 -5.7878,12.9 -12.9,12.9h-129c-7.1122,0 -12.9,-5.7878 -12.9,-12.9v-86c0,-7.1122 5.7878,-12.9 12.9,-12.9h129M150.5,25.8h-129c-9.4987,0 -17.2,7.7013 -17.2,17.2v86c0,9.4987 7.7013,17.2 17.2,17.2h129c9.4987,0 17.2,-7.7013 17.2,-17.2v-86c0,-9.4987 -7.7013,-17.2 -17.2,-17.2z" fill="#4788c7"></path>
      <path d="M111.8,47.3c-9.4993,0 -17.2,7.7007 -17.2,17.2c0,9.4993 7.7007,17.2 17.2,17.2c9.4993,0 17.2,-7.7007 17.2,-17.2c0,-9.4993 -7.7007,-17.2 -17.2,-17.2zM141.9,120.4c0,-16.6238 -13.4762,-30.1 -30.1,-30.1c-16.6238,0 -30.1,13.4762 -30.1,30.1z" fill="#ffffff"></path>
      <g fill="#4788c7">
        <path d="M34.4,98.9h30.1c2.3736,0 4.3,-1.9264 4.3,-4.3v-21.5c0,-2.3736 -1.9264,-4.3 -4.3,-4.3h-30.1c-2.3736,0 -4.3,1.9264 -4.3,4.3v21.5c0,2.3736 1.9264,4.3 4.3,4.3z"></path>
      </g>
    </g>
    <g stroke-width="2" stroke-linecap="round">
      <g id="Layer_1">
        <path d="M133.3,169.85c-20.21,0 -36.55,-16.34 -36.55,-36.55c0,-20.21 16.34,-36.55 36.55,-36.55c20.21,0 36.55,16.34 36.55,36.55c0,20.21 -16.34,36.55 -36.55,36.55z" fill="#98ccfd" stroke="#4788c7" stroke-linejoin="miter"></path>
        <path d="M133.3,98.9c18.92,0 34.4,15.48 34.4,34.4c0,18.92 -15.48,34.4 -34.4,34.4c-18.92,0 -34.4,-15.48 -34.4,-34.4c0,-18.92 15.48,-34.4 34.4,-34.4M133.3,94.6c-21.5,0 -38.7,17.2 -38.7,38.7c0,21.5 17.2,38.7 38.7,38.7c21.5,0 38.7,-17.2 38.7,-38.7c0,-21.5 -17.2,-38.7 -38.7,-38.7z" fill="#4788c7" stroke="#4788c7" stroke-linejoin="round"></path>
        <path d="M133.73,155.23c-1.72,0 -3.01,-0.43 -3.87,-1.29c-0.86,-0.86 -1.72,-2.15 -1.72,-3.44c0,-1.29 0.43,-2.58 1.72,-3.44c0.86,-0.86 2.58,-1.29 3.87,-1.29c1.72,0 3.01,0.43 3.87,1.29c0.86,0.86 1.72,2.15 1.72,3.44c0,1.29 -0.43,2.58 -1.72,3.44c-0.86,0.86 -2.15,1.29 -3.87,1.29zM138.46,111.37l-1.29,30.1h-7.31l-1.29,-30.1z" fill="#ffffff" stroke="#ffffff" stroke-linejoin="miter"></path>
      </g>
    </g>
    <path d="M94.6,172v-77.4h77.4v77.4z" id="overlay-drag" fill="#ff0000" stroke="none" stroke-width="1" stroke-linecap="butt" stroke-linejoin="miter" opacity="0"></path>
  </g>
</svg> -->
<svg xmlns="http://www.w3.org/2000/svg" x="0px" y="0px" width="64" height="64" viewBox="0 0 172 172" style=" fill:#000000;">
  <g fill="none" fill-rule="nonzero" stroke="none" stroke-width="1" stroke-linecap="butt" stroke-linejoin="miter" stroke-miterlimit="10" stroke-dasharray="" stroke-dashoffset="0" font-family="none" font-weight="none" font-size="none" text-anchor="none" style="mix-blend-mode: normal">
    <path d="M0,172v-172h172v172z" fill="none"></path>
    <g>
      <path d="M153.1875,149.15625v-94.0625c0,-7.39062 -6.04687,-13.4375 -13.4375,-13.4375h-107.5c-7.39062,0 -13.4375,6.04688 -13.4375,13.4375v94.0625h-13.4375v4.03125c0,7.39063 6.04688,13.4375 13.4375,13.4375h134.375c7.39063,0 13.4375,-6.04687 13.4375,-13.4375v-4.03125z" fill="#ffffff"></path>
      <path d="M153.1875,170.65625h-134.375c-9.675,0 -17.46875,-7.79375 -17.46875,-17.46875v-4.03125c0,-2.28438 1.74687,-4.03125 4.03125,-4.03125h60.46875c2.28437,0 4.03125,1.74687 4.03125,4.03125c0,2.28438 -1.74688,4.03125 -4.03125,4.03125h-56.4375c0,5.24062 4.16563,9.40625 9.40625,9.40625h134.375c5.24062,0 9.40625,-4.16563 9.40625,-9.40625v-4.03125c0,-2.28438 1.74687,-4.03125 4.03125,-4.03125c2.28438,0 4.03125,1.74687 4.03125,4.03125v4.03125c0,9.675 -7.79375,17.46875 -17.46875,17.46875zM18.8125,138.40625c-2.28438,0 -4.03125,-1.74687 -4.03125,-4.03125v-79.28125c0,-9.675 7.79375,-17.46875 17.46875,-17.46875h107.5c9.675,0 17.46875,7.79375 17.46875,17.46875v63.15625c0,2.28437 -1.74687,4.03125 -4.03125,4.03125c-2.28438,0 -4.03125,-1.74688 -4.03125,-4.03125v-63.15625c0,-5.24063 -4.16563,-9.40625 -9.40625,-9.40625h-107.5c-5.24062,0 -9.40625,4.16562 -9.40625,9.40625v79.28125c0,2.28438 -1.74687,4.03125 -4.03125,4.03125z" fill="#444b53"></path>
      <path d="M151.17188,142.975l-28.4875,-47.43437c-1.20938,-2.01562 -3.35937,-3.225 -5.77813,-3.225c-2.41875,0 -4.56875,1.20938 -5.77813,3.225l-28.4875,47.43438c-1.20937,2.15 -1.34375,4.56875 -0.13438,6.71875c1.20938,2.15 3.35938,3.35938 5.9125,3.35938h56.84063c2.41875,0 4.70313,-1.20938 5.9125,-3.35937c1.20937,-2.01562 1.20937,-4.56875 0,-6.71875z" fill="#fcca3d"></path>
      <path d="M116.90625,130.34375c-2.28437,0 -4.03125,-1.74687 -4.03125,-4.03125v-13.4375c0,-2.28437 1.74688,-4.03125 4.03125,-4.03125c2.28437,0 4.03125,1.74688 4.03125,4.03125v13.4375c0,2.28438 -1.74688,4.03125 -4.03125,4.03125zM116.90625,143.78125c-1.075,0 -2.15,-0.40312 -2.82187,-1.20937c-0.13437,-0.13438 -0.40313,-0.40313 -0.5375,-0.67187c-0.13437,-0.26875 -0.26875,-0.40313 -0.40313,-0.67187c-0.13437,-0.26875 -0.13437,-0.5375 -0.26875,-0.80625c0,-0.26875 -0.13437,-0.5375 -0.13437,-0.80625c0,-1.075 0.40312,-2.15 1.20938,-2.82187c1.47812,-1.47813 4.16562,-1.47813 5.64375,0c0.80625,0.80625 1.20938,1.74687 1.20938,2.82187c0,0.26875 0,0.5375 -0.13437,0.80625c0,0.26875 -0.13437,0.5375 -0.26875,0.80625c-0.13437,0.26875 -0.26875,0.5375 -0.40313,0.67188c-0.13437,0.26875 -0.26875,0.40312 -0.5375,0.67188c-0.40313,0.80625 -1.47813,1.20937 -2.55313,1.20937z" fill="#ffffff"></path>
    </g>
  </g>
</svg>