<svg xmlns="http://www.w3.org/2000/svg" viewBox="0 0 16 16" width="128px" height="128px"><path fill="#ffeea3" d="M1,14.5c-0.275,0-0.5-0.224-0.5-0.5c0-0.088,0.023-0.174,0.066-0.25 C0.616,13.665,7.53,1.812,7.565,1.752C7.656,1.596,7.822,1.5,8,1.5s0.344,0.096,0.434,0.25c0.036,0.062,6.95,11.915,7,12 C15.477,13.826,15.5,13.912,15.5,14c0,0.276-0.225,0.5-0.5,0.5H1z"/><path fill="#ba9b48" d="M8,2L8,2c0.012,0.02,1.634,2.802,3.315,5.682C13.11,10.759,14.971,13.95,15,14L0.999,14.002 c0.029-0.051,1.835-3.146,3.605-6.18C6.313,4.892,7.988,2.02,7.999,2L8,2 M8,1C7.63,1,7.307,1.201,7.134,1.5 c-0.023,0.04-6.975,11.956-7,12C0.049,13.647,0,13.818,0,14c0,0.552,0.448,1,1,1c0.463,0,13.537,0,14,0c0.552,0,1-0.448,1-1 c0-0.182-0.049-0.353-0.134-0.5c-0.025-0.044-6.977-11.96-7-12C8.693,1.201,8.37,1,8,1L8,1z"/><path fill="#36404d" d="M8 11.125A.875.875 0 1 0 8 12.875.875.875 0 1 0 8 11.125zM8.875 6.875C8.875 6.392 8.483 6 8 6S7.125 6.392 7.125 6.875c0 .424.382 2.712.384 2.722C7.555 9.827 7.757 10 8 10c.243 0 .445-.173.491-.403C8.493 9.587 8.875 7.299 8.875 6.875z"/></svg>