<svg xmlns="http://www.w3.org/2000/svg" x="0px" y="0px" width="40" height="40" viewBox="0 0 172 172" style=" fill:#000000;">
  <g fill="none" fill-rule="nonzero" stroke="none" stroke-width="none" stroke-linecap="none" stroke-linejoin="none" stroke-miterlimit="10" stroke-dasharray="" stroke-dashoffset="0" font-family="none" font-weight="none" font-size="none" text-anchor="none" style="mix-blend-mode: normal">
    <path d="M0,172v-172h172v172z" fill="none" stroke="none" stroke-width="1" stroke-linecap="butt" stroke-linejoin="miter"></path>
    <g stroke="none" stroke-width="1" stroke-linecap="butt" stroke-linejoin="miter">
      <path d="M21.5,144.05c-8.299,0 -15.05,-6.751 -15.05,-15.05v-86c0,-8.299 6.751,-15.05 15.05,-15.05h129c8.299,0 15.05,6.751 15.05,15.05v86c0,8.299 -6.751,15.05 -15.05,15.05z" fill="#98ccfd"></path>
      <path d="M150.5,30.1c7.1122,0 12.9,5.7878 12.9,12.9v86c0,7.1122 -5.7878,12.9 -12.9,12.9h-129c-7.1122,0 -12.9,-5.7878 -12.9,-12.9v-86c0,-7.1122 5.7878,-12.9 12.9,-12.9h129M150.5,25.8h-129c-9.4987,0 -17.2,7.7013 -17.2,17.2v86c0,9.4987 7.7013,17.2 17.2,17.2h129c9.4987,0 17.2,-7.7013 17.2,-17.2v-86c0,-9.4987 -7.7013,-17.2 -17.2,-17.2z" fill="#4788c7"></path>
      <path d="M111.8,47.3c-9.4993,0 -17.2,7.7007 -17.2,17.2c0,9.4993 7.7007,17.2 17.2,17.2c9.4993,0 17.2,-7.7007 17.2,-17.2c0,-9.4993 -7.7007,-17.2 -17.2,-17.2zM141.9,120.4c0,-16.6238 -13.4762,-30.1 -30.1,-30.1c-16.6238,0 -30.1,13.4762 -30.1,30.1z" fill="#ffffff"></path>
      <g fill="#4788c7">
        <path d="M34.4,98.9h30.1c2.3736,0 4.3,-1.9264 4.3,-4.3v-21.5c0,-2.3736 -1.9264,-4.3 -4.3,-4.3h-30.1c-2.3736,0 -4.3,1.9264 -4.3,4.3v21.5c0,2.3736 1.9264,4.3 4.3,4.3z"></path>
      </g>
    </g>
    <g stroke-width="2" stroke-linecap="round">
      <g id="Layer_1">
        <path d="M133.3,169.85c-20.21,0 -36.55,-16.34 -36.55,-36.55c0,-20.21 16.34,-36.55 36.55,-36.55c20.21,0 36.55,16.34 36.55,36.55c0,20.21 -16.34,36.55 -36.55,36.55z" fill="#98ccfd" stroke="#4788c7" stroke-linejoin="miter"></path>
        <path d="M133.3,98.9c18.92,0 34.4,15.48 34.4,34.4c0,18.92 -15.48,34.4 -34.4,34.4c-18.92,0 -34.4,-15.48 -34.4,-34.4c0,-18.92 15.48,-34.4 34.4,-34.4M133.3,94.6c-21.5,0 -38.7,17.2 -38.7,38.7c0,21.5 17.2,38.7 38.7,38.7c21.5,0 38.7,-17.2 38.7,-38.7c0,-21.5 -17.2,-38.7 -38.7,-38.7z" fill="#4788c7" stroke="#4788c7" stroke-linejoin="round"></path>
        <path d="M133.73,155.23c-1.72,0 -3.01,-0.43 -3.87,-1.29c-0.86,-0.86 -1.72,-2.15 -1.72,-3.44c0,-1.29 0.43,-2.58 1.72,-3.44c0.86,-0.86 2.58,-1.29 3.87,-1.29c1.72,0 3.01,0.43 3.87,1.29c0.86,0.86 1.72,2.15 1.72,3.44c0,1.29 -0.43,2.58 -1.72,3.44c-0.86,0.86 -2.15,1.29 -3.87,1.29zM138.46,111.37l-1.29,30.1h-7.31l-1.29,-30.1z" fill="#ffffff" stroke="#ffffff" stroke-linejoin="miter"></path>
      </g>
    </g>
    <path d="M94.6,172v-77.4h77.4v77.4z" id="overlay-drag" fill="#ff0000" stroke="none" stroke-width="1" stroke-linecap="butt" stroke-linejoin="miter" opacity="0"></path>
  </g>
</svg>