<svg xmlns="http://www.w3.org/2000/svg" viewBox="0 0 48 48"><path fill="#78b9eb" d="M43 9H5a4 4 0 0 0-4 4v2H47V13A4 4 0 0 0 43 9zM1 21V35a4 4 0 0 0 4 4h8.5L19 28l5.5 11H43a4 4 0 0 0 4-4V21zM40 35a2.987 2.987 0 0 1-2.5-1.34 3 3 0 1 1 0-3.32A3 3 0 1 1 40 35z"/><path fill="#1e81ce" d="M43,8H5a5.006,5.006,0,0,0-5,5V35a5.006,5.006,0,0,0,5,5h5V38H5a3,3,0,0,1-3-3V22H46V35a3,3,0,0,1-3,3H28v2H43a5.006,5.006,0,0,0,5-5V13A5.006,5.006,0,0,0,43,8ZM5,10H43a3,3,0,0,1,3,3v1H2V13A3,3,0,0,1,5,10ZM2,20V16H46v4Z"/><path fill="#1e81ce" d="M37.5 35.113a4 4 0 1 0 0-6.227 4 4 0 1 0 0 6.227zM40 30a2 2 0 0 1 0 4 1.971 1.971 0 0 1-1.3-.479c.017-.042.023-.086.039-.128a3.945 3.945 0 0 0 .15-.5c.016-.067.033-.134.045-.2a3.515 3.515 0 0 0 0-1.386c-.012-.071-.03-.14-.047-.21a4.038 4.038 0 0 0-.144-.478c-.017-.046-.024-.1-.043-.141A1.971 1.971 0 0 1 40 30zm-7 2a2 2 0 0 1 2-2 1.967 1.967 0 0 1 1.659.882 2 2 0 0 1 0 2.23A1.974 1.974 0 0 1 35 34 2 2 0 0 1 33 32zM19.9 27.553a1.042 1.042 0 0 0-1.79 0l-7 14A1 1 0 0 0 12 43H26a1 1 0 0 0 .895-1.447zM13.618 41L19 30.236 24.382 41z"/><rect width="2" height="2" x="18" y="38" fill="#1e81ce"/><rect width="2" height="4" x="18" y="33" fill="#1e81ce"/></svg>