<svg xmlns="http://www.w3.org/2000/svg" x="0px" y="0px" width="50" height="50" viewBox="0 0 50 50" style=" fill:#fff;">
  <path d="M 6 8 C 3.791 8 2 9.791 2 12 L 2 36 C 2 38.209 3.791 40 6 40 L 30.019531 40 L 30.273438 39.542969 L 31.126953 38 L 6 38 C 4.895 38 4 37.105 4 36 L 4 12 C 4 10.895 4.895 10 6 10 L 44 10 C 45.105 10 46 10.895 46 12 L 46 36 C 46 36.208 45.958391 36.403797 45.900391 36.591797 L 47.025391 38.589844 C 47.625391 37.890844 48 36.993 48 36 L 48 12 C 48 9.791 46.209 8 44 8 L 6 8 z M 16.917969 14 C 14.698205 14.04073 13.131832 15.088149 12.511719 16.5625 C 11.957282 17.880703 12.082449 19.357819 12.400391 20.787109 C 12.217416 21.088935 12.038432 21.51743 12.058594 22.078125 A 1.0001 1.0001 0 0 0 12.058594 22.080078 C 12.086484 22.848545 12.379602 23.451959 12.691406 23.824219 C 12.850598 24.014276 12.91319 24.020436 13.052734 24.117188 C 13.212066 24.617293 13.386467 25.122174 13.646484 25.46875 C 13.82635 25.708492 14.027823 25.821473 14.199219 25.988281 C 14.210809 26.401604 14.223385 26.785258 14.203125 27.171875 C 14.124395 27.33286 13.952554 27.522874 13.486328 27.757812 C 12.981694 28.012106 12.260299 28.261621 11.5 28.591797 C 10.739701 28.921972 9.9239729 29.338037 9.2460938 30.03125 C 8.5682144 30.724463 8.0753568 31.71798 8.0019531 32.939453 A 1.0001 1.0001 0 0 0 9 34 L 25 34 A 1.0001 1.0001 0 0 0 25.998047 32.939453 C 25.924647 31.71798 25.431819 30.724457 24.753906 30.03125 C 24.075993 29.338043 23.258441 28.921918 22.498047 28.591797 C 21.737652 28.261676 21.016568 28.012035 20.511719 27.757812 C 20.046679 27.523636 19.876231 27.334408 19.796875 27.173828 C 19.776375 26.78499 19.789181 26.399486 19.800781 25.982422 C 19.993761 25.799674 20.227993 25.675745 20.398438 25.429688 C 20.642271 25.077679 20.784952 24.591724 20.923828 24.113281 C 21.250828 23.87652 21.898437 23.330351 21.898438 22.191406 C 21.898438 21.73702 21.666695 21.462129 21.535156 21.128906 C 21.772936 20.361084 22.055202 19.20924 21.927734 17.951172 C 21.859334 17.276116 21.674222 16.567162 21.181641 15.970703 C 20.772778 15.475611 20.111004 15.185644 19.382812 15.082031 C 18.804342 14.450998 17.992381 14 16.9375 14 A 1.0001 1.0001 0 0 0 16.917969 14 z M 16.943359 16.001953 C 17.596572 16.005553 18.011755 16.365949 18.080078 16.486328 A 1.0001 1.0001 0 0 0 18.949219 16.992188 C 19.399179 16.992188 19.511269 17.087508 19.640625 17.244141 C 19.769981 17.400775 19.893647 17.719525 19.9375 18.152344 C 20.02521 19.017981 19.772004 20.235529 19.607422 20.730469 A 1.0001 1.0001 0 0 0 19.845703 21.748047 C 19.654158 21.555829 19.898438 21.844867 19.898438 22.191406 C 19.898438 22.374095 19.591797 22.648437 19.591797 22.648438 A 1.0001 1.0001 0 0 0 19.136719 23.353516 C 19.090119 23.682902 18.93591 24.026317 18.753906 24.289062 C 18.571903 24.55181 18.314363 24.729349 18.369141 24.703125 A 1.0001 1.0001 0 0 0 17.800781 25.605469 C 17.800781 26.193129 17.731697 26.746238 17.804688 27.560547 A 1.0001 1.0001 0 0 0 17.863281 27.820312 C 18.189561 28.697109 18.920599 29.19416 19.613281 29.542969 C 20.305963 29.891777 21.040895 30.138277 21.703125 30.425781 C 22.365355 30.713285 22.93835 31.035113 23.324219 31.429688 C 23.459112 31.567611 23.462526 31.837366 23.560547 32 L 10.439453 32 C 10.537473 31.837361 10.540899 31.567621 10.675781 31.429688 C 11.061652 31.035087 11.634674 30.713356 12.296875 30.425781 C 12.959076 30.138207 13.694103 29.891988 14.386719 29.542969 C 15.079334 29.193949 15.81091 28.695439 16.136719 27.818359 A 1.0001 1.0001 0 0 0 16.195312 27.560547 C 16.268262 26.745515 16.199219 26.193129 16.199219 25.605469 A 1.0001 1.0001 0 0 0 15.664062 24.71875 C 15.819347 24.80023 15.460753 24.55565 15.246094 24.269531 C 15.031434 23.983413 14.856519 23.621987 14.820312 23.357422 A 1.0001 1.0001 0 0 0 14.259766 22.589844 C 14.259766 22.589844 14.289309 22.616303 14.224609 22.539062 C 14.159909 22.461823 14.068747 22.339392 14.056641 22.005859 C 14.054441 21.905852 14.15625 21.748047 14.15625 21.748047 A 1.0001 1.0001 0 0 0 14.414062 20.792969 C 14.062252 19.443288 14.020079 18.135289 14.355469 17.337891 C 14.689781 16.543047 15.251882 16.036177 16.943359 16.001953 z M 29 18 A 1.0001 1.0001 0 1 0 29 20 L 41 20 A 1.0001 1.0001 0 1 0 41 18 L 29 18 z M 29 23 A 1.0001 1.0001 0 1 0 29 25 L 41 25 A 1.0001 1.0001 0 1 0 41 23 L 29 23 z M 29 28 C 28.447 28 28 28.448 28 29 C 28 29.552 28.447 30 29 30 L 35.587891 30 C 36.106891 29.227 37.139391 28 38.900391 28 L 29 28 z M 38.900391 30 C 37.800391 30 37.2 31.2 37 31.5 L 28.099609 47.599609 C 27.999609 47.699609 28 47.899609 28 48.099609 C 28 49.099609 28.900391 50 29.900391 50 L 48 50 C 49 50 49.900391 49.199609 49.900391 48.099609 C 49.900391 47.899609 49.900781 47.799609 49.800781 47.599609 L 40.800781 31.599609 C 40.600781 31.199609 40.000391 30 38.900391 30 z M 38.900391 32.199219 C 38.900391 32.299219 39 32.400391 39 32.400391 L 47.699219 48 L 30.199219 48 L 38.800781 32.400391 C 38.800781 32.400391 38.900391 32.299219 38.900391 32.199219 z M 38.099609 37 C 37.999609 37 37.900391 37.099219 37.900391 37.199219 L 37.900391 42.800781 C 37.900391 42.900781 37.999609 43 38.099609 43 L 39.699219 43 C 39.799219 43 39.900391 42.900781 39.900391 42.800781 L 39.900391 37.199219 C 39.900391 37.099219 39.799219 37 39.699219 37 L 38.099609 37 z M 38.099609 45 C 37.999609 45 37.900391 45.099219 37.900391 45.199219 L 37.900391 46.800781 C 37.900391 46.900781 37.999609 47 38.099609 47 L 39.699219 47 C 39.799219 47 39.900391 46.900781 39.900391 46.800781 L 39.900391 45.199219 C 39.900391 45.099219 39.799219 45 39.699219 45 L 38.099609 45 z"></path>
</svg>