<!-- <svg xmlns="http://www.w3.org/2000/svg" x="0px" y="0px" width="40" height="40" viewBox="0 0 40 40" style=" fill:#000000;">
  <path fill="#dff0fe" d="M20,38.459C18.295,37.717,4.636,30.987,4.501,6.367L20,1.523l15.499,4.844 C35.364,30.963,21.707,37.713,20,38.459z"></path>
  <path fill="#4788c7" d="M20,2.048l14.996,4.686c-0.258,23.19-12.752,30.119-15,31.177 C17.735,36.869,5.26,30.057,5.004,6.734L20,2.048 M20,1L4,6c0,27.141,16,33,16,33s16-5.932,16-33L20,1L20,1z"></path>
  <path fill="#98ccfd" d="M29,19c0,5.01-4.082,9-9,9c-4.917,0-9-3.99-9-9s3.99-9,9-9S29,13.99,29,19z"></path>
  <path fill="#4788c7" d="M23.374 22.292c.205.102.409.102.512.306.306.307.306.819.409 1.125.102.409.205.818.409 1.227.102.512.307 1.023.409 1.432.067-.052.145-.101.219-.151C27.545 24.6 29 21.985 29 19c0-2.651-1.124-5.009-2.919-6.649-.217-.071-.441-.078-.661.02-.307.103-.511.512-.716.716-.205.307-.409.614-.614.92-.103.102-.205.307-.103.409 0 .102.103.102.205.102.205.103.307.103.512.205.102 0 .205.103.102.205 0 0 0 .103-.102.103-.512.511-1.023.92-1.534 1.431-.102.102-.205.307-.205.409 0 .102.102.102.102.205 0 .103-.102.103-.205.205-.205.103-.409.205-.511.307-.102.205 0 .511-.102.716-.102.511-.41.92-.614 1.432-.205.306-.306.614-.511.92 0 .409-.103.716.102 1.023C21.739 22.394 22.658 21.985 23.374 22.292zM23.186 10.573C22.197 10.205 21.125 10 20 10c-.185 0-.368.009-.55.02-.128.199-.23.394-.268.51-.102.511.307.409.716.511 0 0 .102.818.102.92.102.512-.205.818-.205 1.33 0 .307 0 .818.205 1.023h.102c.102 0 .205-.102.409-.205.307-.205.614-.511.92-.716.307-.205.614-.511.819-.716.307-.205.511-.614.614-.921.102-.205.453-.807.35-1.114C23.206 10.627 23.196 10.598 23.186 10.573zM11.205 19.427c.307.614.92 1.228 1.534 1.636.409.307 1.227.307 1.636.818.307.41.205.92.205 1.432 0 .614.409 1.125.614 1.636.102.307.205.716.307 1.023 0 .102.102.716.102.818.033.016.06.054.084.1.546.299 1.127.54 1.732.722.008.001.018-.006.025-.004.102 0 .511-.614.511-.716.307-.307.511-.716.818-.92.205-.102.409-.205.614-.41.205-.205.307-.614.409-.92.102-.204.205-.613.102-.92-.065-.194-.102-.307-.307-.409-.614-.205-1.227-.205-1.739-.716-.102-.205-.102-.409-.205-.614-.205-.205-.716-.307-1.023-.409h-1.33H14.58c-.307-.102-.511-.511-.716-.818 0-.102 0-.307-.205-.307-.205-.102-.409.103-.614 0-.102-.102-.102-.205-.102-.306 0-.307.205-.614.409-.819.307-.205.614.102.92.102.102 0 .102 0 .205.102.307.102.409.511.409.819v.205c0 .102.102.102.205.102.102-.511.102-1.023.205-1.534 0-.614.614-1.228 1.125-1.432.205-.102.307.103.511 0 .614-.205 2.148-.818 1.841-1.636-.205-.716-.818-1.431-1.636-1.33-.205.103-.307.205-.511.307-.307.205-.92.818-1.227.818-.511-.102-.511-.818-.409-1.125.102-.409 1.023-1.738 1.636-1.534.102.102.307.307.409.409.205.102.511.102.818.102.102 0 .205 0 .307-.102.102-.102.102-.102.102-.205 0-.307-.307-.614-.511-.819-.205-.205-.511-.409-.818-.511-.654-.196-2.035.036-3.161.416C12.061 14.114 11 16.42 11 19c0 .043.004.085.005.128C11.078 19.232 11.148 19.333 11.205 19.427z"></path>
  <g>
    <path fill="#4788c7" d="M20,11c4.486,0,8,3.514,8,8c0,4.411-3.589,8-8,8s-8-3.589-8-8C12,14.514,15.514,11,20,11 M20,10 c-5.01,0-9,3.99-9,9s4.083,9,9,9c4.918,0,9-3.99,9-9S25.01,10,20,10L20,10z"></path>
  </g>
</svg> -->
<svg xmlns="http://www.w3.org/2000/svg" x="0px" y="0px" width="64" height="64" viewBox="0 0 128 128" style=" fill:#000000;">
  <path fill="#fff" d="M64,113c24.8-14.7,40-40.9,40-70.1V27.8L64,13L24,27.8v15.1C24,72.1,39.2,98.3,64,113"></path>
  <path fill="#1fd4af" d="M89.9,111.1c-7.8-7.8-7.8-20.5,0-28.3c7.6-7.6,19.8-7.8,27.7-0.6c0.2,0.2-0.7,2.5-0.5,2.7c0.8,0.8,2.6,1.7,3.2,2c0.3,0.1-0.5,1-0.2,1c0.1,0,1.2-1.2,1.3-1c4.4,7.6,3.3,17.6-3.2,24.1C110.3,119,97.7,119,89.9,111.1z"></path>
  <path fill="#fff" d="M99.4,91.2c-1-1.3-2.9-1.5-4.2-0.5c-1.3,1-1.5,2.9-0.5,4.2l7,9c0.5,0.7,1.4,1.1,2.3,1.2c0,0,0.1,0,0.1,0c0.9,0,1.7-0.4,2.2-1l15.1-17c-1-1.8-2.3-3.4-3.8-4.7l-13.4,15L99.4,91.2z"></path>
  <path fill="#444b54" d="M64,116c-0.5,0-1-0.1-1.5-0.4C36.5,100.2,21,73,21,42.9V27.8c0-1.3,0.8-2.4,2-2.8l40-14.8c0.7-0.2,1.4-0.2,2.1,0L105,25c1.2,0.4,2,1.6,2,2.8v15.1c0,7.8-1.1,15.6-3.2,23.1c-0.4,1.6-2.1,2.5-3.7,2.1c-1.6-0.4-2.5-2.1-2.1-3.7c2-6.9,2.9-14.1,2.9-21.4v-13L64,16.2L27,29.9v13c0,28,14.4,53.2,38.5,67.5c1.4,0.8,1.9,2.7,1.1,4.1C66,115.5,65,116,64,116z"></path>
  <path fill="#444b54" d="M64,116c-1,0-2-0.5-2.6-1.5c-0.8-1.4-0.4-3.3,1.1-4.1c3.2-1.9,6.3-4,9.2-6.3c1.3-1,3.2-0.8,4.2,0.5c1,1.3,0.8,3.2-0.5,4.2c-3.1,2.5-6.4,4.8-9.9,6.8C65,115.9,64.5,116,64,116z"></path>
  <path fill="#d0d4d8" d="M64,101.6c-0.6,0-1.3-0.2-1.8-0.6c-15.9-11.7-26-29-28.6-48.5c-0.2-1.6,0.9-3.1,2.6-3.4c1.6-0.2,3.1,0.9,3.4,2.6c2.3,17.1,10.9,32.3,24.4,43c15.9-12.6,25-31.4,25-51.9v-4.6L64,29L37,39c-1.6,0.6-3.3-0.2-3.9-1.8c-0.6-1.6,0.2-3.3,1.8-3.9L63,23c0.7-0.2,1.4-0.2,2.1,0l28,10.4c1.2,0.4,2,1.6,2,2.8v6.7c0,23.2-10.6,44.4-29.2,58.1C65.3,101.4,64.6,101.6,64,101.6z"></path>
  <g>
    <path fill="#d0d4d8" d="M64,25.8v72.8c17.7-13.1,28-33.4,28-55.7v-6.7L64,25.8z"></path>
  </g>
</svg>