<svg xmlns="http://www.w3.org/2000/svg" id="Layer_1" enable-background="new 0 0 64 64" viewBox="0 0 64 64"><path fill="#2b2f64" d="M8.21,5.23c0-1.81,1.47-3.29,3.29-3.29h23.84c0.4,0,0.78,0.07,1.13,0.21c0.16,0.05,0.31,0.12,0.45,0.21
		c0.15,0.07,0.28,0.16,0.41,0.26c0.12,0.09,0.23,0.18,0.33,0.29c0.03,0.03,0.06,0.06,0.09,0.09c0.11,0.12,0.22,0.25,0.31,0.39
		c0.06,0.09,0.12,0.18,0.17,0.28c0.1,0.18,0.19,0.38,0.25,0.59c0.03,0.1,0.06,0.2,0.08,0.31c0.02,0.11,0.04,0.22,0.05,0.33
		s0.02,0.22,0.02,0.33V8.3H8.21V5.23z M55.79,48.47c0,2.47-0.88,4.87-2.48,6.75c-1.73,2.03-4.72,4.83-9.22,6.76
		c-0.53-0.23-1.05-0.47-1.54-0.72c-3.65-1.86-6.16-4.25-7.68-6.04c-1.6-1.88-2.48-4.28-2.48-6.75v-3.28c0-0.01,0-0.02,0-0.02v-9.01
		L44.08,31l6.28,2.77l5.42,2.39V48.47z M57.14,34.64l-2.48-1.09l-3.77-1.67l-6.42-2.83c-0.25-0.11-0.53-0.11-0.78,0l-3.12,1.38V5.23
		c0-2.88-2.35-5.23-5.23-5.23H11.5C8.61,0,6.27,2.35,6.27,5.23v39.94c0,0.01,0,0.01,0,0.02c0,0,0,0,0,0.01v5.73
		c0,2.87,2.34,5.22,5.23,5.22h21.62c0.09,0.1,0.17,0.22,0.26,0.32c1.69,1.99,4.5,4.65,8.62,6.68c0.55,0.28,1.12,0.54,1.71,0.78
		c0.12,0.05,0.24,0.07,0.37,0.07c0.12,0,0.25-0.02,0.37-0.07c5.07-2.09,8.41-5.21,10.33-7.46c1.9-2.22,2.94-5.07,2.94-8V35.52
		C57.73,35.14,57.49,34.79,57.14,34.64z M11.5,54.21c-0.11,0-0.23-0.01-0.34-0.02c-0.08-0.01-0.17-0.02-0.25-0.04
		c-0.07-0.01-0.14-0.02-0.2-0.04c-1.44-0.35-2.5-1.64-2.5-3.18v-4.78h22.23v2.32c0,2.01,0.5,3.98,1.42,5.74H11.5z M15.1,44.22
		c0.02-0.23,0.04-0.46,0.08-0.68c0.01-0.06,0.02-0.11,0.04-0.17c0.02-0.14,0.05-0.27,0.09-0.41c0.02-0.12,0.06-0.25,0.1-0.37
		c0-0.02,0.01-0.04,0.02-0.06c0.05-0.16,0.11-0.32,0.18-0.48c0.07-0.17,0.14-0.34,0.23-0.51c0.07-0.13,0.14-0.27,0.23-0.4
		c0.02-0.04,0.04-0.09,0.07-0.13c0.06-0.1,0.12-0.2,0.19-0.29c0.11-0.16,0.22-0.31,0.34-0.46c0,0,0-0.01,0.01-0.01
		c0.14-0.18,0.29-0.35,0.45-0.51c0.01-0.02,0.03-0.04,0.05-0.05c0.14-0.14,0.29-0.28,0.44-0.41c0.11-0.11,0.23-0.2,0.35-0.29
		c0.15-0.12,0.3-0.23,0.46-0.34c0.32-0.22,0.66-0.42,1.01-0.58c0.16-0.08,0.33-0.16,0.5-0.23c0.01-0.01,0.03-0.02,0.05-0.02
		c0.18-0.07,0.36-0.14,0.54-0.2c0.11-0.04,0.22-0.08,0.34-0.11c0.11-0.04,0.23-0.06,0.35-0.09c0.12-0.04,0.24-0.06,0.36-0.08
		c0.1-0.03,0.21-0.05,0.32-0.06c0.23-0.04,0.46-0.07,0.69-0.09c0.07-0.01,0.15-0.02,0.22-0.02c0.2-0.01,0.4-0.02,0.6-0.02
		c2.88,0,5.48,1.3,7.03,3.48v3.59H15.1z M38.63,31.28l-7.61,3.36c-0.35,0.15-0.58,0.5-0.58,0.88v2.24
		c-1.88-1.62-4.36-2.55-7.03-2.55c-0.24,0-0.48,0.01-0.72,0.03c-0.08,0-0.17,0.01-0.25,0.02c-0.02-0.01-0.04,0-0.05,0
		c-0.21,0.02-0.41,0.04-0.61,0.07c-4.73,0.7-8.39,4.38-8.62,8.89H8.21V10.24h30.42V31.28z"/><path fill="#54bf9f" d="M30.44,40.63v3.59H15.1c0.02-0.23,0.04-0.46,0.08-0.68c0.01-0.06,0.02-0.11,0.04-0.17
		c0.02-0.14,0.05-0.27,0.09-0.41c0.02-0.12,0.06-0.25,0.1-0.37c0-0.02,0.01-0.04,0.02-0.06c0.05-0.16,0.11-0.32,0.18-0.48
		c0.07-0.17,0.14-0.34,0.23-0.51c0.07-0.13,0.14-0.27,0.23-0.4c0.02-0.04,0.04-0.09,0.07-0.13c0.06-0.1,0.12-0.2,0.19-0.29
		c0.11-0.16,0.22-0.31,0.34-0.46c0,0,0-0.01,0.01-0.01c0.14-0.18,0.29-0.35,0.45-0.51c0.01-0.02,0.03-0.04,0.05-0.05
		c0.14-0.14,0.29-0.28,0.44-0.41c0.11-0.11,0.23-0.2,0.35-0.29c0.15-0.12,0.3-0.23,0.46-0.34c0.32-0.22,0.66-0.42,1.01-0.58
		c0.16-0.08,0.33-0.16,0.5-0.23c0.01-0.01,0.03-0.02,0.05-0.02c0.18-0.07,0.36-0.14,0.54-0.2c0.11-0.04,0.22-0.08,0.34-0.11
		c0.11-0.04,0.23-0.06,0.35-0.09c0.12-0.04,0.24-0.06,0.36-0.08c0.1-0.03,0.21-0.05,0.32-0.06c0.23-0.04,0.46-0.07,0.69-0.09
		c0.07-0.01,0.15-0.02,0.22-0.02c0.2-0.01,0.4-0.02,0.6-0.02C26.29,37.15,28.89,38.45,30.44,40.63z"/><path fill="#3da57f" d="M30.44,40.63v2c-1.46-2.18-3.9-3.48-6.61-3.48c-0.19,0-0.38,0.01-0.56,0.02c-0.07,0-0.14,0.01-0.21,0.02
		c-0.22,0.02-0.43,0.05-0.65,0.09c-0.1,0.01-0.21,0.03-0.3,0.06c-0.11,0.02-0.23,0.04-0.34,0.08c-0.11,0.03-0.22,0.05-0.33,0.09
		c-0.11,0.03-0.21,0.07-0.32,0.11c-0.17,0.06-0.34,0.13-0.5,0.2c-0.02,0-0.04,0.01-0.05,0.02c-0.16,0.07-0.32,0.15-0.47,0.23
		c-0.33,0.16-0.65,0.36-0.95,0.58c-0.15,0.11-0.29,0.22-0.43,0.34c-0.12,0.09-0.23,0.18-0.33,0.29c-0.14,0.13-0.28,0.27-0.42,0.41
		c-0.02,0.01-0.03,0.03-0.04,0.05c-0.15,0.16-0.29,0.33-0.43,0.51c-0.01,0-0.01,0.01-0.01,0.01c-0.11,0.15-0.21,0.3-0.32,0.46
		c-0.06,0.09-0.12,0.19-0.17,0.29c-0.03,0.04-0.05,0.09-0.07,0.13c-0.08,0.13-0.15,0.27-0.22,0.4c-0.08,0.17-0.15,0.34-0.21,0.51
		c-0.02,0.06-0.05,0.11-0.06,0.17H15.1c0.02-0.23,0.04-0.46,0.08-0.68c0.01-0.06,0.02-0.11,0.04-0.17c0.02-0.14,0.05-0.27,0.09-0.41
		c0.02-0.12,0.06-0.25,0.1-0.37c0-0.02,0.01-0.04,0.02-0.06c0.05-0.16,0.11-0.32,0.18-0.48c0.07-0.17,0.14-0.34,0.23-0.51
		c0.07-0.13,0.14-0.27,0.23-0.4c0.02-0.04,0.04-0.09,0.07-0.13c0.06-0.1,0.12-0.2,0.19-0.29c0.11-0.16,0.22-0.31,0.34-0.46
		c0,0,0-0.01,0.01-0.01c0.14-0.18,0.29-0.35,0.45-0.51c0.01-0.02,0.03-0.04,0.05-0.05c0.14-0.14,0.29-0.28,0.44-0.41
		c0.11-0.11,0.23-0.2,0.35-0.29c0.15-0.12,0.3-0.23,0.46-0.34c0.32-0.22,0.66-0.42,1.01-0.58c0.16-0.08,0.33-0.16,0.5-0.23
		c0.01-0.01,0.03-0.02,0.05-0.02c0.18-0.07,0.36-0.14,0.54-0.2c0.11-0.04,0.22-0.08,0.34-0.11c0.11-0.04,0.23-0.06,0.35-0.09
		c0.12-0.04,0.24-0.06,0.36-0.08c0.1-0.03,0.21-0.05,0.32-0.06c0.23-0.04,0.46-0.07,0.69-0.09c0.07-0.01,0.15-0.02,0.22-0.02
		c0.2-0.01,0.4-0.02,0.6-0.02C26.29,37.15,28.89,38.45,30.44,40.63z"/><path fill="#f26e62" d="M44.08,32.64l-10.2,4.5v11.33c0,2.12,0.75,4.17,2.12,5.78c1.37,1.6,3.73,3.89,7.22,5.67
		c0.28,0.15,0.57,0.28,0.86,0.42c3.91-1.8,6.54-4.29,8.08-6.09c1.37-1.61,2.12-3.66,2.12-5.78V37.14L44.08,32.64z M50.99,42.88
		l-8.6,8.59c-0.19,0.19-0.43,0.28-0.68,0.28s-0.5-0.09-0.69-0.28l-3.85-3.85c-0.38-0.38-0.38-1,0-1.37c0.38-0.38,0.99-0.38,1.37,0
		l3.17,3.16l7.91-7.91c0.38-0.37,0.99-0.37,1.37,0C51.37,41.88,51.37,42.5,50.99,42.88z"/><path fill="#e15f5a" d="M50.36,33.77L44.08,31l-11.7,5.16v9.01c0,0,0,0.01,0,0.02v3.28c0,2.47,0.88,4.87,2.48,6.75
		c1.52,1.79,4.03,4.18,7.68,6.04c0.49,0.25,1.01,0.49,1.54,0.72c4.5-1.93,7.49-4.73,9.22-6.76c1.6-1.88,2.48-4.28,2.48-6.75V36.16
		L50.36,33.77z M54.29,48.47c0,2.12-0.75,4.17-2.12,5.78c-1.54,1.8-4.17,4.29-8.08,6.09c-0.29-0.14-0.58-0.27-0.86-0.42
		c-3.49-1.78-5.85-4.07-7.22-5.67c-1.37-1.61-2.12-3.66-2.12-5.78V37.14l10.2-4.5l10.2,4.5V48.47z"/><path fill="#a0c3d8" d="M30.44,48.47v-2.32H8.21v4.78c0,1.54,1.06,2.83,2.5,3.18c0.06,0.02,0.13,0.03,0.2,0.04
		c0.08,0.02,0.17,0.03,0.25,0.04c0.11,0.01,0.23,0.02,0.34,0.02h20.36C30.94,52.45,30.44,50.48,30.44,48.47z M23.41,53.09
		c-1.4,0-2.57-1-2.84-2.33c-0.04-0.18-0.06-0.38-0.06-0.58c0-0.1,0-0.2,0.02-0.3c0.01-0.09,0.02-0.19,0.04-0.28
		c0.01-0.09,0.04-0.19,0.07-0.28c0.03-0.09,0.06-0.18,0.1-0.27c0.33-0.78,0.99-1.39,1.8-1.65c0.11-0.03,0.23-0.06,0.34-0.08
		c0.08-0.02,0.15-0.03,0.22-0.03c1.03-0.11,1.96,0.32,2.56,1.04c0.12,0.15,0.22,0.3,0.31,0.47c0.22,0.41,0.35,0.88,0.35,1.38
		C26.32,51.78,25.02,53.09,23.41,53.09z"/><path fill="#83a6b9" d="M31.86,54.21H11.5c-0.11,0-0.23-0.01-0.34-0.02c-0.08-0.01-0.17-0.02-0.25-0.04
		c-0.07-0.01-0.14-0.02-0.2-0.04c-1.44-0.35-2.5-1.64-2.5-3.18v-4.78h2v3.59c0,1.16,0.97,2.13,2.29,2.39
		c0.05,0.02,0.12,0.03,0.18,0.03c0.07,0.02,0.16,0.03,0.23,0.03c0.1,0.01,0.21,0.02,0.31,0.02h8.12c0.52,0.54,1.26,0.88,2.07,0.88
		c0.82,0,1.55-0.34,2.08-0.88h5.54C31.25,52.9,31.52,53.57,31.86,54.21z"/><path fill="#a0c3d8" d="M38.61,4.9c-0.01-0.11-0.03-0.22-0.05-0.33c-0.02-0.11-0.05-0.21-0.08-0.31c-0.06-0.21-0.15-0.41-0.25-0.59
		c-0.05-0.1-0.11-0.19-0.17-0.28c-0.09-0.14-0.2-0.27-0.31-0.39c-0.03-0.03-0.06-0.06-0.09-0.09c-0.1-0.11-0.21-0.2-0.33-0.29
		c-0.13-0.1-0.26-0.19-0.41-0.26c-0.14-0.09-0.29-0.16-0.45-0.21c-0.35-0.14-0.73-0.21-1.13-0.21H11.5c-1.82,0-3.29,1.48-3.29,3.29
		V8.3h30.42V5.23C38.63,5.12,38.62,5.01,38.61,4.9z M28.75,6.09H18.08c-0.53,0-0.97-0.43-0.97-0.97c0-0.53,0.44-0.97,0.97-0.97
		h10.67c0.53,0,0.97,0.44,0.97,0.97C29.73,5.66,29.29,6.09,28.75,6.09z"/><path fill="#83a6b9" d="M38.63,5.23V8.3h-2V6.2c0-0.08-0.01-0.16-0.02-0.23c-0.01-0.08-0.02-0.15-0.04-0.23
		c-0.02-0.07-0.04-0.14-0.07-0.21c-0.05-0.14-0.13-0.28-0.22-0.4c-0.04-0.07-0.09-0.13-0.15-0.2c-0.07-0.09-0.17-0.18-0.26-0.26
		c-0.03-0.02-0.06-0.04-0.08-0.06c-0.09-0.08-0.18-0.14-0.29-0.2c-0.11-0.07-0.22-0.13-0.36-0.18c-0.12-0.06-0.25-0.11-0.39-0.15
		c-0.3-0.09-0.63-0.14-0.98-0.14h-20.7c-1.58,0-2.86,1.01-2.86,2.26v2.1h-2V5.23c0-1.81,1.47-3.29,3.29-3.29h23.84
		c0.4,0,0.78,0.07,1.13,0.21c0.16,0.05,0.31,0.12,0.45,0.21c0.15,0.07,0.28,0.16,0.41,0.26c0.12,0.09,0.23,0.18,0.33,0.29
		c0.03,0.03,0.06,0.06,0.09,0.09c0.11,0.12,0.22,0.25,0.31,0.39c0.06,0.09,0.12,0.18,0.17,0.28c0.1,0.18,0.19,0.38,0.25,0.59
		c0.03,0.1,0.06,0.2,0.08,0.31c0.02,0.11,0.04,0.22,0.05,0.33S38.63,5.12,38.63,5.23z"/><path fill="#ededee" d="M8.21,10.24v33.98h4.95c0.23-4.51,3.89-8.19,8.62-8.89c0.2-0.03,0.4-0.05,0.61-0.07c0.01,0,0.03-0.01,0.05,0
		c0.08-0.01,0.17-0.02,0.25-0.02c0.24-0.02,0.48-0.03,0.72-0.03c2.67,0,5.15,0.93,7.03,2.55v-2.24c0-0.38,0.23-0.73,0.58-0.88
		l7.61-3.36V10.24H8.21z M23.42,33.59c-0.23,0-0.46-0.02-0.68-0.04c-1.52-0.22-2.81-1.11-3.56-2.36c-0.46-0.75-0.72-1.62-0.72-2.56
		c0-2.73,2.23-4.96,4.96-4.96c0.81,0,1.57,0.2,2.25,0.54c0.5,0.25,0.94,0.59,1.32,0.98c0.12,0.12,0.23,0.25,0.33,0.39
		c0.09,0.11,0.18,0.23,0.26,0.35c0.05,0.08,0.1,0.16,0.14,0.24c0.07,0.12,0.13,0.24,0.19,0.36c0.06,0.13,0.11,0.26,0.16,0.39
		c0.02,0.05,0.04,0.11,0.06,0.16c0.02,0.05,0.03,0.11,0.05,0.17c0.08,0.26,0.13,0.52,0.16,0.8c0.01,0.09,0.02,0.17,0.03,0.26
		c0.01,0.1,0.01,0.21,0.01,0.32C28.38,31.37,26.16,33.59,23.42,33.59z"/><rect width="2" height="33.98" x="8.21" y="10.24" fill="#d7d6d6"/><polygon fill="#d7d6d6" points="38.63 10.24 38.63 31.28 36.63 32.16 36.63 10.24"/><path fill="#2b2f64" d="M50.99 42.88l-8.6 8.59c-.19.19-.43.28-.68.28s-.5-.09-.69-.28l-3.85-3.85c-.38-.38-.38-1 0-1.37.38-.38.99-.38 1.37 0l3.17 3.16 7.91-7.91c.38-.37.99-.37 1.37 0C51.37 41.88 51.37 42.5 50.99 42.88zM29.73 5.12c0 .54-.44.97-.97.97H18.08c-.53 0-.97-.43-.97-.97 0-.53.44-.97.97-.97h10.67C29.29 4.15 29.73 4.59 29.73 5.12zM25.98 48.8c-.09-.17-.19-.32-.31-.47-.6-.72-1.53-1.15-2.56-1.04-.07 0-.14.01-.22.03-.11.02-.23.05-.34.08-.81.26-1.47.87-1.8 1.65-.04.09-.07.18-.1.27-.03.09-.06.19-.07.28-.02.09-.03.19-.04.28-.02.1-.02.2-.02.3 0 .2.02.4.06.58.27 1.33 1.44 2.33 2.84 2.33 1.61 0 2.91-1.31 2.91-2.91C26.32 49.68 26.19 49.21 25.98 48.8zM23.41 51.15c-.53 0-.97-.43-.97-.97 0-.53.44-.97.97-.97.54 0 .97.44.97.97C24.38 50.72 23.95 51.15 23.41 51.15z"/><path fill="#ffdc7d" d="M24.38,50.18c0,0.54-0.43,0.97-0.97,0.97c-0.53,0-0.97-0.43-0.97-0.97c0-0.53,0.44-0.97,0.97-0.97
		C23.95,49.21,24.38,49.65,24.38,50.18z"/><path fill="#2b2f64" d="M28.37,28.31c-0.01-0.09-0.02-0.17-0.03-0.26c-0.03-0.28-0.08-0.54-0.16-0.8c-0.02-0.06-0.03-0.12-0.05-0.17
		c-0.02-0.05-0.04-0.11-0.06-0.16c-0.05-0.13-0.1-0.26-0.16-0.39c-0.06-0.12-0.12-0.24-0.19-0.36c-0.04-0.08-0.09-0.16-0.14-0.24
		c-0.08-0.12-0.17-0.24-0.26-0.35c-0.1-0.14-0.21-0.27-0.33-0.39c-0.38-0.39-0.82-0.73-1.32-0.98c-0.68-0.34-1.44-0.54-2.25-0.54
		c-2.73,0-4.96,2.23-4.96,4.96c0,0.94,0.26,1.81,0.72,2.56c0.75,1.25,2.04,2.14,3.56,2.36c0.22,0.02,0.45,0.04,0.68,0.04
		c2.74,0,4.96-2.22,4.96-4.96C28.38,28.52,28.38,28.41,28.37,28.31z M26.4,29.2c-0.03,0.14-0.07,0.27-0.11,0.4
		c-0.02,0.05-0.03,0.09-0.05,0.13c-0.01,0.03-0.02,0.06-0.03,0.08c-0.01,0.02-0.01,0.03-0.02,0.05s-0.02,0.03-0.03,0.05
		c-0.02,0.06-0.05,0.11-0.08,0.16c-0.03,0.05-0.06,0.1-0.09,0.15c-0.03,0.07-0.07,0.13-0.12,0.18c-0.01,0.02-0.02,0.03-0.04,0.05
		c-0.02,0.04-0.05,0.08-0.08,0.11c-0.49,0.59-1.2,1-2.01,1.08c-0.11,0.01-0.21,0.02-0.32,0.02c-0.17,0-0.34-0.01-0.5-0.05
		c-0.05,0-0.1-0.01-0.16-0.02c-0.27-0.06-0.53-0.16-0.77-0.3c-0.09-0.04-0.17-0.09-0.25-0.15c-0.05-0.03-0.08-0.05-0.12-0.09
		c-0.09-0.06-0.16-0.12-0.24-0.2c-0.25-0.22-0.45-0.48-0.61-0.78c-0.07-0.13-0.13-0.26-0.18-0.4c-0.02-0.05-0.04-0.09-0.05-0.14
		c-0.04-0.11-0.07-0.23-0.09-0.35c-0.01-0.08-0.03-0.16-0.03-0.24c-0.01-0.1-0.02-0.21-0.02-0.31c0-1.66,1.36-3.02,3.02-3.02
		c0.19,0,0.37,0.02,0.55,0.05c0.09,0.02,0.19,0.04,0.27,0.07c0.15,0.03,0.29,0.09,0.43,0.16c0.11,0.05,0.22,0.1,0.33,0.17
		c0.43,0.26,0.79,0.63,1.04,1.07c0.01,0.02,0.03,0.05,0.04,0.07c0.05,0.08,0.09,0.17,0.13,0.26c0,0.01,0,0.01,0,0.01
		c0.04,0.09,0.08,0.17,0.1,0.27c0.02,0.04,0.03,0.08,0.03,0.12c0.03,0.09,0.05,0.18,0.07,0.27c0,0.03,0.01,0.06,0.01,0.1
		c0.02,0.13,0.03,0.26,0.03,0.4C26.45,28.83,26.43,29.02,26.4,29.2z"/><path fill="#ffe5ab" d="M26.45,28.63c0,0.2-0.02,0.39-0.05,0.57c-0.03,0.14-0.07,0.27-0.11,0.4c-0.02,0.05-0.03,0.09-0.05,0.13
		c-0.01,0.03-0.02,0.06-0.03,0.08c-0.01,0.02-0.01,0.03-0.02,0.05s-0.02,0.03-0.03,0.05c-0.02,0.06-0.05,0.11-0.08,0.16
		c-0.03,0.05-0.06,0.1-0.09,0.15c-0.03,0.07-0.07,0.13-0.12,0.18c-0.01,0.02-0.02,0.03-0.04,0.05c-0.02,0.04-0.05,0.08-0.08,0.11
		c-0.49,0.59-1.2,1-2.01,1.08c-0.11,0.01-0.21,0.02-0.32,0.02c-0.17,0-0.34-0.01-0.5-0.05c-0.05,0-0.1-0.01-0.16-0.02
		c-0.27-0.06-0.53-0.16-0.77-0.3c-0.09-0.04-0.17-0.09-0.25-0.15c-0.05-0.03-0.08-0.05-0.12-0.09c-0.09-0.06-0.16-0.12-0.24-0.2
		c-0.25-0.22-0.45-0.48-0.61-0.78c-0.07-0.13-0.13-0.26-0.18-0.4c-0.02-0.05-0.04-0.09-0.05-0.14c-0.04-0.11-0.07-0.23-0.09-0.35
		c-0.01-0.08-0.03-0.16-0.03-0.24c-0.01-0.1-0.02-0.21-0.02-0.31c0-1.66,1.36-3.02,3.02-3.02c0.19,0,0.37,0.02,0.55,0.05
		c0.09,0.02,0.19,0.04,0.27,0.07c0.15,0.03,0.29,0.09,0.43,0.16c0.11,0.05,0.22,0.1,0.33,0.17c0.43,0.26,0.79,0.63,1.04,1.07
		c0.01,0.02,0.03,0.05,0.04,0.07c0.05,0.08,0.09,0.17,0.13,0.26c0,0.01,0,0.01,0,0.01c0.04,0.09,0.08,0.17,0.1,0.27
		c0.02,0.04,0.03,0.08,0.03,0.12c0.03,0.09,0.05,0.18,0.07,0.27c0,0.03,0.01,0.06,0.01,0.1C26.44,28.36,26.45,28.49,26.45,28.63z"/><path fill="#ffe5ab" d="M25.39,29.09l-0.12,0.3l-0.11,0.22L25,29.77l-0.01,0.03l-0.07,0.06l-0.09,0.19
		c-0.24,0.23-0.63,0.51-1.17,0.57l-0.25,0.02h-0.14l-0.47-0.12h-0.06c-0.05-0.02-0.31-0.17-0.31-0.17l-0.03-0.03l-0.34-0.22
		c-0.13-0.14-0.24-0.26-0.37-0.5c-0.06-0.1-0.09-0.17-0.12-0.25l-0.11-0.32l-0.04-0.42c0-1.07,0.92-1.98,2-1.98
		c0.11,0,0.23,0.01,0.34,0.03l0.18,0.07l0.16,0.03l0.35,0.16c0.28,0.17,0.49,0.38,0.65,0.63l0.12,0.21l0.09,0.29l0.03,0.12
		l0.06,0.13l0.02,0.14C25.43,28.79,25.41,28.94,25.39,29.09z M25.42,28.44L25.4,28.3l-0.06-0.13l-0.03-0.12l-0.09-0.29l-0.12-0.21
		c-0.16-0.25-0.37-0.46-0.65-0.63l-0.35-0.16l-0.16-0.03l-0.18-0.07c-0.11-0.02-0.23-0.03-0.34-0.03c-1.08,0-2,0.91-2,1.98
		l0.04,0.42l0.11,0.32c0.03,0.08,0.06,0.15,0.12,0.25c0.13,0.24,0.24,0.36,0.37,0.5l0.34,0.22l0.03,0.03c0,0,0.26,0.15,0.31,0.17
		h0.06l0.47,0.12h0.14l0.25-0.02c0.54-0.06,0.93-0.34,1.17-0.57l0.09-0.19l0.07-0.06L25,29.77l0.16-0.16l0.11-0.22l0.12-0.3
		C25.41,28.94,25.43,28.79,25.42,28.44z"/><path fill="#f0d39a" d="M26.42,28.23c0-0.04-0.01-0.07-0.01-0.1c-0.02-0.09-0.04-0.18-0.07-0.27c0-0.04-0.01-0.08-0.03-0.12
		c-0.02-0.1-0.06-0.18-0.1-0.27c0,0,0,0,0-0.01c-0.04-0.09-0.08-0.18-0.13-0.26c-0.01-0.02-0.03-0.05-0.04-0.07
		c-0.25-0.44-0.61-0.81-1.04-1.07c-0.11-0.07-0.22-0.12-0.33-0.17c-0.14-0.07-0.28-0.13-0.43-0.16c-0.08-0.03-0.18-0.05-0.27-0.07
		c-0.18-0.03-0.36-0.05-0.55-0.05c-1.66,0-3.02,1.36-3.02,3.02c0,0.1,0.01,0.21,0.02,0.31c0,0.08,0.02,0.16,0.03,0.24
		c0.02,0.12,0.05,0.24,0.09,0.35c0.01,0.05,0.03,0.09,0.05,0.14c0.05,0.14,0.11,0.27,0.18,0.4c0.16,0.3,0.36,0.56,0.61,0.78
		c0.08,0.08,0.15,0.14,0.24,0.2c0.04,0.04,0.07,0.06,0.12,0.09c0.08,0.06,0.16,0.11,0.25,0.15c0.24,0.14,0.5,0.24,0.77,0.3
		c0.06,0.01,0.11,0.02,0.16,0.02c0.16,0.04,0.33,0.05,0.5,0.05c0.11,0,0.21-0.01,0.32-0.02c0.81-0.08,1.52-0.49,2.01-1.08
		c0.03-0.03,0.06-0.07,0.08-0.11c0.02-0.02,0.03-0.03,0.04-0.05c0.05-0.05,0.09-0.11,0.12-0.18c0.03-0.05,0.06-0.1,0.09-0.15
		c0.03-0.05,0.06-0.1,0.08-0.16c0.01-0.02,0.02-0.03,0.03-0.05s0.01-0.03,0.02-0.05c0.01-0.02,0.02-0.05,0.03-0.08
		c0.02-0.04,0.03-0.08,0.05-0.13c0.04-0.13,0.08-0.26,0.11-0.4c0.03-0.18,0.05-0.37,0.05-0.57C26.45,28.49,26.44,28.36,26.42,28.23z
		 M25.39,29.09l-0.12,0.3l-0.11,0.22L25,29.77l-0.01,0.03l-0.07,0.06l-0.09,0.19c-0.24,0.23-0.63,0.51-1.17,0.57l-0.25,0.02h-0.14
		l-0.47-0.12h-0.06c-0.05-0.02-0.31-0.17-0.31-0.17l-0.03-0.03l-0.34-0.22c-0.13-0.14-0.24-0.26-0.37-0.5
		c-0.06-0.1-0.09-0.17-0.12-0.25l-0.11-0.32l-0.04-0.42c0-1.07,0.92-1.98,2-1.98c0.11,0,0.23,0.01,0.34,0.03l0.18,0.07l0.16,0.03
		l0.35,0.16c0.28,0.17,0.49,0.38,0.65,0.63l0.12,0.21l0.09,0.29l0.03,0.12l0.06,0.13l0.02,0.14C25.43,28.79,25.41,28.94,25.39,29.09
		z"/></svg>