<svg xmlns="http://www.w3.org/2000/svg" x="0px" y="0px" width="40" height="40" viewBox="0 0 40 40" style=" fill:#000000;">
  <path fill="#98ccfd" d="M24,19.4c-1.5-1-8.5-6.2-8.5-10.4c0-2.6,1.8-4.5,4.3-4.5c1.6,0,2.7,0.6,3.8,2.1L24,7.1l0.4-0.5 c1.1-1.4,2.2-2,3.8-2c2.5,0,4.3,1.9,4.3,4.5C32.5,13.2,25.5,18.3,24,19.4z"></path>
  <path fill="#4788c7" d="M28.2,5C30.4,5,32,6.7,32,9c0,3.4-5.3,7.9-8,9.8c-2.7-1.9-8-6.4-8-9.8c0-2.3,1.6-4,3.8-4c1.4,0,2.4,0.6,3.4,1.8 L24,7.9l0.8-1.1C25.8,5.6,26.8,5,28.2,5 M28.2,4c-1.8,0-3,0.8-4.2,2.3C22.9,4.8,21.6,4,19.8,4C17.2,4,15,6,15,9c0,5,9,11,9,11 s9-6,9-11C33,6,30.8,4,28.2,4L28.2,4z"></path>
  <path fill="#b6dcfe" stroke="#4788c7" stroke-miterlimit="10" d="M19.5,28.4l9.6-3.9c0.4-0.1,0.7-0.2,1.1-0.2c1.2,0,2.2,0.7,2.7,1.9c0.5,1.4-0.3,3-1.6,3.7l-11.7,5.9"></path>
  <path fill="#b6dcfe" stroke="#4788c7" stroke-miterlimit="10" d="M22.5,29.4l9.6-3.9c0.4-0.1,0.7-0.2,1.1-0.2c1.2,0,2.2,0.7,2.7,1.9c0.5,1.4-0.3,3-1.6,3.7l-11.7,5.9"></path>
  <path fill="#dff0fe" d="M6.7,20.6c1-0.4,2.1-0.6,3.2-0.6c1.5,0,2.9,0.4,4.2,1l9.5,5c1.4,0.8,2,2.5,1.3,3.9l0.6,0.4l9.6-3.9 c0.4-0.1,0.7-0.2,1.1-0.2c1.2,0,2.2,0.7,2.7,1.9c0.5,1.4-0.3,3-1.6,3.7l-11.7,5.9c-0.5,0.2-1,0.3-1.5,0.3c-0.5,0-0.9-0.1-1.4-0.3 L7.8,30.8L1,33.6v-1.1v-8.7v-1.1L6.7,20.6z"></path>
  <path fill="none" stroke="#4788c7" stroke-linecap="round" stroke-miterlimit="10" d="M1.5,32.8l6.3-2.5l15.1,7c0.4,0.2,0.8,0.3,1.2,0.3c0.4,0,0.9-0.1,1.2-0.3L37,31.3c1.1-0.5,1.8-2,1.3-3.1 c-0.4-0.9-1.2-1.5-2.2-1.5c-0.3,0-0.6,0.1-0.9,0.2l-9.8,4l-1.2-0.8l0.2-0.4c0.6-1.2,0.1-2.7-1-3.3l-9.5-5c-1.2-0.6-2.6-1-4-1 c-1,0-2,0.2-3,0.5l-5.4,2"></path>
  <path fill="none" stroke="#4788c7" stroke-linecap="round" stroke-miterlimit="10" d="M24.3,30L24.3,30c-0.5,0.9-1.7,1.3-2.6,0.8l-6.1-3.1"></path>
</svg>