<?xml version="1.0" encoding="UTF-8"?>
<svg xmlns="http://www.w3.org/2000/svg" xmlns:xlink="http://www.w3.org/1999/xlink" width="512pt" height="512pt" viewBox="0 0 512 512" version="1.1">
  <g id="surface6049291">
    <path style=" stroke:none;fill-rule:nonzero;fill:rgb(100%,100%,100%);fill-opacity:1;" d="M 496 232 L 496 456 C 496 478 478 496 456 496 L 56 496 C 34 496 16 478 16 456 L 16 232 C 16 210 34 192 56 192 L 456 192 C 478 192 496 210 496 232 Z M 496 232 " />
    <path style=" stroke:none;fill-rule:nonzero;fill:rgb(26.666667%,29.411765%,32.54902%);fill-opacity:1;" d="M 456 508 L 56 508 C 27.199219 508 4 484.800781 4 456 L 4 232 C 4 203.199219 27.199219 180 56 180 L 456 180 C 484.800781 180 508 203.199219 508 232 L 508 456 C 508 484.800781 484.800781 508 456 508 Z M 56 204 C 40.398438 204 28 216.398438 28 232 L 28 456 C 28 471.601562 40.398438 484 56 484 L 456 484 C 471.601562 484 484 471.601562 484 456 L 484 232 C 484 216.398438 471.601562 204 456 204 Z M 56 204 " />
    <path style=" stroke:none;fill-rule:nonzero;fill:rgb(29.411765%,74.901961%,92.156863%);fill-opacity:1;" d="M 256 264 C 211.816406 264 176 299.816406 176 344 C 176 388.183594 211.816406 424 256 424 C 300.183594 424 336 388.183594 336 344 C 336 299.816406 300.183594 264 256 264 Z M 256 264 " />
    <path style=" stroke:none;fill-rule:nonzero;fill:rgb(26.666667%,29.411765%,32.54902%);fill-opacity:1;" d="M 394.398438 73.601562 L 334.398438 13.601562 C 329.601562 8.800781 322 8.800781 317.601562 13.601562 C 312.800781 18.398438 312.800781 26 317.601562 30.398438 L 357.199219 70 L 230 70 C 223.199219 70 218 75.199219 218 82 C 218 88.800781 223.199219 94 230 94 L 357.199219 94 L 317.601562 133.601562 C 312.800781 138.398438 312.800781 146 317.601562 150.398438 C 320 152.800781 323.199219 154 326 154 C 328.800781 154 332 152.800781 334.398438 150.398438 L 394.398438 90.398438 C 399.199219 85.601562 399.199219 78.398438 394.398438 73.601562 Z M 150 70 C 143.371094 70 138 75.371094 138 82 C 138 88.628906 143.371094 94 150 94 C 156.628906 94 162 88.628906 162 82 C 162 75.371094 156.628906 70 150 70 Z M 150 70 " />
  </g>
</svg>
