<!-- <svg xmlns="http://www.w3.org/2000/svg" x="0px" y="0px" width="40" height="40" viewBox="0 0 172 172" style=" fill:#000000;">
  <g fill="none" fill-rule="nonzero" stroke="none" stroke-width="none" stroke-linecap="none" stroke-linejoin="none" stroke-miterlimit="10" stroke-dasharray="" stroke-dashoffset="0" font-family="none" font-weight="none" font-size="none" text-anchor="none" style="mix-blend-mode: normal">
    <path d="M0,172v-172h172v172z" fill="none" stroke="none" stroke-width="1" stroke-linecap="butt" stroke-linejoin="miter"></path>
    <g stroke="none" stroke-width="1" stroke-linecap="butt" stroke-linejoin="miter">
      <path d="M19.3973,165.55c1.1309,-26.273 22.8588,-47.3 49.4027,-47.3h34.4c26.5439,0 48.2761,21.027 49.4027,47.3z" fill="#dff0fe"></path>
      <path d="M103.2,120.4c24.6347,0 44.9264,18.9243 47.1065,43h-128.613c2.1801,-24.0757 22.4718,-43 47.1065,-43h34.4M103.2,116.1h-34.4c-28.4961,0 -51.6,23.1039 -51.6,51.6h137.6c0,-28.4961 -23.1039,-51.6 -51.6,-51.6z" fill="#4788c7"></path>
      <path d="M66.65,119.6217v-22.8717h38.7v22.8717l-19.35,15.2392z" fill="#ffffff"></path>
      <path d="M103.2,98.9v19.6811l-17.2,13.5493l-17.2,-13.5493v-19.6811h34.4M107.5,94.6h-43v26.0666l21.5,16.9334l21.5,-16.9334v-26.0666z" fill="#4788c7"></path>
      <path d="M97.1843,127.3617l-11.1843,2.9498l-11.1757,-2.9326l6.8757,14.5211l-8.6,25.8h25.8l-8.6,-25.8z" fill="#4788c7"></path>
      <path d="M87.1051,165.55l22.5449,-31.562v-15.2822c23.5855,3.0917 41.9078,23.0523 42.9527,46.8442zM19.3973,165.55c1.0449,-23.7919 19.3672,-43.7482 42.9527,-46.8442v15.2822l22.5449,31.562z" fill="#98ccfd"></path>
      <path d="M111.8,121.2256c20.6443,3.827 36.5672,21.2377 38.5022,42.1744h-59.0175l19.7155,-27.6017l0.7998,-1.1223v-1.376v-12.0744M60.2,121.2256v12.0744v1.376l0.7998,1.1223l19.7155,27.6017h-59.0175c1.935,-20.941 17.8579,-38.3517 38.5022,-42.1744M107.5,116.315v16.985l-21.5,30.1l-21.5,-30.1v-16.985c-26.4794,2.193 -47.3,24.338 -47.3,51.385h137.6c0,-27.047 -20.8206,-49.192 -47.3,-51.385z" fill="#4788c7"></path>
      <g>
        <path d="M116.7149,82.6202c-5.59,0 -10.1308,-4.5494 -10.1308,-10.1351c0,-5.5857 4.5451,-10.1351 10.1308,-10.1351c8.4409,0 10.1351,2.3134 10.1351,6.0415c0,6.0802 -5.0095,14.2287 -10.1351,14.2287zM55.2851,82.6202c-5.1256,0 -10.1351,-8.1485 -10.1351,-14.233c0,-3.7281 1.6985,-6.0415 10.1351,-6.0415c5.59,0 10.1308,4.5451 10.1308,10.1351c0,5.59 -4.5408,10.1394 -10.1308,10.1394z" fill="#dff0fe"></path>
        <path d="M116.7149,64.5c7.9851,0 7.9851,2.0683 7.9851,3.8915c0,5.3062 -4.4763,12.083 -7.9851,12.083c-4.4032,0 -7.9851,-3.5819 -7.9851,-7.9851c0,-4.4075 3.5819,-7.9894 7.9851,-7.9894M55.2851,64.5c4.4032,0 7.9851,3.5819 7.9851,7.9851c0,4.4032 -3.5819,7.9851 -7.9851,7.9851c-3.5088,0 -7.9851,-6.7725 -7.9851,-12.083c0,-1.8189 0,-3.8872 7.9851,-3.8872M116.7149,60.2c-6.7854,0 -12.2851,5.4997 -12.2851,12.2851c0,6.7854 5.4997,12.2851 12.2851,12.2851c6.7854,0 12.2851,-9.5976 12.2851,-16.383c0,-6.7811 -5.4997,-8.1872 -12.2851,-8.1872zM55.2851,60.2c-6.7854,0 -12.2851,1.4061 -12.2851,8.1915c0,6.7854 5.4997,16.383 12.2851,16.383c6.7854,0 12.2851,-5.4997 12.2851,-12.2851c0,-6.7854 -5.4997,-12.2894 -12.2851,-12.2894z" fill="#4788c7"></path>
      </g>
      <g>
        <path d="M86,113.95c-2.5972,0 -5.0396,-0.9374 -7.0606,-2.709l-0.3913,-0.344l-0.4988,-0.129c-14.3061,-3.6292 -24.2993,-16.469 -24.2993,-31.218v-39.9814c0,-7.8561 6.3898,-14.2459 14.2416,-14.2459h36.0125c7.8518,0 14.2459,6.3898 14.2459,14.2459v39.9814c0,14.749 -9.9932,27.5888 -24.2993,31.218l-0.4988,0.129l-0.3913,0.344c-2.021,1.7716 -4.4634,2.709 -7.0606,2.709z" fill="#ffffff"></path>
        <path d="M104.0041,27.4727c6.6693,0 12.0959,5.4266 12.0959,12.0959v39.9814c0,13.7643 -9.3267,25.7441 -22.6825,29.1368l-1.0019,0.2537l-0.7783,0.6837c-1.1309,0.9933 -3.0229,2.1758 -5.6373,2.1758c-2.6144,0 -4.5064,-1.1825 -5.6373,-2.1758l-0.7783,-0.6837l-1.0019,-0.2537c-13.3558,-3.3927 -22.6825,-15.3725 -22.6825,-29.1368v-39.9814c0,-6.6693 5.4266,-12.0959 12.0959,-12.0959h36.0082M104.0041,23.1727h-36.0125c-9.0515,0 -16.3916,7.3401 -16.3916,16.3959v39.9814c0,16.0691 11.0338,29.5238 25.9247,33.3035c2.2704,1.9952 5.2159,3.2465 8.4753,3.2465c3.2594,0 6.2049,-1.2513 8.4753,-3.2465c14.8909,-3.7797 25.9247,-17.2344 25.9247,-33.3035v-39.9814c0,-9.0558 -7.3401,-16.3959 -16.3959,-16.3959z" fill="#4788c7"></path>
      </g>
      <g>
        <path d="M118.25,75.25v-15.05c0,-15.6348 -13.0419,-24.0026 -13.6009,-24.3509l-1.7114,-1.075l-1.1825,1.6469c-0.3655,0.5074 -9.1117,12.4141 -28.0102,12.4141c-4.945,0 -19.995,0 -19.995,15.6649v10.75h-0.7697c-1.8748,-4.2226 -7.8303,-18.6276 -7.8303,-30.9084c0,-22.6653 15.5531,-37.8916 38.7,-37.8916c16.5077,0 21.4656,11.1155 21.6677,11.5885l0.5633,1.3029l1.419,0.0086c7.1853,0 19.35,4.9966 19.35,23.7145c0,11.2789 -6.0501,27.4899 -7.9034,32.1855z" fill="#b6dcfe"></path>
        <path d="M83.85,8.6c14.9769,0 19.5134,9.8771 19.6811,10.2555l1.1051,2.6445h2.8638c7.9335,0 17.2,5.6459 17.2,21.5645c0,6.6048 -2.1801,15.0414 -4.3,21.6849v-4.5494c0,-16.8087 -14.0094,-25.7957 -14.6071,-26.1741l-3.4443,-2.1629l-2.3521,3.3196c-0.0817,0.1161 -8.3463,11.4982 -26.2515,11.4982c-14.6931,0.0043 -22.145,5.9985 -22.145,17.8192v1.3502c-2.1113,-6.1146 -4.3,-14.2115 -4.3,-21.5129c0,-21.3753 14.6888,-35.7373 36.55,-35.7373M83.85,4.3c-25.0217,0 -40.85,17.1183 -40.85,40.0373c0,15.1833 8.6,33.0627 8.6,33.0627h4.3c0,0 0,-8.7247 0,-12.9c0,-11.4724 8.7032,-13.5149 17.845,-13.5149c20.339,0 29.7646,-13.3171 29.7646,-13.3171c0,0 12.5904,7.9077 12.5904,22.532c0,4.5967 0,17.2 0,17.2h4.3c0,0 8.6,-20.5024 8.6,-34.3355c0,-19.4231 -12.3711,-25.8645 -21.5,-25.8645c0,0 -5.3879,-12.9 -23.65,-12.9z" fill="#4788c7"></path>
      </g>
    </g>
    <g stroke-width="2" stroke-linecap="round">
      <g id="Layer_1">
        <g fill="#98ccfd" stroke="#4788c7" stroke-linejoin="miter">
          <circle cx="31" cy="31" transform="scale(4.3,4.3)" r="8.5"></circle>
        </g>
        <path d="M133.3,98.9c18.92,0 34.4,15.48 34.4,34.4c0,18.92 -15.48,34.4 -34.4,34.4c-18.92,0 -34.4,-15.48 -34.4,-34.4c0,-18.92 15.48,-34.4 34.4,-34.4M133.3,94.6c-21.5,0 -38.7,17.2 -38.7,38.7c0,21.5 17.2,38.7 38.7,38.7c21.5,0 38.7,-17.2 38.7,-38.7c0,-21.5 -17.2,-38.7 -38.7,-38.7z" fill="#4788c7" stroke="#4788c7" stroke-linejoin="round"></path>
        <path d="M115.24,133.3l12.04,12.04l26.66,-26.66" fill="none" stroke="#ffffff" stroke-linejoin="miter"></path>
      </g>
    </g>
    <path d="M94.6,172v-77.4h77.4v77.4z" id="overlay-drag" fill="#ff0000" stroke="none" stroke-width="1" stroke-linecap="butt" stroke-linejoin="miter" opacity="0"></path>
  </g>
</svg> -->
<svg xmlns="http://www.w3.org/2000/svg" x="0px" y="0px" width="64" height="64" viewBox="0 0 128 128" style=" fill:#000000;">
  <path fill="#fff" d="M101.1,105.6C93.7,92.7,79.9,84,64,84h0c-15.9,0-29.7,8.7-37.1,21.6L27,109h74L101.1,105.6z"></path>
  <path fill="#444b54" d="M78.8,89.7c-0.3,0-0.7-0.1-1-0.2c-4.4-1.6-9-2.5-13.8-2.5c-1.7,0-3-1.3-3-3s1.3-3,3-3c5.5,0,10.8,1,15.9,2.8c1.6,0.6,2.3,2.3,1.8,3.9C81.2,88.9,80,89.7,78.8,89.7z"></path>
  <path fill="#444b54" d="M26.9,108.6c-0.5,0-1-0.1-1.5-0.4c-1.4-0.8-1.9-2.6-1.1-4.1C32.4,89.9,47.6,81,64,81c1.7,0,3,1.3,3,3s-1.3,3-3,3c-14.2,0-27.4,7.7-34.5,20.1C29,108,28,108.6,26.9,108.6z"></path>
  <path fill="#fff" d="M64 30A20 20 0 1 0 64 70A20 20 0 1 0 64 30Z"></path>
  <path fill="#444b54" d="M64,73c-12.7,0-23-10.3-23-23s10.3-23,23-23s23,10.3,23,23S76.7,73,64,73z M64,33c-9.4,0-17,7.6-17,17s7.6,17,17,17s17-7.6,17-17S73.4,33,64,33z"></path>
  <g>
    <path fill="#fff" d="M107.9,109h-14c-1.7,0-3-1.3-3-3s1.3-3,3-3h14c1.7,0,3,1.3,3,3S109.6,109,107.9,109z"></path>
    <path fill="#1fd4af" d="M81,106c0-11,9-20,20-20c5.2,0,10,2,13.5,5.3c0.4,0.4-0.7,1-0.9,1.6c-0.1,0.6,0.7,1.3,1,1.7c0.4,0.5,1.5,1.6,2.4,1.8c0.6,0.1,1.1-0.7,1.2-0.4c1.7,2.9,2.7,6.4,2.7,10c0,11-9,20-20,20S81,117,81,106z"></path>
    <path fill="#fff" d="M114.5,91.3l-13.4,15l-4.8-6.2c-1-1.3-2.9-1.5-4.2-0.5c-1.3,1-1.5,2.9-0.5,4.2l7,9c0.5,0.7,1.4,1.1,2.3,1.2c0,0,0.1,0,0.1,0c0.9,0,1.7-0.4,2.2-1l15.1-17C117.3,94.3,116,92.7,114.5,91.3z"></path>
  </g>
</svg>