<svg id="SvgjsSvg1271" width="288" height="288" xmlns="http://www.w3.org/2000/svg" version="1.1" xmlns:xlink="http://www.w3.org/1999/xlink" xmlns:svgjs="http://svgjs.com/svgjs">
  <defs id="SvgjsDefs1272"></defs>
  <g id="SvgjsG1273" transform="matrix(0.9167,0,0,0.9167,11.995200000000011,11.973379762268081)">
    <svg xmlns="http://www.w3.org/2000/svg" enable-background="new 0 0 128 128" version="1" viewBox="0 0 128 128" width="288" height="288">
      <path fill="#ffffff" d="m 64,82.952698 c -18.045105,0 -34.305725,7.598694 -45.791199,19.756472 C 29.694275,114.86694 45.954895,122.4657 64,122.4657 c 18.045105,0 34.305725,-7.59876 45.7912,-19.75653 C 98.305725,90.551392 82.045105,82.952698 64,82.952698 Z" class="colorffa53d svgShape"></path>
      <path fill="#ffffff" d="m 101.95026,109.71564 c 2.80163,-2.12085 5.43188,-4.45636 7.84094,-7.00647 C 98.305725,90.551392 82.045105,82.952698 64,82.952698 c -1.354919,0 -2.695923,0.05664 -4.029419,0.141052 17.66449,2.185608 32.869995,12.271668 41.979679,26.62189 z" class="colorff8626 svgShape"></path>
      <path fill="#ffffff" d="m 26.049744,109.71564 c -2.801636,-2.12085 -5.431885,-4.45636 -7.840943,-7.00647 C 29.694275,90.551392 45.954895,82.952698 64,82.952698 c 1.354919,0 2.695923,0.05664 4.029419,0.141052 -17.66449,2.185608 -32.869995,12.271668 -41.979675,26.62189 z" class="colorffb956 svgShape"></path>
      <path fill="#ffffff" d="m 41,46.465702 c 0,2.209137 -1.790859,3.999996 -3.999996,3.999996 l -8e-6,0 C 34.790859,50.465698 33,48.674839 33,46.465702 l 0,-7.000008 c 0,-2.209137 1.790859,-3.999996 3.999996,-3.999996 l 8e-6,0 C 39.209141,35.465698 41,37.256557 41,39.465694 l 0,7.000008 z" class="colorf4ceae svgShape"></path>
      <path fill="#ffffff" d="m 95,46.465702 c 0,2.209137 -1.790855,3.999996 -3.999992,3.999996 l -1.6e-5,0 C 88.790855,50.465698 87,48.674839 87,46.465702 l 0,-7.000008 c 0,-2.209137 1.790855,-3.999996 3.999992,-3.999996 l 1.6e-5,0 C 93.209145,35.465698 95,37.256557 95,39.465694 l 0,7.000008 z" class="coloreeb490 svgShape"></path>
      <path fill="none" stroke="#444b53" stroke-miterlimit="10" stroke-width="2" d="M41 46.465702c0 2.209137-1.790859 3.999996-3.999996 3.999996l-.000008 0C34.790859 50.465698 33 48.674839 33 46.465702l0-7.000008c0-2.209137 1.790859-3.999996 3.999996-3.999996l.000008 0C39.209141 35.465698 41 37.256557 41 39.465694l0 7.000008zM95 46.465702c0 2.209137-1.790855 3.999996-3.999992 3.999996l-.000016 0C88.790855 50.465698 87 48.674839 87 46.465702l0-7.000008c0-2.209137 1.790855-3.999996 3.999992-3.999996l.000016 0C93.209145 35.465698 95 37.256557 95 39.465694l0 7.000008zM64 81.952698c-18.045105 0-34.305725 7.598694-45.791199 19.756472C29.694275 113.86694 45.954895 121.4657 64 121.4657c18.045105 0 34.305725-7.59876 45.7912-19.75653C98.305725 89.551392 82.045105 81.952698 64 81.952698z" class="colorStroke234957 svgStroke"></path>
      <path fill="#ffffff" d="M 74.015564,71.52301 74,82.382378 c 0,5.522842 -4.47715,9.999992 -9.999992,9.999992 l -2e-5,0 C 58.477146,92.38237 54,87.90522 54,82.382378 L 54.01556,71.52301" class="colorf4ceae svgShape"></path>
      <path fill="#ffffff" d="M 74.015564,71.52301 74,82.382378 c 0,5.522842 -4.47715,9.999992 -9.999992,9.999992 l -2e-5,0 C 58.477146,92.38237 54,87.90522 54,82.382378 L 54.01556,71.52301" class="colorf4ceae svgShape"></path>
      <path fill="#ffffff" d="M 68.01416,71 68,81.12088 c 0,5.036865 -3.727722,9.322952 -8.572571,10.017227 1.371399,0.707154 2.923279,1.178841 4.572571,1.178841 5.522827,0 10,-4.705925 10,-10.228752 L 74.015564,71 68.01416,71 Z" class="coloreeb490 svgShape"></path>
      <path fill="#4bbfeb" d="m 54,12 -7,0 C 43.157165,12 40.040649,9.135498 40.003479,5.3014526 36.056641,5.7929688 33,9.3856812 33,13.465698 l 0,11 C 33,28.883972 36.581726,32 41,32 l 14,0 9,0 26,0 c 1.656853,0 3,-0.904051 3,-2.555172 L 93,16.420607 C 93,14.219112 91.209137,12 89,12 l -21,0 -14,0 z" class="color608287 svgShape"></path>
      <path fill="#8ad8f7" d="m 49,24.465698 0,-11 C 49,13.12616 49.028565,13 49.069641,12 L 47,12 C 45.989868,12 45.032532,12.0141 44.165527,11.628967 44.059753,12.147522 44,12.91571 44,13.465698 l 0,11 C 44,28.883972 47.581726,32 52,32 l 3,0 2,0 c -4.418274,0 -8,-3.116028 -8,-7.534302 z" class="color90aaaf svgShape"></path>
      <path fill="#4bbfeb" d="M37 12l7 0 3 0C43.157165 12 40.040649 9.135498 40.003479 5.3014526 36.753113 5.7062378 34.111145 7.9417419 33.278259 11.037384 34.356811 11.717377 35.630371 12 37 12zM89 12l-10 0c2.209168 0 4 2.219116 4 4.420593l0 13.024231C83 31.095947 81.65686 32 80 32l10 0c1.65686 0 3-.904053 3-2.555176L93 16.420593C93 14.219116 91.209168 12 89 12z" class="color4e676d svgShape"></path>
      <path fill="#8ad8f7" d="m 38,24.465698 0,-11 C 38,11.231811 38.920349,9.2177734 40.397461,7.7682495 40.153015,7.0667724 40.011047,6.3173218 40.003479,5.5343017 36.056641,6.0258179 33,9.3856812 33,13.465698 l 0,11 C 33,28.883972 36.581726,32 41,32 l 5,0 c -4.418274,0 -8,-3.116028 -8,-7.534302 z" class="color90aaaf svgShape"></path>
      <path fill="#ffffff" stroke="#444b53" stroke-miterlimit="10" stroke-width="2" d="m 90,32.465698 0,20.690025 C 90,66.962829 78.807129,78.155701 65.000023,78.155701 l -2.00005,0 C 49.192871,78.155701 38,66.96283 38,53.155724 l 0,-20.690026" class="colorf4ceae svgShape colorStroke000 svgStroke"></path>
      <path fill="#ffffff" d="m 90,32.465698 0,20.690025 C 90,66.962829 78.807129,78.155701 65.000023,78.155701 l -2.00005,0 C 49.192871,78.155701 38,66.96283 38,53.155724 l 0,-20.690026" class="colorf4ceae svgShape"></path>
      <path fill="#ffffff" d="m 83,32 0,21.155701 C 83,66.118957 73.133118,76.698578 60.5,77.953034 61.322388,78.034699 62.156128,78 63,78 l 2,0 C 78.807129,78 90,66.96283 90,53.155701 L 90,32 83,32 Z" class="coloreeb490 svgShape"></path>
      <path fill="#ffffff" d="m 45,32.465698 0,20.690003 c 0,12.963256 10.116882,23.775726 22.75,25.030182 -0.822388,0.08167 -1.406128,0.279815 -2.25,0.279815 l -2,0 C 49.692871,78.465698 38,66.962829 38,53.155701 l 0,-20.690003 7,0 z" opacity=".16" class="colorfff svgShape"></path>
      <rect width="52" height="6" x="38" y="32" fill="#ffffff" class="coloreeb490 svgShape"></rect>
      <path fill="none" stroke="#444b53" stroke-linecap="round" stroke-linejoin="round" stroke-miterlimit="10" stroke-width="2" d="m 74.031441,62.734898 c -2.384392,2.889217 -5.992859,4.7308 -10.031441,4.7308 -4.021053,0 -7.615707,-1.82563 -10.000317,-4.693233" class="colorStroke234957 svgStroke"></path>
      <circle cx="52.504" cy="43.959" r="2.5" fill="#444b53" class="color234957 svgShape"></circle>
      <circle cx="75.496" cy="43.972" r="2.5" fill="#444b53" class="color234957 svgShape"></circle>
      <line x1="63" x2="64" y1="55" y2="55" stroke="#444b53" stroke-linecap="round" stroke-linejoin="round" stroke-miterlimit="10" stroke-width="2" class="colorStroke234957 svgStroke"></line>
      <path fill="none" stroke="#444b53" stroke-linecap="round" stroke-linejoin="round" stroke-miterlimit="10" stroke-width="2" d="M90 32.465698l0 20.690025C90 66.962829 78.807129 78.155701 65.000023 78.155701l-2.00005 0C49.192871 78.155701 38 66.96283 38 53.155724l0-20.690026M63 12.434448l-16 0c-3.842835 0-6.959351-2.864502-6.996521-6.6985474C36.056641 6.2274168 33 9.8201292 33 13.900146l0 11c0 4.418274 3.581726 7.534302 8 7.534302l14 0 3 0 32.010384 0C91.661499 32.434448 93 31.095949 93 29.444828l0-11.01038c0-3.313708-2.686295-6-6-6l-19 0z" class="colorStroke234957 svgStroke"></path>
      <path fill="none" stroke="#444b53" stroke-miterlimit="10" stroke-width="2" d="M 74.015564,76.52301 74,82.382378 c 0,5.522842 -4.47715,9.999992 -9.999992,9.999992 l -2e-5,0 C 58.477146,92.38237 54,87.90522 54,82.382378 l 0.01556,-5.859368" class="colorStroke234957 svgStroke"></path>
      <circle cx="64.214" cy="100.12" r="1.786" fill="#ffffff" class="colorff8626 svgShape"></circle>
      <circle cx="64.214" cy="107.12" r="1.786" fill="#ffffff" class="colorff8626 svgShape"></circle>
      <circle cx="64.214" cy="114.12" r="1.786" fill="#ffffff" class="colorff8626 svgShape"></circle>
    </svg>
  </g>
</svg>