<svg xml:space="preserve" viewBox="0 0 100 100" y="0" x="0" xmlns="http://www.w3.org/2000/svg" id="圖層_1" version="1.1" style="height: 100%; width: 100%; background: transparent" width="199px" height="199px">
  <g class="ldl-scale" style="transform-origin: 50% 50%; transform: rotate(0deg) scale(1, 1);">
    <g class="ldl-ani">
      <g class="ldl-layer">
        <g class="ldl-ani">
          <g>
            <g class="ldl-layer">
              <g class="ldl-ani" style="transform: scale(0.91); transform-origin: 50px 50px; animation: 1.11111s linear -0.694444s infinite normal forwards running breath-147486a6-231a-4f64-91c9-01113185763b;">
                <path fill="#a0c8d7" d="M60.688 89.375H39.313c-8.595 0-15.563-6.968-15.563-15.563V70c0-13.876 11.249-25.125 25.125-25.125h2.25C65.001 44.875 76.25 56.124 76.25 70v3.813c0 8.594-6.968 15.562-15.562 15.562z" style="fill: rgb(160, 200, 215);"></path>
              </g>
            </g>
            <g class="ldl-layer">
              <g class="ldl-ani" style="transform: scale(0.91); transform-origin: 50px 50px; animation: 1.11111s linear -0.833333s infinite normal forwards running breath-147486a6-231a-4f64-91c9-01113185763b;">
                <circle fill="#f5e6c8" r="21.25" cy="31.875" cx="50" style="fill: rgb(245, 230, 200);"></circle>
              </g>
            </g>
          </g>
        </g>
      </g>
      <g class="ldl-layer">
        <g class="ldl-ani">
          <g>
            <g class="ldl-layer">
              <g class="ldl-ani" style="transform: scale(0.91); transform-origin: 50px 50px; animation: 1.11111s linear -0.972222s infinite normal forwards running breath-147486a6-231a-4f64-91c9-01113185763b;">
                <circle stroke-miterlimit="10" stroke-width="4" stroke="#333" fill="#fff" r="14.738" cy="69.814" cx="69.793" style="fill: rgb(255, 255, 255); stroke: rgb(51, 51, 51);"></circle>
              </g>
            </g>
            <g class="ldl-layer">
              <g class="ldl-ani" style="transform: scale(0.91); transform-origin: 50px 50px; animation: 1.11111s linear -1.11111s infinite normal forwards running breath-147486a6-231a-4f64-91c9-01113185763b;">
                <path fill="#f8b26a" d="M70.167 62.013l2.149 4.354a.418.418 0 0 0 .314.228l4.805.698c.342.05.479.47.231.712l-3.477 3.389a.419.419 0 0 0-.12.369l.821 4.786a.417.417 0 0 1-.605.44l-4.298-2.26a.416.416 0 0 0-.388 0l-4.298 2.26a.417.417 0 0 1-.605-.44l.821-4.786a.419.419 0 0 0-.12-.369l-3.477-3.389a.417.417 0 0 1 .231-.712l4.805-.698a.418.418 0 0 0 .314-.228l2.149-4.354a.417.417 0 0 1 .748 0z" style="fill: rgb(248, 178, 106);"></path>
              </g>
            </g>
          </g>
        </g>
      </g>
    </g>
  </g>
</svg>