<?xml version="1.0" encoding="UTF-8"?>
<svg xmlns="http://www.w3.org/2000/svg" xmlns:xlink="http://www.w3.org/1999/xlink" width="240pt" height="240pt" viewBox="0 0 240 240" version="1.1">
  <defs>
    <radialGradient id="radial0" gradientUnits="userSpaceOnUse" cx="86" cy="86" fx="86" fy="86" r="66.29167" gradientTransform="matrix(4.999995,0,0,4.999995,0,0)">
      <stop offset="0" style="stop-color:rgb(26.666667%,29.411765%,32.54902%);stop-opacity:1;" />
      <stop offset="1" style="stop-color:rgb(26.666667%,29.411765%,32.54902%);stop-opacity:0;" />
    </radialGradient>
    <radialGradient id="radial1" gradientUnits="userSpaceOnUse" cx="85.60583" cy="26.49517" fx="85.60583" fy="26.49517" r="135.74742" gradientTransform="matrix(4.999995,0,0,4.999995,0,0)">
      <stop offset="0" style="stop-color:rgb(100%,100%,100%);stop-opacity:1;" />
      <stop offset="1" style="stop-color:rgb(100%,100%,100%);stop-opacity:1;" />
    </radialGradient>
  </defs>
  <g id="surface5843923">
    <path style=" stroke:none;fill-rule:nonzero;fill:rgb(26.666667%,29.411765%,32.54902%);fill-opacity:1;" d="M 220 120 C 220 175.226562 175.226562 220 120 220 C 64.769531 220 20 175.226562 20 120 C 20 64.769531 64.769531 20 120 20 C 175.226562 20 220 64.769531 220 120 Z M 220 120 " />
    <path style=" stroke:none;fill-rule:nonzero;fill:url(#radial0);" d="M 212.5 120 C 212.5 171.085938 171.085938 212.5 120 212.5 C 68.914062 212.5 27.5 171.085938 27.5 120 C 27.5 68.914062 68.914062 27.5 120 27.5 C 171.085938 27.5 212.5 68.914062 212.5 120 Z M 212.5 120 " />
    <path style=" stroke:none;fill-rule:nonzero;fill:url(#radial1);" d="M 205 120 C 205 166.945312 166.945312 205 120 205 C 73.054688 205 35 166.945312 35 120 C 35 73.054688 73.054688 35 120 35 C 166.945312 35 205 73.054688 205 120 Z M 205 120 " />
    <path style=" stroke:none;fill-rule:nonzero;fill:rgb(100%,100%,100%);fill-opacity:1;" d="M 125 50 C 125 52.761719 122.761719 55 120 55 C 117.238281 55 115 52.761719 115 50 C 115 47.238281 117.238281 45 120 45 C 122.761719 45 125 47.238281 125 50 Z M 120 185 C 117.238281 185 115 187.238281 115 190 C 115 192.761719 117.238281 195 120 195 C 122.761719 195 125 192.761719 125 190 C 125 187.238281 122.761719 185 120 185 Z M 190 115 C 187.238281 115 185 117.238281 185 120 C 185 122.761719 187.238281 125 190 125 C 192.761719 125 195 122.761719 195 120 C 195 117.238281 192.761719 115 190 115 Z M 50 115 C 47.238281 115 45 117.238281 45 120 C 45 122.761719 47.238281 125 50 125 C 52.761719 125 55 122.761719 55 120 C 55 117.238281 52.761719 115 50 115 Z M 50 115 " />
    <path style=" stroke:none;fill-rule:nonzero;fill:rgb(29.411765%,74.901961%,92.156863%);fill-opacity:1;" d="M 120 173.75 C 117.929688 173.75 116.25 172.070312 116.25 170 L 116.25 120 C 116.25 117.929688 117.929688 116.25 120 116.25 C 122.070312 116.25 123.75 117.929688 123.75 120 L 123.75 170 C 123.75 172.070312 122.070312 173.75 120 173.75 Z M 120 173.75 " />
    <path style=" stroke:none;fill-rule:nonzero;fill:rgb(29.411765%,74.901961%,92.156863%);fill-opacity:1;" d="M 120 123.75 C 119.039062 123.75 118.078125 123.386719 117.351562 122.648438 C 115.886719 121.183594 115.886719 118.808594 117.351562 117.34375 L 159.773438 74.921875 C 161.238281 73.453125 163.613281 73.453125 165.078125 74.921875 C 166.546875 76.386719 166.546875 78.761719 165.078125 80.226562 L 122.648438 122.648438 C 121.921875 123.386719 120.960938 123.75 120 123.75 Z M 120 123.75 " />
    <path style=" stroke:none;fill-rule:nonzero;fill:rgb(29.411765%,74.901961%,92.156863%);fill-opacity:1;" d="M 119.996094 126.25 C 119.089844 126.25 118.171875 126.054688 117.296875 125.636719 L 78.359375 106.960938 C 75.246094 105.464844 73.933594 101.734375 75.429688 98.621094 C 76.921875 95.511719 80.65625 94.183594 83.765625 95.691406 L 122.699219 114.363281 C 125.816406 115.859375 127.125 119.589844 125.628906 122.703125 C 124.558594 124.941406 122.324219 126.25 119.996094 126.25 Z M 119.996094 126.25 " />
    <path style=" stroke:none;fill-rule:nonzero;fill:rgb(21.176471%,63.529412%,79.607843%);fill-opacity:1;" d="M 130 120 C 130 125.523438 125.523438 130 120 130 C 114.476562 130 110 125.523438 110 120 C 110 114.476562 114.476562 110 120 110 C 125.523438 110 130 114.476562 130 120 Z M 130 120 " />
  </g>
</svg>
